<?xml version="1.0" standalone="no"?>
<!DOCTYPE svg PUBLIC "-//W3C//DTD SVG 20010904//EN" "http://www.w3.org/TR/2001/REC-SVG-20010904/DTD/svg10.dtd">
<!-- Created using Krita: https://krita.org -->
<svg xmlns="http://www.w3.org/2000/svg" 
    xmlns:xlink="http://www.w3.org/1999/xlink"
    xmlns:krita="http://krita.org/namespaces/svg/krita"
    xmlns:sodipodi="http://sodipodi.sourceforge.net/DTD/sodipodi-0.dtd"
    width="259.2pt"
    height="388.8pt"
    viewBox="0 0 259.2 388.8">
<defs/>
<rect id="rect6472-03" transform="matrix(0.72 0 0 0.72 0.360000000000028 0.3599999999999)" fill="#ffffff" stroke="#000000" stroke-width="0.99999976" stroke-linecap="butt" stroke-linejoin="miter" stroke-miterlimit="2" width="359" height="539" rx="29.944447" ry="29.944447"/><path id="rect3163-5-1-4-3-4-0-8" transform="matrix(1.44 0 0 1.4331414922462 18.0000000000001 21.599928)" fill="#ff5555" stroke="#000000" stroke-opacity="0" stroke-width="0" stroke-linecap="square" stroke-linejoin="bevel" d="M10 0C4.46 0 0 4.46 0 10L0 15L5 15L5 10C5 7.23 7.23 5 10 5C12.77 5 15 7.23 15 10L15 15C15 17.77 12.77 20 10 20L5 20L5 25L10 25C12.77 25 15 27.23 15 30L15 40C15 42.77 12.77 45 10 45C7.23 45 5 42.77 5 40L5 35L0 35L0 40C0 45.54 4.46 50 10 50C15.54 50 20 45.54 20 40L20 30C20 26.9964 18.6771 24.33 16.5938 22.5C18.6771 20.67 20 18.0036 20 15L20 10C20 4.46 15.54 0 10 0Z"/><path id="rect3163-5-1-4-3-4-0-4-2" transform="matrix(1.44 0 0 1.43314258416333 212.4 295.54282786613)" fill="#ff5555" stroke="#000000" stroke-opacity="0" stroke-width="0" stroke-linecap="square" stroke-linejoin="bevel" d="M10 50C15.54 50 20 45.54 20 40L20 35L15 35L15 40C15 42.77 12.77 45 10 45C7.23 45 5 42.77 5 40L5 35C5 32.23 7.23 30 10 30L15 30L15 25L10 25C7.23 25 5 22.77 5 20L5 10C5 7.23 7.23 5 10 5C12.77 5 15 7.23 15 10L15 15L20 15L20 10C20 4.46 15.54 0 10 0C4.46 0 0 4.46 0 10L0 20C0 23.0036 1.32295 25.67 3.40625 27.5C1.32295 29.33 0 31.9964 0 35L0 40C0 45.54 4.46 50 10 50Z"/><path id="path3204-24-1-52" transform="matrix(1.44 0 0 1.4331414922462 10.8 107.588560848921)" fill="#ff5555" stroke="#000000" stroke-opacity="0" stroke-width="0" stroke-linecap="square" stroke-linejoin="bevel" d="M15 0C15 0 18 7.5 21.5 12.5C25 17.5 30 22.5 30 22.5C30 22.5 25 27.5 21.5 32.5C18 37.5 15 45 15 45C15 45 12 37.5 8.5 32.5C5 27.5 0 22.5 0 22.5C0 22.5 5 17.5 8.5 12.5C12 7.5 15 0 15 0"/><path id="path3204-24-1-1-0" transform="matrix(1.44 0 0 1.43314258416333 205.2 216.7200144)" fill="#ff5555" stroke="#000000" stroke-opacity="0" stroke-width="0" stroke-linecap="square" stroke-linejoin="bevel" d="M15 0C15 0 18 7.5 21.5 12.5C25 17.5 30 22.5 30 22.5C30 22.5 25 27.5 21.5 32.5C18 37.5 15 45 15 45C15 45 12 37.5 8.5 32.5C5 27.5 0 22.5 0 22.5C0 22.5 5 17.5 8.5 12.5C12 7.5 15 0 15 0"/><path id="path3204-24-4-3" transform="matrix(0.72 0 0 0.72 108 32.3999999999999)" fill="#ff5555" stroke="#000000" stroke-opacity="0" stroke-width="0" stroke-linecap="square" stroke-linejoin="bevel" d="M30 0C30 0 36 15 43 25C50 35 60 45 60 45C60 45 50 55 43 65C36 75 30 90 30 90C30 90 24 75 17 65C10 55 0 45 0 45C0 45 10 35 17 25C24 15 30 0 30 0"/><path id="path3204-24-72" transform="matrix(0.72 0 0 0.72 108 162)" fill="#ff5555" stroke="#000000" stroke-opacity="0" stroke-width="0" stroke-linecap="square" stroke-linejoin="bevel" d="M30 0C30 0 36 15 43 25C50 35 60 45 60 45C60 45 50 55 43 65C36 75 30 90 30 90C30 90 24 75 17 65C10 55 0 45 0 45C0 45 10 35 17 25C24 15 30 0 30 0"/><path id="path3204-24-0-97" transform="matrix(0.72 0 0 0.72 108 291.6)" fill="#ff5555" stroke="#000000" stroke-opacity="0" stroke-width="0" stroke-linecap="square" stroke-linejoin="bevel" d="M30 0C30 0 36 15 43 25C50 35 60 45 60 45C60 45 50 55 43 65C36 75 30 90 30 90C30 90 24 75 17 65C10 55 0 45 0 45C0 45 10 35 17 25C24 15 30 0 30 0"/>
</svg>
