<?xml version="1.0" standalone="no"?>
<!DOCTYPE svg PUBLIC "-//W3C//DTD SVG 20010904//EN" "http://www.w3.org/TR/2001/REC-SVG-20010904/DTD/svg10.dtd">
<!-- Created using Krita: https://krita.org -->
<svg xmlns="http://www.w3.org/2000/svg" 
    xmlns:xlink="http://www.w3.org/1999/xlink"
    xmlns:krita="http://krita.org/namespaces/svg/krita"
    xmlns:sodipodi="http://sodipodi.sourceforge.net/DTD/sodipodi-0.dtd"
    width="259.2pt"
    height="388.8pt"
    viewBox="0 0 259.2 388.8">
<defs/>
<rect id="rect6472-2" transform="matrix(0.72 0 0 0.72 0.360000000000028 0.3599999999999)" fill="#ffffff" stroke="#000000" stroke-width="0.99999976" stroke-linecap="butt" stroke-linejoin="miter" stroke-miterlimit="2" width="359" height="539" rx="29.944447" ry="29.944447"/><path id="rect3980-7-6-2-9-9-2" transform="matrix(1.44 0 0 1.4331414922462 18.0000000000001 21.599928)" fill="#000000" stroke="#000000" stroke-opacity="0" stroke-width="0" stroke-linecap="square" stroke-linejoin="bevel" d="M10 0L0 35L0 40L12 40L12 50L17 50L17 40L20 40L20 35L17 35L17 20L12 20L12 35L5.2 35L15.2 0Z"/><path id="rect3980-7-6-2-9-9-8-2" transform="matrix(1.44 0 0 1.43314258416333 212.4 295.54282786613)" fill="#000000" stroke="#000000" stroke-opacity="0" stroke-width="0" stroke-linecap="square" stroke-linejoin="bevel" d="M10 50L20 15L20 10L8 10L8 0L3 0L3 10L0 10L0 15L3 15L3 30L8 30L8 15L14.8 15L4.80001 50Z"/><path id="path3037-7-4-7-6" transform="matrix(1.44 0 0 1.4331414922462 10.8 107.588560848921)" fill="#000000" stroke="#000000" stroke-opacity="0" stroke-width="0" stroke-linecap="square" stroke-linejoin="bevel" d="M17.5 28C18 30 20 35 23.5 35C28 35 30 31 30 26C30 22.5 28.7105 20.1939 27.5 17.5C26.2111 14.6316 24.3103 12.0713 22.5 9.5C20.1773 6.20105 15 0 15 0C15 0 9.82265 6.20105 7.5 9.5C5.68966 12.0713 3.78894 14.6316 2.5 17.5C1.28947 20.1939 0 22.5 0 26C0 31 2 35 6.5 35C10 35 12 30 12.5 28C13 27.5 13 28 13 28.5C12.5 32.5 12.5 33.5 12 36.5C11.5 39.5 10 45 10 45C12.5 44 17.5 44 20 45C20 45 18.5 39.5 18 36.5C17.5 33.5 17.5 32.5 17 28.5C17 28 17 27.5 17.5 28Z"/><path id="path3037-7-4-4-4" transform="matrix(1.44 0 0 1.43314258416333 205.2 216.7200144)" fill="#000000" stroke="#000000" stroke-opacity="0" stroke-width="0" stroke-linecap="square" stroke-linejoin="bevel" d="M17.5 17C18 15 20 10 23.5 10C28 10 30 14 30 19C30 22.5 28.7105 24.8061 27.5 27.5C26.2111 30.3684 24.3103 32.9287 22.5 35.5C20.1773 38.7989 15 45 15 45C15 45 9.82265 38.7989 7.5 35.5C5.68966 32.9287 3.78894 30.3684 2.5 27.5C1.28947 24.8061 0 22.5 0 19C0 14 2 10 6.5 10C10 10 12 15 12.5 17C13 17.5 13 17 13 16.5C12.5 12.5 12.5 11.5 12 8.5C11.5 5.5 10 0 10 0C12.5 1 17.5 1 20 0C20 0 18.5 5.5 18 8.5C17.5 11.5 17.5 12.5 17 16.5C17 17 17 17.5 17.5 17Z"/><g id="g3027" transform="matrix(0.72 0 0 0.72 63.2 32.3999999999999)" fill="none">
  <path id="path3029" fill="#000000" stroke="#000000" stroke-opacity="0" stroke-width="0" stroke-linecap="square" stroke-linejoin="bevel" d="M35.0079 55.9843C36 59.9882 40.0039 70.0157 46.9843 70.0157C55.9843 70.0157 59.9882 62.0079 59.9882 52.0157C59.9882 45 57.437 40.3937 54.9921 35.0079C52.4055 29.2677 48.6142 24.1299 45 18.9921C40.3583 12.4016 30.0118 0 30.0118 0C30.0118 0 19.6299 12.4016 14.9882 18.9921C11.374 24.1299 7.58268 29.2677 4.99606 35.0079C2.58661 40.3937 0 45 0 52.0157C0 62.0079 4.00394 70.0157 13.0039 70.0157C19.9843 70.0157 23.9882 59.9882 25.0157 55.9843C26.0079 54.9921 26.0079 55.9843 26.0079 57.0118C25.0157 64.9843 25.0157 67.0039 23.9882 72.9921C22.9961 79.0157 19.9843 90 19.9843 90C25.0157 88.0157 35.0079 88.0157 40.0039 90C40.0039 90 36.9921 79.0157 36 72.9921C35.0079 67.0039 35.0079 64.9843 34.0157 57.0118C34.0157 55.9843 34.0157 54.9921 35.0079 55.9843Z"/>
 </g><g id="g3041" transform="matrix(0.72 0 0 0.72 152.8 32.3999999999999)" fill="none">
  <path id="path3043" fill="#000000" stroke="#000000" stroke-opacity="0" stroke-width="0" stroke-linecap="square" stroke-linejoin="bevel" d="M35.0079 55.9843C36 59.9882 40.0039 70.0157 46.9843 70.0157C55.9843 70.0157 59.9882 62.0079 59.9882 52.0157C59.9882 45 57.437 40.3937 54.9921 35.0079C52.4055 29.2677 48.6142 24.1299 45 18.9921C40.3583 12.4016 30.0118 0 30.0118 0C30.0118 0 19.6299 12.4016 14.9882 18.9921C11.374 24.1299 7.58268 29.2677 4.99606 35.0079C2.58661 40.3937 0 45 0 52.0157C0 62.0079 4.00394 70.0157 13.0039 70.0157C19.9843 70.0157 23.9882 59.9882 25.0157 55.9843C26.0079 54.9921 26.0079 55.9843 26.0079 57.0118C25.0157 64.9843 25.0157 67.0039 23.9882 72.9921C22.9961 79.0157 19.9843 90 19.9843 90C25.0157 88.0157 35.0079 88.0157 40.0039 90C40.0039 90 36.9921 79.0157 36 72.9921C35.0079 67.0039 35.0079 64.9843 34.0157 57.0118C34.0157 55.9843 34.0157 54.9921 35.0079 55.9843Z"/>
 </g><g id="g3055" transform="matrix(0.72 0 0 -0.72 63.2 356.4000144)" fill="none">
  <path id="path3057" fill="#000000" stroke="#000000" stroke-opacity="0" stroke-width="0" stroke-linecap="square" stroke-linejoin="bevel" d="M35.0079 55.9843C36 59.9882 40.0039 70.0157 46.9843 70.0157C55.9843 70.0157 59.9882 62.0079 59.9882 52.0157C59.9882 45 57.437 40.3937 54.9921 35.0079C52.4055 29.2677 48.6142 24.1299 45 18.9921C40.3583 12.4016 30.0118 0 30.0118 0C30.0118 0 19.6299 12.4016 14.9882 18.9921C11.374 24.1299 7.58268 29.2677 4.99606 35.0079C2.58661 40.3937 0 45 0 52.0157C0 62.0079 4.00394 70.0157 13.0039 70.0157C19.9843 70.0157 23.9882 59.9882 25.0157 55.9843C26.0079 54.9921 26.0079 55.9843 26.0079 57.0118C25.0157 64.9843 25.0157 67.0039 23.9882 72.9921C22.9961 79.0157 19.9843 90 19.9843 90C25.0157 88.0157 35.0079 88.0157 40.0039 90C40.0039 90 36.9921 79.0157 36 72.9921C35.0079 67.0039 35.0079 64.9843 34.0157 57.0118C34.0157 55.9843 34.0157 54.9921 35.0079 55.9843Z"/>
 </g><g id="g3069" transform="matrix(0.72 0 0 -0.72 152.8 356.4000144)" fill="none">
  <path id="path3071" fill="#000000" stroke="#000000" stroke-opacity="0" stroke-width="0" stroke-linecap="square" stroke-linejoin="bevel" d="M35.0079 55.9843C36 59.9882 40.0039 70.0157 46.9843 70.0157C55.9843 70.0157 59.9882 62.0079 59.9882 52.0157C59.9882 45 57.437 40.3937 54.9921 35.0079C52.4055 29.2677 48.6142 24.1299 45 18.9921C40.3583 12.4016 30.0118 0 30.0118 0C30.0118 0 19.6299 12.4016 14.9882 18.9921C11.374 24.1299 7.58268 29.2677 4.99606 35.0079C2.58661 40.3937 0 45 0 52.0157C0 62.0079 4.00394 70.0157 13.0039 70.0157C19.9843 70.0157 23.9882 59.9882 25.0157 55.9843C26.0079 54.9921 26.0079 55.9843 26.0079 57.0118C25.0157 64.9843 25.0157 67.0039 23.9882 72.9921C22.9961 79.0157 19.9843 90 19.9843 90C25.0157 88.0157 35.0079 88.0157 40.0039 90C40.0039 90 36.9921 79.0157 36 72.9921C35.0079 67.0039 35.0079 64.9843 34.0157 57.0118C34.0157 55.9843 34.0157 54.9921 35.0079 55.9843Z"/>
 </g>
</svg>
