<?xml version="1.0" standalone="no"?>
<!DOCTYPE svg PUBLIC "-//W3C//DTD SVG 20010904//EN" "http://www.w3.org/TR/2001/REC-SVG-20010904/DTD/svg10.dtd">
<!-- Created using Krita: https://krita.org -->
<svg xmlns="http://www.w3.org/2000/svg" 
    xmlns:xlink="http://www.w3.org/1999/xlink"
    xmlns:krita="http://krita.org/namespaces/svg/krita"
    xmlns:sodipodi="http://sodipodi.sourceforge.net/DTD/sodipodi-0.dtd"
    width="259.2pt"
    height="388.8pt"
    viewBox="0 0 259.2 388.8">
<defs/>
<rect id="rect6472-39" transform="matrix(0.72 0 0 0.72 0.360000000000028 0.3599999999999)" fill="#ffffff" stroke="#000000" stroke-width="0.99999976" stroke-linecap="butt" stroke-linejoin="miter" stroke-miterlimit="2" width="359" height="539" rx="29.944447" ry="29.944447"/><path id="rect3980-2-1-93-8" transform="matrix(1.44 0 0 1.4331414922462 18.0000000000001 21.599928)" fill="#ff5555" stroke="#000000" stroke-opacity="0" stroke-width="0" stroke-linecap="square" stroke-linejoin="bevel" d="M0 0L0 5L0 10L5 10L5 5L15 5L5 50L10 50L20 5L20 0Z"/><path id="rect3980-2-1-93-0-80" transform="matrix(1.44 0 0 1.43314258416333 212.4 295.54282786613)" fill="#ff5555" stroke="#000000" stroke-opacity="0" stroke-width="0" stroke-linecap="square" stroke-linejoin="bevel" d="M20 50L20 45L20 40L15 40L15 45L5 45L15 0L10 0L0 45L0 50Z"/><path id="path3204-24-1-8" transform="matrix(1.44 0 0 1.4331414922462 10.8 107.588560848921)" fill="#ff5555" stroke="#000000" stroke-opacity="0" stroke-width="0" stroke-linecap="square" stroke-linejoin="bevel" d="M15 0C15 0 18 7.5 21.5 12.5C25 17.5 30 22.5 30 22.5C30 22.5 25 27.5 21.5 32.5C18 37.5 15 45 15 45C15 45 12 37.5 8.5 32.5C5 27.5 0 22.5 0 22.5C0 22.5 5 17.5 8.5 12.5C12 7.5 15 0 15 0"/><path id="path3204-24-1-1-7" transform="matrix(1.44 0 0 1.43314258416333 205.2 216.7200144)" fill="#ff5555" stroke="#000000" stroke-opacity="0" stroke-width="0" stroke-linecap="square" stroke-linejoin="bevel" d="M15 0C15 0 18 7.5 21.5 12.5C25 17.5 30 22.5 30 22.5C30 22.5 25 27.5 21.5 32.5C18 37.5 15 45 15 45C15 45 12 37.5 8.5 32.5C5 27.5 0 22.5 0 22.5C0 22.5 5 17.5 8.5 12.5C12 7.5 15 0 15 0"/><path id="path3204-24-9-7" transform="matrix(0.72 0 0 0.72 63.2 32.3999999999999)" fill="#ff5555" stroke="#000000" stroke-opacity="0" stroke-width="0" stroke-linecap="square" stroke-linejoin="bevel" d="M30 0C30 0 36 15 43 25C50 35 60 45 60 45C60 45 50 55 43 65C36 75 30 90 30 90C30 90 24 75 17 65C10 55 0 45 0 45C0 45 10 35 17 25C24 15 30 0 30 0"/><path id="path3204-24-4-83" transform="matrix(0.72 0 0 0.72 152.8 32.3999999999999)" fill="#ff5555" stroke="#000000" stroke-opacity="0" stroke-width="0" stroke-linecap="square" stroke-linejoin="bevel" d="M30 0C30 0 36 15 43 25C50 35 60 45 60 45C60 45 50 55 43 65C36 75 30 90 30 90C30 90 24 75 17 65C10 55 0 45 0 45C0 45 10 35 17 25C24 15 30 0 30 0"/><path id="path3204-24-8-8" transform="matrix(0.72 0 0 0.72 108 97.1999999999999)" fill="#ff5555" stroke="#000000" stroke-opacity="0" stroke-width="0" stroke-linecap="square" stroke-linejoin="bevel" d="M30 0C30 0 36 15 43 25C50 35 60 45 60 45C60 45 50 55 43 65C36 75 30 90 30 90C30 90 24 75 17 65C10 55 0 45 0 45C0 45 10 35 17 25C24 15 30 0 30 0"/><path id="path3204-24-37" transform="matrix(0.72 0 0 0.72 63.2 162)" fill="#ff5555" stroke="#000000" stroke-opacity="0" stroke-width="0" stroke-linecap="square" stroke-linejoin="bevel" d="M30 0C30 0 36 15 43 25C50 35 60 45 60 45C60 45 50 55 43 65C36 75 30 90 30 90C30 90 24 75 17 65C10 55 0 45 0 45C0 45 10 35 17 25C24 15 30 0 30 0"/><path id="path3204-24-82" transform="matrix(0.72 0 0 0.72 152.8 162)" fill="#ff5555" stroke="#000000" stroke-opacity="0" stroke-width="0" stroke-linecap="square" stroke-linejoin="bevel" d="M30 0C30 0 36 15 43 25C50 35 60 45 60 45C60 45 50 55 43 65C36 75 30 90 30 90C30 90 24 75 17 65C10 55 0 45 0 45C0 45 10 35 17 25C24 15 30 0 30 0"/><path id="path3204-24-45-1" transform="matrix(0.72 0 0 0.72 63.2 291.6)" fill="#ff5555" stroke="#000000" stroke-opacity="0" stroke-width="0" stroke-linecap="square" stroke-linejoin="bevel" d="M30 0C30 0 36 15 43 25C50 35 60 45 60 45C60 45 50 55 43 65C36 75 30 90 30 90C30 90 24 75 17 65C10 55 0 45 0 45C0 45 10 35 17 25C24 15 30 0 30 0"/><path id="path3204-24-5" transform="matrix(0.72 0 0 0.72 152.8 291.6)" fill="#ff5555" stroke="#000000" stroke-opacity="0" stroke-width="0" stroke-linecap="square" stroke-linejoin="bevel" d="M30 0C30 0 36 15 43 25C50 35 60 45 60 45C60 45 50 55 43 65C36 75 30 90 30 90C30 90 24 75 17 65C10 55 0 45 0 45C0 45 10 35 17 25C24 15 30 0 30 0"/>
</svg>
