<?xml version="1.0" standalone="no"?>
<!DOCTYPE svg PUBLIC "-//W3C//DTD SVG 20010904//EN" "http://www.w3.org/TR/2001/REC-SVG-20010904/DTD/svg10.dtd">
<!-- Created using Krita: https://krita.org -->
<svg xmlns="http://www.w3.org/2000/svg" 
    xmlns:xlink="http://www.w3.org/1999/xlink"
    xmlns:krita="http://krita.org/namespaces/svg/krita"
    xmlns:sodipodi="http://sodipodi.sourceforge.net/DTD/sodipodi-0.dtd"
    width="259.2pt"
    height="388.8pt"
    viewBox="0 0 259.2 388.8">
<defs/>
<rect id="rect6472-13" transform="matrix(0.719999999999999 0 0 0.719999999999999 0.36 0.360000000000014)" fill="#ffffff" stroke="#000000" stroke-width="0.99999976" stroke-linecap="butt" stroke-linejoin="miter" stroke-miterlimit="2" width="359" height="539" rx="29.944447" ry="29.944447"/><path id="rect3163-5-18-0-7-5" transform="matrix(1.44 0 0 1.4331414922462 18 21.5999279999999)" fill="#000000" stroke="#000000" stroke-opacity="0" stroke-width="0" stroke-linecap="square" stroke-linejoin="bevel" d="M10 0C4.46 0 0 4.46 0 10L0 15C0 18.0036 1.323 20.67 3.4063 22.5C1.323 24.33 0 26.9964 0 30L0 40C0 45.54 4.46 50 10 50C15.54 50 20 45.54 20 40L20 30C20 26.9964 18.677 24.33 16.5938 22.5C18.677 20.67 20 18.0036 20 15L20 10C20 4.46 15.54 0 10 0ZM10 5C12.77 5 15 7.23 15 10L15 15C15 17.77 12.77 20 10 20C7.23 20 5 17.77 5 15L5 10C5 7.23 7.23 5 10 5ZM10 25C12.77 25 15 27.23 15 30L15 40C15 42.77 12.77 45 10 45C7.23 45 5 42.77 5 40L5 30C5 27.23 7.23 25 10 25Z"/><path id="rect3163-5-18-0-7-4-9" transform="matrix(1.44 0 0 1.43314394906205 212.4 295.542716284018)" fill="#000000" stroke="#000000" stroke-opacity="0" stroke-width="0" stroke-linecap="square" stroke-linejoin="bevel" d="M10 50C4.46 50 0 45.54 0 40L0 35C0 31.9964 1.323 29.33 3.4063 27.5C1.323 25.67 0 23.0036 0 20L0 10C0 4.46 4.46 0 10 0C15.54 0 20 4.46 20 10L20 20C20 23.0036 18.677 25.67 16.5938 27.5C18.677 29.33 20 31.9964 20 35L20 40C20 45.54 15.54 50 10 50ZM10 45C12.77 45 15 42.77 15 40L15 35C15 32.23 12.77 30 10 30C7.23 30 5 32.23 5 35L5 40C5 42.77 7.23 45 10 45ZM10 25C12.77 25 15 22.77 15 20L15 10C15 7.23 12.77 5 10 5C7.23 5 5 7.23 5 10L5 20C5 22.77 7.23 25 10 25Z"/><path id="path3037-1-8" transform="matrix(1.44 0 0 1.4331414922462 10.8 107.588560848921)" fill="#000000" stroke="#000000" stroke-opacity="0" stroke-width="0" stroke-linecap="square" stroke-linejoin="bevel" d="M17.5 28C18.5 30 21 33 23.5 33C28 33 30 29 30 24C30 19 28 14.5 23.5 14.5C21 14.5 19.5 17 18 18.5C17.5 19 17 18.5 17.5 18C19 16.5 21.5 12.5 21.5 9C21.5 5 19 0 15 0C11 0 8.5 5 8.5 9C8.5 12.5 11 16.5 12.5 18C13 18.5 12.5 19 12 18.5C10.5 17 9 14.5 6.5 14.5C2 14.5 0 19 0 24C0 29 2 33 6.5 33C9 33 11.5 30 12.5 28C13 27.5 13 28 13 28.5C12.5 32.5 12.5 33.5 12 36.5C11.5 39.5 10 45 10 45C12.5 44 17.5 44 20 45C20 45 18.5 39.5 18 36.5C17.5 33.5 17.5 32.5 17 28.5C17 28 17 27.5 17.5 28Z"/><path id="path3037-1-1-4" transform="matrix(1.44 0 0 1.43314394906205 205.2 216.7199424)" fill="#000000" stroke="#000000" stroke-opacity="0" stroke-width="0" stroke-linecap="square" stroke-linejoin="bevel" d="M17.5 17C18.5 15 21 12 23.5 12C28 12 30 16 30 21C30 26 28 30.5 23.5 30.5C21 30.5 19.5 28 18 26.5C17.5 26 17 26.5 17.5 27C19 28.5 21.5 32.5 21.5 36C21.5 40 19 45 15 45C11 45 8.5 40 8.5 36C8.5 32.5 11 28.5 12.5 27C13 26.5 12.5 26 12 26.5C10.5 28 9 30.5 6.5 30.5C2 30.5 0 26 0 21C0 16 2 12 6.5 12C9 12 11.5 15 12.5 17C13 17.5 13 17 13 16.5C12.5 12.5 12.5 11.5 12 8.5C11.5 5.5 10 0 10 0C12.5 1 17.5 1 20 0C20 0 18.5 5.5 18 8.5C17.5 11.5 17.5 12.5 17 16.5C17 17 17 17.5 17.5 17Z"/><path id="path3037-07" transform="matrix(0.719999999999999 0 0 0.719999999999999 63.2 32.3999999999999)" fill="#000000" stroke="#000000" stroke-opacity="0" stroke-width="0" stroke-linecap="square" stroke-linejoin="bevel" d="M35 56C37 60 42 66 47 66C56 66 60 58 60 48C60 38 56 29 47 29C42 29 39 34 36 37C35 38 34 37 35 36C38 33 43 25 43 18C43 10 38 0 30 0C22 0 17 10 17 18C17 25 22 33 25 36C26 37 25 38 24 37C21 34 18 29 13 29C4 29 0 38 0 48C0 58 4 66 13 66C18 66 23 60 25 56C26 55 26 56 26 57C25 65 25 67 24 73C23 79 20 90 20 90C25 88 35 88 40 90C40 90 37 79 36 73C35 67 35 65 34 57C34 56 34 55 35 56Z"/><path id="path3037-7-6" transform="matrix(0.719999999999999 0 0 0.719999999999999 152.8 32.3999999999999)" fill="#000000" stroke="#000000" stroke-opacity="0" stroke-width="0" stroke-linecap="square" stroke-linejoin="bevel" d="M35 56C37 60 42 66 47 66C56 66 60 58 60 48C60 38 56 29 47 29C42 29 39 34 36 37C35 38 34 37 35 36C38 33 43 25 43 18C43 10 38 0 30 0C22 0 17 10 17 18C17 25 22 33 25 36C26 37 25 38 24 37C21 34 18 29 13 29C4 29 0 38 0 48C0 58 4 66 13 66C18 66 23 60 25 56C26 55 26 56 26 57C25 65 25 67 24 73C23 79 20 90 20 90C25 88 35 88 40 90C40 90 37 79 36 73C35 67 35 65 34 57C34 56 34 55 35 56Z"/><path id="path3037-4-3" transform="matrix(0.719999999999999 0 0 0.719999999999999 108 97.1999999999998)" fill="#000000" stroke="#000000" stroke-opacity="0" stroke-width="0" stroke-linecap="square" stroke-linejoin="bevel" d="M35 56C37 60 42 66 47 66C56 66 60 58 60 48C60 38 56 29 47 29C42 29 39 34 36 37C35 38 34 37 35 36C38 33 43 25 43 18C43 10 38 0 30 0C22 0 17 10 17 18C17 25 22 33 25 36C26 37 25 38 24 37C21 34 18 29 13 29C4 29 0 38 0 48C0 58 4 66 13 66C18 66 23 60 25 56C26 55 26 56 26 57C25 65 25 67 24 73C23 79 20 90 20 90C25 88 35 88 40 90C40 90 37 79 36 73C35 67 35 65 34 57C34 56 34 55 35 56Z"/><path id="path3037-0-6" transform="matrix(0.719999999999999 0 0 0.719999999999999 63.2 162)" fill="#000000" stroke="#000000" stroke-opacity="0" stroke-width="0" stroke-linecap="square" stroke-linejoin="bevel" d="M35 56C37 60 42 66 47 66C56 66 60 58 60 48C60 38 56 29 47 29C42 29 39 34 36 37C35 38 34 37 35 36C38 33 43 25 43 18C43 10 38 0 30 0C22 0 17 10 17 18C17 25 22 33 25 36C26 37 25 38 24 37C21 34 18 29 13 29C4 29 0 38 0 48C0 58 4 66 13 66C18 66 23 60 25 56C26 55 26 56 26 57C25 65 25 67 24 73C23 79 20 90 20 90C25 88 35 88 40 90C40 90 37 79 36 73C35 67 35 65 34 57C34 56 34 55 35 56Z"/><path id="path3037-9-1" transform="matrix(0.719999999999999 0 0 0.719999999999999 152.8 162)" fill="#000000" stroke="#000000" stroke-opacity="0" stroke-width="0" stroke-linecap="square" stroke-linejoin="bevel" d="M35 56C37 60 42 66 47 66C56 66 60 58 60 48C60 38 56 29 47 29C42 29 39 34 36 37C35 38 34 37 35 36C38 33 43 25 43 18C43 10 38 0 30 0C22 0 17 10 17 18C17 25 22 33 25 36C26 37 25 38 24 37C21 34 18 29 13 29C4 29 0 38 0 48C0 58 4 66 13 66C18 66 23 60 25 56C26 55 26 56 26 57C25 65 25 67 24 73C23 79 20 90 20 90C25 88 35 88 40 90C40 90 37 79 36 73C35 67 35 65 34 57C34 56 34 55 35 56Z"/><path id="path3037-488-5" transform="matrix(0.719999999999999 0 0 0.719999999999999 108 226.8)" fill="#000000" stroke="#000000" stroke-opacity="0" stroke-width="0" stroke-linecap="square" stroke-linejoin="bevel" d="M35 34C37 30 42 24 47 24C56 24 60 32 60 42C60 52 56 61 47 61C42 61 39 56 36 53C35 52 34 53 35 54C38 57 43 65 43 72C43 80 38 90 30 90C22 90 17 80 17 72C17 65 22 57 25 54C26 53 25 52 24 53C21 56 18 61 13 61C4 61 0 52 0 42C0 32 4 24 13 24C18 24 23 30 25 34C26 35 26 34 26 33C25 25 25 23 24 17C23 11 20 0 20 0C25 2 35 2 40 0C40 0 37 11 36 17C35 23 35 25 34 33C34 34 34 35 35 34Z"/><path id="path3037-2-4" transform="matrix(0.719999999999999 0 0 0.719999999999999 63.2 291.6)" fill="#000000" stroke="#000000" stroke-opacity="0" stroke-width="0" stroke-linecap="square" stroke-linejoin="bevel" d="M35 34C37 30 42 24 47 24C56 24 60 32 60 42C60 52 56 61 47 61C42 61 39 56 36 53C35 52 34 53 35 54C38 57 43 65 43 72C43 80 38 90 30 90C22 90 17 80 17 72C17 65 22 57 25 54C26 53 25 52 24 53C21 56 18 61 13 61C4 61 0 52 0 42C0 32 4 24 13 24C18 24 23 30 25 34C26 35 26 34 26 33C25 25 25 23 24 17C23 11 20 0 20 0C25 2 35 2 40 0C40 0 37 11 36 17C35 23 35 25 34 33C34 34 34 35 35 34Z"/><path id="path3037-45-2" transform="matrix(0.719999999999999 0 0 0.719999999999999 152.8 291.6)" fill="#000000" stroke="#000000" stroke-opacity="0" stroke-width="0" stroke-linecap="square" stroke-linejoin="bevel" d="M35 34C37 30 42 24 47 24C56 24 60 32 60 42C60 52 56 61 47 61C42 61 39 56 36 53C35 52 34 53 35 54C38 57 43 65 43 72C43 80 38 90 30 90C22 90 17 80 17 72C17 65 22 57 25 54C26 53 25 52 24 53C21 56 18 61 13 61C4 61 0 52 0 42C0 32 4 24 13 24C18 24 23 30 25 34C26 35 26 34 26 33C25 25 25 23 24 17C23 11 20 0 20 0C25 2 35 2 40 0C40 0 37 11 36 17C35 23 35 25 34 33C34 34 34 35 35 34Z"/>
</svg>
