<?xml version="1.0" standalone="no"?>
<!DOCTYPE svg PUBLIC "-//W3C//DTD SVG 20010904//EN" "http://www.w3.org/TR/2001/REC-SVG-20010904/DTD/svg10.dtd">
<!-- Created using Krita: https://krita.org -->
<svg xmlns="http://www.w3.org/2000/svg" 
    xmlns:xlink="http://www.w3.org/1999/xlink"
    xmlns:krita="http://krita.org/namespaces/svg/krita"
    xmlns:sodipodi="http://sodipodi.sourceforge.net/DTD/sodipodi-0.dtd"
    width="259.2pt"
    height="388.8pt"
    viewBox="0 0 259.2 388.8">
<defs/>
<rect id="rect6472-66" transform="matrix(0.72 0 0 0.72 0.360000000000028 0.3599999999999)" fill="#ffffff" stroke="#000000" stroke-width="0.99999976" stroke-linecap="butt" stroke-linejoin="miter" stroke-miterlimit="2" width="359" height="539" rx="29.944447" ry="29.944447"/><path id="rect3163-5-18-0-7" transform="matrix(1.44 0 0 1.4331414922462 18.0000000000001 21.599928)" fill="#000000" stroke="#000000" stroke-opacity="0" stroke-width="0" stroke-linecap="square" stroke-linejoin="bevel" d="M10 0C4.46 0 0 4.46 0 10L0 15C0 18.0036 1.323 20.67 3.4063 22.5C1.323 24.33 0 26.9964 0 30L0 40C0 45.54 4.46 50 10 50C15.54 50 20 45.54 20 40L20 30C20 26.9964 18.677 24.33 16.5938 22.5C18.677 20.67 20 18.0036 20 15L20 10C20 4.46 15.54 0 10 0ZM10 5C12.77 5 15 7.23 15 10L15 15C15 17.77 12.77 20 10 20C7.23 20 5 17.77 5 15L5 10C5 7.23 7.23 5 10 5ZM10 25C12.77 25 15 27.23 15 30L15 40C15 42.77 12.77 45 10 45C7.23 45 5 42.77 5 40L5 30C5 27.23 7.23 25 10 25Z"/><path id="rect3163-5-18-0-7-4" transform="matrix(1.44 0 0 1.43314394906205 212.4 295.542716284018)" fill="#000000" stroke="#000000" stroke-opacity="0" stroke-width="0" stroke-linecap="square" stroke-linejoin="bevel" d="M10 50C4.46 50 0 45.54 0 40L0 35C0 31.9964 1.323 29.33 3.4063 27.5C1.323 25.67 0 23.0036 0 20L0 10C0 4.46 4.46 0 10 0C15.54 0 20 4.46 20 10L20 20C20 23.0036 18.677 25.67 16.5938 27.5C18.677 29.33 20 31.9964 20 35L20 40C20 45.54 15.54 50 10 50ZM10 45C12.77 45 15 42.77 15 40L15 35C15 32.23 12.77 30 10 30C7.23 30 5 32.23 5 35L5 40C5 42.77 7.23 45 10 45ZM10 25C12.77 25 15 22.77 15 20L15 10C15 7.23 12.77 5 10 5C7.23 5 5 7.23 5 10L5 20C5 22.77 7.23 25 10 25Z"/><path id="path3037-7-4-7-1" transform="matrix(1.44 0 0 1.4331414922462 10.8 107.588560848921)" fill="#000000" stroke="#000000" stroke-opacity="0" stroke-width="0" stroke-linecap="square" stroke-linejoin="bevel" d="M17.5 28C18 30 20 35 23.5 35C28 35 30 31 30 26C30 22.5 28.7105 20.1939 27.5 17.5C26.2111 14.6316 24.3103 12.0713 22.5 9.5C20.1773 6.20105 15 0 15 0C15 0 9.82265 6.20105 7.5 9.5C5.68966 12.0713 3.78894 14.6316 2.5 17.5C1.28947 20.1939 0 22.5 0 26C0 31 2 35 6.5 35C10 35 12 30 12.5 28C13 27.5 13 28 13 28.5C12.5 32.5 12.5 33.5 12 36.5C11.5 39.5 10 45 10 45C12.5 44 17.5 44 20 45C20 45 18.5 39.5 18 36.5C17.5 33.5 17.5 32.5 17 28.5C17 28 17 27.5 17.5 28Z"/><path id="path3037-7-4-4-8" transform="matrix(1.44 0 0 1.43314394906205 205.2 216.7199424)" fill="#000000" stroke="#000000" stroke-opacity="0" stroke-width="0" stroke-linecap="square" stroke-linejoin="bevel" d="M17.5 17C18 15 20 10 23.5 10C28 10 30 14 30 19C30 22.5 28.7105 24.8061 27.5 27.5C26.2111 30.3684 24.3103 32.9287 22.5 35.5C20.1773 38.7989 15 45 15 45C15 45 9.82265 38.7989 7.5 35.5C5.68966 32.9287 3.78894 30.3684 2.5 27.5C1.28947 24.8061 0 22.5 0 19C0 14 2 10 6.5 10C10 10 12 15 12.5 17C13 17.5 13 17 13 16.5C12.5 12.5 12.5 11.5 12 8.5C11.5 5.5 10 0 10 0C12.5 1 17.5 1 20 0C20 0 18.5 5.5 18 8.5C17.5 11.5 17.5 12.5 17 16.5C17 17 17 17.5 17.5 17Z"/><path id="path3037-7-49" transform="matrix(0.72 0 0 0.72 63.2 32.3999999999999)" fill="#000000" stroke="#000000" stroke-opacity="0" stroke-width="0" stroke-linecap="square" stroke-linejoin="bevel" d="M35 56C36 60 40 70 47 70C56 70 60 62 60 52C60 45 57.421 40.3877 55 35C52.4221 29.2633 48.6207 24.1426 45 19C40.3547 12.4021 30 0 30 0C30 0 19.6453 12.4021 15 19C11.3793 24.1426 7.57788 29.2633 5 35C2.57895 40.3877 0 45 0 52C0 62 4 70 13 70C20 70 24 60 25 56C26 55 26 56 26 57C25 65 25 67 24 73C23 79 20 90 20 90C25 88 35 88 40 90C40 90 37 79 36 73C35 67 35 65 34 57C34 56 34 55 35 56Z"/><path id="path3037-7-09-6" transform="matrix(0.72 0 0 0.72 152.8 32.3999999999999)" fill="#000000" stroke="#000000" stroke-opacity="0" stroke-width="0" stroke-linecap="square" stroke-linejoin="bevel" d="M35 56C36 60 40 70 47 70C56 70 60 62 60 52C60 45 57.421 40.3877 55 35C52.4221 29.2633 48.6207 24.1426 45 19C40.3547 12.4021 30 0 30 0C30 0 19.6453 12.4021 15 19C11.3793 24.1426 7.57788 29.2633 5 35C2.57895 40.3877 0 45 0 52C0 62 4 70 13 70C20 70 24 60 25 56C26 55 26 56 26 57C25 65 25 67 24 73C23 79 20 90 20 90C25 88 35 88 40 90C40 90 37 79 36 73C35 67 35 65 34 57C34 56 34 55 35 56Z"/><path id="path3037-7-4-3" transform="matrix(0.72 0 0 0.72 108 97.1999999999999)" fill="#000000" stroke="#000000" stroke-opacity="0" stroke-width="0" stroke-linecap="square" stroke-linejoin="bevel" d="M35 56C36 60 40 70 47 70C56 70 60 62 60 52C60 45 57.4211 40.3877 55 35C52.4221 29.2633 48.6207 24.1426 45 19C40.3547 12.4021 30 0 30 0C30 0 19.6453 12.4021 15 19C11.3793 24.1426 7.57788 29.2633 5 35C2.57895 40.3877 0 45 0 52C0 62 4 70 13 70C20 70 24 60 25 56C26 55 26 56 26 57C25 65 25 67 24 73C23 79 20 90 20 90C25 88 35 88 40 90C40 90 37 79 36 73C35 67 35 65 34 57C34 56 34 55 35 56Z"/><path id="path3037-7-8-7" transform="matrix(0.72 0 0 0.72 63.2 162)" fill="#000000" stroke="#000000" stroke-opacity="0" stroke-width="0" stroke-linecap="square" stroke-linejoin="bevel" d="M35 56C36 60 40 70 47 70C56 70 60 62 60 52C60 45 57.421 40.3877 55 35C52.4221 29.2633 48.6207 24.1426 45 19C40.3547 12.4021 30 0 30 0C30 0 19.6453 12.4021 15 19C11.3793 24.1426 7.57788 29.2633 5 35C2.57895 40.3877 0 45 0 52C0 62 4 70 13 70C20 70 24 60 25 56C26 55 26 56 26 57C25 65 25 67 24 73C23 79 20 90 20 90C25 88 35 88 40 90C40 90 37 79 36 73C35 67 35 65 34 57C34 56 34 55 35 56Z"/><path id="path3037-7-82-8" transform="matrix(0.72 0 0 0.72 152.8 162)" fill="#000000" stroke="#000000" stroke-opacity="0" stroke-width="0" stroke-linecap="square" stroke-linejoin="bevel" d="M35 56C36 60 40 70 47 70C56 70 60 62 60 52C60 45 57.421 40.3877 55 35C52.4221 29.2633 48.6207 24.1426 45 19C40.3547 12.4021 30 0 30 0C30 0 19.6453 12.4021 15 19C11.3793 24.1426 7.57788 29.2633 5 35C2.57895 40.3877 0 45 0 52C0 62 4 70 13 70C20 70 24 60 25 56C26 55 26 56 26 57C25 65 25 67 24 73C23 79 20 90 20 90C25 88 35 88 40 90C40 90 37 79 36 73C35 67 35 65 34 57C34 56 34 55 35 56Z"/><path id="path3037-7-45-8" transform="matrix(0.72 0 0 0.72 108 226.8)" fill="#000000" stroke="#000000" stroke-opacity="0" stroke-width="0" stroke-linecap="square" stroke-linejoin="bevel" d="M35 34C36 30 40 20 47 20C56 20 60 28 60 38C60 45 57.4211 49.6123 55 55C52.4221 60.7367 48.6207 65.8574 45 71C40.3547 77.5979 30 90 30 90C30 90 19.6453 77.5979 15 71C11.3793 65.8574 7.57788 60.7367 5 55C2.57895 49.6123 0 45 0 38C0 28 4 20 13 20C20 20 24 30 25 34C26 35 26 34 26 33C25 25 25 23 24 17C23 11 20 0 20 0C25 2 35 2 40 0C40 0 37 11 36 17C35 23 35 25 34 33C34 34 34 35 35 34Z"/><path id="path3037-7-5-2" transform="matrix(0.72 0 0 0.72 63.2 291.6)" fill="#000000" stroke="#000000" stroke-opacity="0" stroke-width="0" stroke-linecap="square" stroke-linejoin="bevel" d="M35 34C36 30 40 20 47 20C56 20 60 28 60 38C60 45 57.421 49.6123 55 55C52.4221 60.7367 48.6207 65.8574 45 71C40.3547 77.5979 30 90 30 90C30 90 19.6453 77.5979 15 71C11.3793 65.8574 7.57788 60.7367 5 55C2.57895 49.6123 0 45 0 38C0 28 4 20 13 20C20 20 24 30 25 34C26 35 26 34 26 33C25 25 25 23 24 17C23 11 20 0 20 0C25 2 35 2 40 0C40 0 37 11 36 17C35 23 35 25 34 33C34 34 34 35 35 34Z"/><path id="path3037-7-1-9" transform="matrix(0.72 0 0 0.72 152.8 291.6)" fill="#000000" stroke="#000000" stroke-opacity="0" stroke-width="0" stroke-linecap="square" stroke-linejoin="bevel" d="M35 34C36 30 40 20 47 20C56 20 60 28 60 38C60 45 57.421 49.6123 55 55C52.4221 60.7367 48.6207 65.8574 45 71C40.3547 77.5979 30 90 30 90C30 90 19.6453 77.5979 15 71C11.3793 65.8574 7.57788 60.7367 5 55C2.57895 49.6123 0 45 0 38C0 28 4 20 13 20C20 20 24 30 25 34C26 35 26 34 26 33C25 25 25 23 24 17C23 11 20 0 20 0C25 2 35 2 40 0C40 0 37 11 36 17C35 23 35 25 34 33C34 34 34 35 35 34Z"/>
</svg>
