<?xml version="1.0" standalone="no"?>
<!DOCTYPE svg PUBLIC "-//W3C//DTD SVG 20010904//EN" "http://www.w3.org/TR/2001/REC-SVG-20010904/DTD/svg10.dtd">
<!-- Created using Krita: https://krita.org -->
<svg xmlns="http://www.w3.org/2000/svg" 
    xmlns:xlink="http://www.w3.org/1999/xlink"
    xmlns:krita="http://krita.org/namespaces/svg/krita"
    xmlns:sodipodi="http://sodipodi.sourceforge.net/DTD/sodipodi-0.dtd"
    width="259.2pt"
    height="388.8pt"
    viewBox="0 0 259.2 388.8">
<defs/>
<rect id="rect6472-54" transform="matrix(0.72 0 0 0.72 0.360000000000028 0.359985599999959)" fill="#ffffff" stroke="#000000" stroke-width="0.99999976" stroke-linecap="butt" stroke-linejoin="miter" stroke-miterlimit="2" width="359" height="539" rx="29.944447" ry="29.944447"/><path id="path3497" transform="matrix(1.43121951219512 0 0 1.43121951219512 15.809268292683 21.5999855999999)" fill="#000000" stroke="#000000" stroke-opacity="0" stroke-width="0" stroke-linecap="square" stroke-linejoin="bevel" d="M9 0L0 50L5 50L7.34375 37L15.6563 37L18 50L23 50L14 0ZM11.5 13.9063L14.75 32L8.25 32Z"/><path id="path3497-5" transform="matrix(1.43121951219512 0 0 1.43121951219512 210.472682926829 295.638967141463)" fill="#000000" stroke="#000000" stroke-opacity="0" stroke-width="0" stroke-linecap="square" stroke-linejoin="bevel" d="M9 50L0 0L5 0L7.34375 13L15.6563 13L18 0L23 0L14 50ZM11.5 36.0937L14.75 18L8.25 18Z"/><path id="path3037-95" transform="translate(99.7199999999998, 149.4)" fill="#000000" stroke="#000000" stroke-opacity="0" stroke-width="0" stroke-linecap="square" stroke-linejoin="bevel" d="M34.86 56C36.852 60 41.832 66 46.812 66C55.776 66 59.76 58 59.76 48C59.76 38 55.776 29 46.812 29C41.832 29 38.844 34 35.856 37C34.86 38 33.864 37 34.86 36C37.848 33 42.828 25 42.828 18C42.828 10 37.848 0 29.88 0C21.912 0 16.932 10 16.932 18C16.932 25 21.912 33 24.9 36C25.896 37 24.9 38 23.904 37C20.916 34 17.928 29 12.948 29C3.984 29 0 38 0 48C0 58 3.984 66 12.948 66C17.928 66 22.908 60 24.9 56C25.896 55 25.896 56 25.896 57C24.9 65 24.9 67 23.904 73C22.908 79 19.92 90 19.92 90C24.9 88 34.86 88 39.84 90C39.84 90 36.852 79 35.856 73C34.86 67 34.86 65 33.864 57C33.864 56 33.864 55 34.86 56Z"/><path id="path3037-1-6" transform="matrix(1.43121951219512 0 0 1.43121951219512 10.8 107.473156331707)" fill="#000000" stroke="#000000" stroke-opacity="0" stroke-width="0" stroke-linecap="square" stroke-linejoin="bevel" d="M17.5 28C18.5 30 21 33 23.5 33C28 33 30 29 30 24C30 19 28 14.5 23.5 14.5C21 14.5 19.5 17 18 18.5C17.5 19 17 18.5 17.5 18C19 16.5 21.5 12.5 21.5 9C21.5 5 19 0 15 0C11 0 8.5 5 8.5 9C8.5 12.5 11 16.5 12.5 18C13 18.5 12.5 19 12 18.5C10.5 17 9 14.5 6.5 14.5C2 14.5 0 19 0 24C0 29 2 33 6.5 33C9 33 11.5 30 12.5 28C13 27.5 13 28 13 28.5C12.5 32.5 12.5 33.5 12 36.5C11.5 39.5 10 45 10 45C12.5 44 17.5 44 20 45C20 45 18.5 39.5 18 36.5C17.5 33.5 17.5 32.5 17 28.5C17 28 17 27.5 17.5 28Z"/><path id="path3037-1-7-4" transform="matrix(1.43121951219512 0 0 1.43121951219512 205.463414634146 216.921922595122)" fill="#000000" stroke="#000000" stroke-opacity="0" stroke-width="0" stroke-linecap="square" stroke-linejoin="bevel" d="M17.5 17C18.5 15 21 12 23.5 12C28 12 30 16 30 21C30 26 28 30.5 23.5 30.5C21 30.5 19.5 28 18 26.5C17.5 26 17 26.5 17.5 27C19 28.5 21.5 32.5 21.5 36C21.5 40 19 45 15 45C11 45 8.5 40 8.5 36C8.5 32.5 11 28.5 12.5 27C13 26.5 12.5 26 12 26.5C10.5 28 9 30.5 6.5 30.5C2 30.5 0 26 0 21C0 16 2 12 6.5 12C9 12 11.5 15 12.5 17C13 17.5 13 17 13 16.5C12.5 12.5 12.5 11.5 12 8.5C11.5 5.5 10 0 10 0C12.5 1 17.5 1 20 0C20 0 18.5 5.5 18 8.5C17.5 11.5 17.5 12.5 17 16.5C17 17 17 17.5 17.5 17Z"/><path id="path3037-1-61" transform="matrix(1.43121946238793 0 0 1.43121946238793 55.0936594620962 26.9136401723301)" fill="#000000" stroke="#000000" stroke-opacity="0" stroke-width="0" stroke-linecap="square" stroke-linejoin="bevel" d="M17.5 28C18.5 30 21 33 23.5 33C28 33 30 29 30 24C30 19 28 14.5 23.5 14.5C21 14.5 19.5 17 18 18.5C17.5 19 17 18.5 17.5 18C19 16.5 21.5 12.5 21.5 9C21.5 5 19 0 15 0C11 0 8.5 5 8.5 9C8.5 12.5 11 16.5 12.5 18C13 18.5 12.5 19 12 18.5C10.5 17 9 14.5 6.5 14.5C2 14.5 0 19 0 24C0 29 2 33 6.5 33C9 33 11.5 30 12.5 28C13 27.5 13 28 13 28.5C12.5 32.5 12.5 33.5 12 36.5C11.5 39.5 10 45 10 45C12.5 44 17.5 44 20 45C20 45 18.5 39.5 18 36.5C17.5 33.5 17.5 32.5 17 28.5C17 28 17 27.5 17.5 28Z"/><path id="path3037-1-7-41" transform="matrix(1.43121953330977 0 0 1.43121953330977 159.757077484705 298.362413695245)" fill="#000000" stroke="#000000" stroke-opacity="0" stroke-width="0" stroke-linecap="square" stroke-linejoin="bevel" d="M17.5 17C18.5 15 21 12 23.5 12C28 12 30 16 30 21C30 26 28 30.5 23.5 30.5C21 30.5 19.5 28 18 26.5C17.5 26 17 26.5 17.5 27C19 28.5 21.5 32.5 21.5 36C21.5 40 19 45 15 45C11 45 8.5 40 8.5 36C8.5 32.5 11 28.5 12.5 27C13 26.5 12.5 26 12 26.5C10.5 28 9 30.5 6.5 30.5C2 30.5 0 26 0 21C0 16 2 12 6.5 12C9 12 11.5 15 12.5 17C13 17.5 13 17 13 16.5C12.5 12.5 12.5 11.5 12 8.5C11.5 5.5 10 0 10 0C12.5 1 17.5 1 20 0C20 0 18.5 5.5 18 8.5C17.5 11.5 17.5 12.5 17 16.5C17 17 17 17.5 17.5 17Z"/>
</svg>
