<?xml version="1.0" standalone="no"?>
<!DOCTYPE svg PUBLIC "-//W3C//DTD SVG 20010904//EN" "http://www.w3.org/TR/2001/REC-SVG-20010904/DTD/svg10.dtd">
<!-- Created using Krita: https://krita.org -->
<svg xmlns="http://www.w3.org/2000/svg" 
    xmlns:xlink="http://www.w3.org/1999/xlink"
    xmlns:krita="http://krita.org/namespaces/svg/krita"
    xmlns:sodipodi="http://sodipodi.sourceforge.net/DTD/sodipodi-0.dtd"
    width="259.2pt"
    height="388.8pt"
    viewBox="0 0 259.2 388.8">
<defs/>
<rect id="rect6472-38" transform="matrix(0.719999999999999 0 0 0.719999999999999 0.360000000000028 0.360000000000014)" fill="#ffffff" stroke="#000000" stroke-width="0.99999976" stroke-linecap="butt" stroke-linejoin="miter" stroke-miterlimit="2" width="359" height="539" rx="29.944447" ry="29.944447"/><path id="path3204-24-49" transform="matrix(0.719999999999999 0 0 0.719999999999999 99.7200011873245 149.400001788139)" fill="#ff5555" stroke="#000000" stroke-opacity="0" stroke-width="0" stroke-linecap="square" stroke-linejoin="bevel" d="M41.5 0C41.5 0 49.8 20.8333 59.4833 34.7222C69.1667 48.6111 83 62.5 83 62.5C83 62.5 69.1667 76.3889 59.4833 90.2778C49.8 104.167 41.5 125 41.5 125C41.5 125 33.2 104.167 23.5167 90.2778C13.8333 76.3889 0 62.5 0 62.5C0 62.5 13.8333 48.6111 23.5167 34.7222C33.2 20.8333 41.5 0 41.5 0"/><path id="path3497-2" transform="matrix(1.43121951219512 0 0 1.43121951219512 15.809268292683 21.6)" fill="#ff5555" stroke="#000000" stroke-opacity="0" stroke-width="0" stroke-linecap="square" stroke-linejoin="bevel" d="M9 0L0 50L5 50L7.34375 37L15.6563 37L18 50L23 50L14 0ZM11.5 13.9063L14.75 32L8.25 32Z"/><path id="path3497-5-6" transform="matrix(1.43121951219512 0 0 1.43121951219512 210.472682926829 295.638981541463)" fill="#ff5555" stroke="#000000" stroke-opacity="0" stroke-width="0" stroke-linecap="square" stroke-linejoin="bevel" d="M9 50L0 0L5 0L7.34375 13L15.6563 13L18 0L23 0L14 50ZM11.5 36.0937L14.75 18L8.25 18Z"/><path id="path3204-24-1-57" transform="matrix(1.43121951219512 0 0 1.43121951219512 10.8 107.473170731707)" fill="#ff5555" stroke="#000000" stroke-opacity="0" stroke-width="0" stroke-linecap="square" stroke-linejoin="bevel" d="M15 0C15 0 18 7.5 21.5 12.5C25 17.5 30 22.5 30 22.5C30 22.5 25 27.5 21.5 32.5C18 37.5 15 45 15 45C15 45 12 37.5 8.5 32.5C5 27.5 0 22.5 0 22.5C0 22.5 5 17.5 8.5 12.5C12 7.5 15 0 15 0"/><path id="path3204-24-1-7" transform="matrix(1.43121951219512 0 0 1.43121951219512 205.463414634146 216.921936995122)" fill="#ff5555" stroke="#000000" stroke-opacity="0" stroke-width="0" stroke-linecap="square" stroke-linejoin="bevel" d="M15 0C15 0 18 7.5 21.5 12.5C25 17.5 30 22.5 30 22.5C30 22.5 25 27.5 21.5 32.5C18 37.5 15 45 15 45C15 45 12 37.5 8.5 32.5C5 27.5 0 22.5 0 22.5C0 22.5 5 17.5 8.5 12.5C12 7.5 15 0 15 0"/><path id="path3204-24-1-571" transform="matrix(1.43121946238793 0 0 1.43121946238793 56.0936594620962 27.4404838406223)" fill="#ff5555" stroke="#000000" stroke-opacity="0" stroke-width="0" stroke-linecap="square" stroke-linejoin="bevel" d="M15 0C15 0 18 7.5 21.5 12.5C25 17.5 30 22.5 30 22.5C30 22.5 25 27.5 21.5 32.5C18 37.5 15 45 15 45C15 45 12 37.5 8.5 32.5C5 27.5 0 22.5 0 22.5C0 22.5 5 17.5 8.5 12.5C12 7.5 15 0 15 0"/><path id="path3204-24-1-71" transform="matrix(1.43121953330977 0 0 1.43121953330977 159.757077484705 298.362428095245)" fill="#ff5555" stroke="#000000" stroke-opacity="0" stroke-width="0" stroke-linecap="square" stroke-linejoin="bevel" d="M15 0C15 0 18 7.5 21.5 12.5C25 17.5 30 22.5 30 22.5C30 22.5 25 27.5 21.5 32.5C18 37.5 15 45 15 45C15 45 12 37.5 8.5 32.5C5 27.5 0 22.5 0 22.5C0 22.5 5 17.5 8.5 12.5C12 7.5 15 0 15 0"/>
</svg>
