<?xml version="1.0" standalone="no"?>
<!DOCTYPE svg PUBLIC "-//W3C//DTD SVG 20010904//EN" "http://www.w3.org/TR/2001/REC-SVG-20010904/DTD/svg10.dtd">
<!-- Created using Krita: https://krita.org -->
<svg xmlns="http://www.w3.org/2000/svg" 
    xmlns:xlink="http://www.w3.org/1999/xlink"
    xmlns:krita="http://krita.org/namespaces/svg/krita"
    xmlns:sodipodi="http://sodipodi.sourceforge.net/DTD/sodipodi-0.dtd"
    width="259.2pt"
    height="388.8pt"
    viewBox="0 0 259.2 388.8">
<defs/>
<rect id="rect6472-070" transform="matrix(0.72 0 0 0.72 0.360000000000028 0.3599999999999)" fill="#ffffff" stroke="#000000" stroke-width="0.99999976" stroke-linecap="butt" stroke-linejoin="miter" stroke-miterlimit="2" width="359" height="539" rx="29.944447" ry="29.944447"/><path id="path3497-6" transform="matrix(1.43121951219512 0 0 1.43121951219512 15.809268292683 21.5999999999999)" fill="#ff5555" stroke="#000000" stroke-opacity="0" stroke-width="0" stroke-linecap="square" stroke-linejoin="bevel" d="M9 0L0 50L5 50L7.34375 37L15.6563 37L18 50L23 50L14 0ZM11.5 13.9063L14.75 32L8.25 32Z"/><path id="path3497-5-0" transform="matrix(1.43121951219512 0 0 1.43121951219512 210.472682926829 295.638981541463)" fill="#ff5555" stroke="#000000" stroke-opacity="0" stroke-width="0" stroke-linecap="square" stroke-linejoin="bevel" d="M9 50L0 0L5 0L7.34375 13L15.6563 13L18 0L23 0L14 50ZM11.5 36.0937L14.75 18L8.25 18Z"/><path id="path3126-70" transform="matrix(0.72 0 0 0.72 99.7200011873244 149.400001788139)" fill="#ff5555" stroke="#000000" stroke-opacity="0" stroke-width="0" stroke-linecap="square" stroke-linejoin="bevel" d="M40.1167 25C40.1167 9.65876 32.2099 0 20.75 0C9.29009 0 0 12.4365 0 27.7778C0.0482783 29.105 0.0251767 30.4044 0 31.684C0 41.8208 3.70298 51.6519 6.91667 60.8507C10.2215 70.3104 14.9864 78.6016 19.4531 87.066C26.3715 100.176 41.5 125 41.5 125C41.5 125 56.6285 100.176 63.5469 87.066C68.0136 78.6016 72.7785 70.3104 76.0833 60.8507C79.297 51.6519 83 41.8208 83 31.684C82.9607 30.3307 82.9743 29.0248 83 27.7778C83 12.4365 73.7099 0 62.25 0C50.7901 0 42.8833 9.65876 42.8833 25C42.8833 27.7778 40.1167 27.7778 40.1167 25Z"/><path id="path3126-1-5" transform="matrix(1.43121951219512 0 0 1.43121951219512 10.8 107.473170731707)" fill="#ff5555" stroke="#000000" stroke-opacity="0" stroke-width="0" stroke-linecap="square" stroke-linejoin="bevel" d="M14.5 9C14.5 3.47715 11.6421 0 7.5 0C3.35787 0 0 4.47715 0 10C0.01745 10.4778 0.0091 10.9456 0 11.4063C0 15.0555 1.33843 18.5947 2.5 21.9063C3.69451 25.3117 5.41679 28.2966 7.03125 31.3438C9.53186 36.0634 15 45 15 45C15 45 20.4681 36.0634 22.9688 31.3438C24.5832 28.2966 26.3055 25.3117 27.5 21.9063C28.6616 18.5947 30 15.0555 30 11.4063C29.9858 10.919 29.9907 10.4489 30 10C30 4.47715 26.6421 0 22.5 0C18.3579 0 15.5 3.47715 15.5 9C15.5 10 14.5 10 14.5 9Z"/><path id="path3126-1-7-67" transform="matrix(1.43121951219512 0 0 1.43121951219512 205.463414634146 216.921936995122)" fill="#ff5555" stroke="#000000" stroke-opacity="0" stroke-width="0" stroke-linecap="square" stroke-linejoin="bevel" d="M14.5 36C14.5 41.5228 11.6421 45 7.5 45C3.35786 45 0 40.5228 0 35C0.0174 34.5222 0.009 34.0544 0 33.5938C0 29.9445 1.33842 26.4053 2.5 23.0938C3.69452 19.6883 5.41678 16.7034 7.03125 13.6563C9.53186 8.93655 15 0 15 0C15 0 20.4681 8.93655 22.9688 13.6563C24.5832 16.7034 26.3055 19.6883 27.5 23.0938C28.6616 26.4053 30 29.9445 30 33.5938C29.9858 34.081 29.991 34.5511 30 35C30 40.5228 26.6421 45 22.5 45C18.3579 45 15.5 41.5228 15.5 36C15.5 35 14.5 35 14.5 36Z"/><path id="path3126-1-51" transform="matrix(1.43121946238793 0 0 1.43121946238793 56.0936594620962 26.9136545723296)" fill="#ff5555" stroke="#000000" stroke-opacity="0" stroke-width="0" stroke-linecap="square" stroke-linejoin="bevel" d="M14.5 9C14.5 3.47715 11.6421 0 7.5 0C3.35787 0 0 4.47715 0 10C0.01745 10.4778 0.0091 10.9456 0 11.4063C0 15.0555 1.33843 18.5947 2.5 21.9063C3.69451 25.3117 5.41679 28.2966 7.03125 31.3438C9.53186 36.0634 15 45 15 45C15 45 20.4681 36.0634 22.9688 31.3438C24.5832 28.2966 26.3055 25.3117 27.5 21.9063C28.6616 18.5947 30 15.0555 30 11.4063C29.9858 10.919 29.9907 10.4489 30 10C30 4.47715 26.6421 0 22.5 0C18.3579 0 15.5 3.47715 15.5 9C15.5 10 14.5 10 14.5 9Z"/><path id="path3126-1-7-671" transform="matrix(1.43121953330977 0 0 1.43121953330977 160.757077484705 298.362428095245)" fill="#ff5555" stroke="#000000" stroke-opacity="0" stroke-width="0" stroke-linecap="square" stroke-linejoin="bevel" d="M14.5 36C14.5 41.5228 11.6421 45 7.5 45C3.35786 45 0 40.5228 0 35C0.0174 34.5222 0.009 34.0544 0 33.5938C0 29.9445 1.33842 26.4053 2.5 23.0938C3.69452 19.6883 5.41678 16.7034 7.03125 13.6563C9.53186 8.93655 15 0 15 0C15 0 20.4681 8.93655 22.9688 13.6563C24.5832 16.7034 26.3055 19.6883 27.5 23.0938C28.6616 26.4053 30 29.9445 30 33.5938C29.9858 34.081 29.991 34.5511 30 35C30 40.5228 26.6421 45 22.5 45C18.3579 45 15.5 41.5228 15.5 36C15.5 35 14.5 35 14.5 36Z"/>
</svg>
