<?xml version="1.0" standalone="no"?>
<!DOCTYPE svg PUBLIC "-//W3C//DTD SVG 20010904//EN" "http://www.w3.org/TR/2001/REC-SVG-20010904/DTD/svg10.dtd">
<!-- Created using Krita: https://krita.org -->
<svg xmlns="http://www.w3.org/2000/svg" 
    xmlns:xlink="http://www.w3.org/1999/xlink"
    xmlns:krita="http://krita.org/namespaces/svg/krita"
    xmlns:sodipodi="http://sodipodi.sourceforge.net/DTD/sodipodi-0.dtd"
    width="259.2pt"
    height="388.8pt"
    viewBox="0 0 259.2 388.8">
<defs/>
<rect id="rect6472-82" transform="matrix(0.719999932183164 0 0 0.719999932183164 0.360006069606641 0.360024380152476)" fill="#a2402b" stroke="#a6a6a6" stroke-width="0.99999976" stroke-linecap="butt" stroke-linejoin="miter" stroke-miterlimit="2" width="359" height="539" rx="29.944447" ry="29.944447"/><path id="shape0" transform="matrix(0.999999914796708 0 0 0.999999914796708 -137.199993538562 -136.206234224202)" fill="none" stroke="#a6a6a6" stroke-width="1.2816" stroke-linecap="square" stroke-linejoin="miter" stroke-miterlimit="2" d="M0 435.24L290.16 0"/><path id="shape01" transform="matrix(0.999999914796708 0 0 0.999999914796708 -124.719994126308 -165.928170326462)" fill="none" stroke="#a6a6a6" stroke-width="1.2816" stroke-linecap="square" stroke-linejoin="miter" stroke-miterlimit="2" d="M0 430.236L286.824 0"/><path id="shape02" transform="matrix(0.999999914796708 0 0 0.999999914796708 -176.439991690554 -197.768175905948)" fill="none" stroke="#a6a6a6" stroke-width="1.2816" stroke-linecap="square" stroke-linejoin="miter" stroke-miterlimit="2" d="M0 488.16L325.44 0"/><path id="shape03" transform="matrix(0.999999976914473 0 0 0.999999976914473 -130.860086627013 -173.372072153011)" fill="none" stroke="#a6a6a6" stroke-width="1.2816" stroke-linecap="square" stroke-linejoin="miter" stroke-miterlimit="2" d="M0 429.84L286.56 0"/><path id="shape04" transform="matrix(0.999999976914473 0 0 0.999999976914473 -160.860085214162 -146.372073424577)" fill="none" stroke="#a6a6a6" stroke-width="1.2816" stroke-linecap="square" stroke-linejoin="miter" stroke-miterlimit="2" d="M0 429.84L286.56 0"/><path id="shape05" transform="matrix(0.999999939850271 0 0 0.999999939850271 -128.661691372929 -125.675877825741)" fill="none" stroke="#a6a6a6" stroke-width="1.2816" stroke-linecap="square" stroke-linejoin="miter" stroke-miterlimit="2" d="M0 429.84L286.56 0"/><path id="shape06" transform="matrix(0.999999901742006 0 0 0.999999901742006 -102.781692929604 -85.9621361121386)" fill="none" stroke="#a6a6a6" stroke-width="1.2816" stroke-linecap="square" stroke-linejoin="miter" stroke-miterlimit="2" d="M0 435.24L290.16 0"/><path id="shape011" transform="matrix(0.999999901742006 0 0 0.999999901742006 -90.301693680273 -115.684071826388)" fill="none" stroke="#a6a6a6" stroke-width="1.2816" stroke-linecap="square" stroke-linejoin="miter" stroke-miterlimit="2" d="M0 430.236L286.824 0"/><path id="shape021" transform="matrix(0.999999901742006 0 0 0.999999901742006 -142.02169056933 -147.524076990212)" fill="none" stroke="#a6a6a6" stroke-width="1.2816" stroke-linecap="square" stroke-linejoin="miter" stroke-miterlimit="2" d="M0 488.16L325.44 0"/><path id="shape031" transform="matrix(0.999999963859774 0 0 0.999999963859774 -96.4417861008198 -123.12797355576)" fill="none" stroke="#a6a6a6" stroke-width="1.2816" stroke-linecap="square" stroke-linejoin="miter" stroke-miterlimit="2" d="M0 429.84L286.56 0"/><path id="shape041" transform="matrix(0.999999963859774 0 0 0.999999963859774 -126.441784296328 -96.1279751798025)" fill="none" stroke="#a6a6a6" stroke-width="1.2816" stroke-linecap="square" stroke-linejoin="miter" stroke-miterlimit="2" d="M0 429.84L286.56 0"/><path id="shape07" transform="matrix(0.999999939850271 0 0 0.999999939850271 -94.243390557707 -75.4317840699229)" fill="none" stroke="#a6a6a6" stroke-width="1.2816" stroke-linecap="square" stroke-linejoin="miter" stroke-miterlimit="2" d="M0 429.84L286.56 0"/><path id="shape08" transform="matrix(0.999999901742006 0 0 0.999999901742006 -68.3633921143819 -35.7180423563203)" fill="none" stroke="#a6a6a6" stroke-width="1.2816" stroke-linecap="square" stroke-linejoin="miter" stroke-miterlimit="2" d="M0 435.24L290.16 0"/><path id="shape011" transform="matrix(0.999999901742006 0 0 0.999999901742006 -55.8833928650506 -65.4399780705701)" fill="none" stroke="#a6a6a6" stroke-width="1.2816" stroke-linecap="square" stroke-linejoin="miter" stroke-miterlimit="2" d="M0 430.236L286.824 0"/><path id="shape021" transform="matrix(0.999999901742006 0 0 0.999999901742006 -107.603389754106 -97.2799832343939)" fill="none" stroke="#a6a6a6" stroke-width="1.2816" stroke-linecap="square" stroke-linejoin="miter" stroke-miterlimit="2" d="M0 488.16L325.44 0"/><path id="shape031" transform="matrix(0.999999963859774 0 0 0.999999963859774 -62.0234852855973 -72.8838797999415)" fill="none" stroke="#a6a6a6" stroke-width="1.2816" stroke-linecap="square" stroke-linejoin="miter" stroke-miterlimit="2" d="M0 429.84L286.56 0"/><path id="shape041" transform="matrix(0.999999963859774 0 0 0.999999963859774 -92.0234834811055 -45.8838814239841)" fill="none" stroke="#a6a6a6" stroke-width="1.2816" stroke-linecap="square" stroke-linejoin="miter" stroke-miterlimit="2" d="M0 429.84L286.56 0"/><path id="shape09" transform="matrix(0.999999939850271 0 0 0.999999939850271 -59.8250897424845 -25.1876903141046)" fill="none" stroke="#a6a6a6" stroke-width="1.2816" stroke-linecap="square" stroke-linejoin="miter" stroke-miterlimit="2" d="M0 429.84L286.56 0"/><path id="shape010" transform="matrix(0.999999901742006 0 0 0.999999901742006 10.3545120421971 14.5260513994981)" fill="none" stroke="#a6a6a6" stroke-width="1.2816" stroke-linecap="square" stroke-linejoin="miter" stroke-miterlimit="2" d="M0 368.791L245.86 0"/><path id="shape012" transform="matrix(0.999999901742006 0 0 0.999999901742006 4.0517655817293 7.00245303657392)" fill="none" stroke="#a6a6a6" stroke-width="1.2816" stroke-linecap="square" stroke-linejoin="miter" stroke-miterlimit="2" d="M0 369.762L246.508 0"/><path id="shape022" transform="matrix(0.999999901742006 0 0 0.999999901742006 -73.1850889388842 -47.0358894785756)" fill="none" stroke="#a6a6a6" stroke-width="1.2816" stroke-linecap="square" stroke-linejoin="miter" stroke-miterlimit="2" d="M0 488.16L325.44 0"/><path id="shape032" transform="matrix(0.999999963859774 0 0 0.999999963859774 -27.6051844703749 1.51930947518871)" fill="none" stroke="#a6a6a6" stroke-width="1.2816" stroke-linecap="square" stroke-linejoin="miter" stroke-miterlimit="2" d="M0 405.681L270.454 0"/><path id="shape042" transform="matrix(0.999999963859774 0 0 0.999999963859774 -57.605182665883 -39.9275589418236)" fill="none" stroke="#a6a6a6" stroke-width="1.2816" stroke-linecap="square" stroke-linejoin="miter" stroke-miterlimit="2" d="M0 474.128L316.085 0"/><path id="shape0111" transform="matrix(0.999999939850271 0 0 0.999999939850271 -25.4067889272622 25.0564034417138)" fill="none" stroke="#a6a6a6" stroke-width="1.2816" stroke-linecap="square" stroke-linejoin="miter" stroke-miterlimit="2" d="M0 429.84L286.56 0"/><path id="shape0121" transform="matrix(0.999999901742006 0 0 0.999999901742006 0.473209516062911 64.7701451553165)" fill="none" stroke="#a6a6a6" stroke-width="1.2816" stroke-linecap="square" stroke-linejoin="miter" stroke-miterlimit="2" d="M0 435.24L290.16 0"/><path id="shape013" transform="matrix(0.999999901742006 0 0 0.999999901742006 12.9532087653943 35.0482094410665)" fill="none" stroke="#a6a6a6" stroke-width="1.2816" stroke-linecap="square" stroke-linejoin="miter" stroke-miterlimit="2" d="M0 430.236L286.824 0"/><path id="shape023" transform="matrix(0.999999901742006 0 0 0.999999901742006 -38.7667881236617 3.20820427724274)" fill="none" stroke="#a6a6a6" stroke-width="1.2816" stroke-linecap="square" stroke-linejoin="miter" stroke-miterlimit="2" d="M0 488.16L325.44 0"/><path id="shape033" transform="matrix(0.999999963859774 0 0 0.999999963859774 6.81311634484751 27.3000823595825)" fill="none" stroke="#a6a6a6" stroke-width="1.2816" stroke-linecap="square" stroke-linejoin="miter" stroke-miterlimit="2" d="M0 429.84L286.56 0"/><path id="shape043" transform="matrix(0.999999963859774 0 0 0.999999963859774 -23.1868818506606 54.6043060876526)" fill="none" stroke="#a6a6a6" stroke-width="1.2816" stroke-linecap="square" stroke-linejoin="miter" stroke-miterlimit="2" d="M0 429.84L286.56 0"/><path id="shape0131" transform="matrix(0.999999939850271 0 0 0.999999939850271 9.01151188796034 75.3004971975322)" fill="none" stroke="#a6a6a6" stroke-width="1.2816" stroke-linecap="square" stroke-linejoin="miter" stroke-miterlimit="2" d="M0 429.84L286.56 0"/><path id="shape014" transform="matrix(0.999999901742006 0 0 0.999999901742006 34.8915103312854 115.014238911135)" fill="none" stroke="#a6a6a6" stroke-width="1.2816" stroke-linecap="square" stroke-linejoin="miter" stroke-miterlimit="2" d="M0 435.24L290.16 0"/><path id="shape0141" transform="matrix(0.999999901742006 0 0 0.999999901742006 46.3715096277117 85.2923031968849)" fill="none" stroke="#a6a6a6" stroke-width="1.2816" stroke-linecap="square" stroke-linejoin="miter" stroke-miterlimit="2" d="M0 430.236L286.824 0"/><path id="shape024" transform="matrix(0.999999901742006 0 0 0.999999901742006 -4.34848730843936 53.4522980330611)" fill="none" stroke="#a6a6a6" stroke-width="1.2816" stroke-linecap="square" stroke-linejoin="miter" stroke-miterlimit="2" d="M0 488.16L325.44 0"/><path id="shape034" transform="matrix(0.999999963859774 0 0 0.999999963859774 40.231417207165 77.8484014675135)" fill="none" stroke="#a6a6a6" stroke-width="1.2816" stroke-linecap="square" stroke-linejoin="miter" stroke-miterlimit="2" d="M0 429.84L286.56 0"/><path id="shape044" transform="matrix(0.999999963859774 0 0 0.999999963859774 11.2314189645618 104.848399843471)" fill="none" stroke="#a6a6a6" stroke-width="1.2816" stroke-linecap="square" stroke-linejoin="miter" stroke-miterlimit="2" d="M0 429.84L286.56 0"/><path id="shape015" transform="matrix(0.999999939850271 0 0 0.999999939850271 41.4132159024947 125.54459095335)" fill="none" stroke="#a6a6a6" stroke-width="1.2816" stroke-linecap="square" stroke-linejoin="miter" stroke-miterlimit="2" d="M0 429.84L286.56 0"/><path id="shape016" transform="matrix(0.999999901742006 0 0 0.999999901742006 67.2932143458197 165.258332666953)" fill="none" stroke="#a6a6a6" stroke-width="1.2816" stroke-linecap="square" stroke-linejoin="miter" stroke-miterlimit="2" d="M0 435.24L290.16 0"/><path id="shape0151" transform="matrix(0.999999901742006 0 0 0.999999901742006 79.7732135951511 135.536396952704)" fill="none" stroke="#a6a6a6" stroke-width="1.2816" stroke-linecap="square" stroke-linejoin="miter" stroke-miterlimit="2" d="M0 430.236L286.824 0"/><path id="shape025" transform="matrix(0.999999901742006 0 0 0.999999901742006 28.053216706095 103.69639178888)" fill="none" stroke="#a6a6a6" stroke-width="1.2816" stroke-linecap="square" stroke-linejoin="miter" stroke-miterlimit="2" d="M0 488.16L325.44 0"/><path id="shape035" transform="matrix(0.999999963859774 0 0 0.999999963859774 73.6331211746043 128.092495223332)" fill="none" stroke="#a6a6a6" stroke-width="1.2816" stroke-linecap="square" stroke-linejoin="miter" stroke-miterlimit="2" d="M0 429.84L286.56 0"/><path id="shape045" transform="matrix(0.999999963859774 0 0 0.999999963859774 43.6331229790962 155.092493599289)" fill="none" stroke="#a6a6a6" stroke-width="1.2816" stroke-linecap="square" stroke-linejoin="miter" stroke-miterlimit="2" d="M0 429.84L286.56 0"/><path id="shape017" transform="matrix(0.999999939850271 0 0 0.999999939850271 81.4132140186937 165.544589069549)" fill="none" stroke="#a6a6a6" stroke-width="1.2816" stroke-linecap="square" stroke-linejoin="miter" stroke-miterlimit="2" d="M0 429.84L286.56 0"/><path id="shape026" transform="matrix(0.999999901742006 0 0 0.999999901742006 68.0532148222941 143.696389905079)" fill="none" stroke="#a6a6a6" stroke-width="1.2816" stroke-linecap="square" stroke-linejoin="miter" stroke-miterlimit="2" d="M0 488.16L325.44 0"/><path id="shape046" transform="matrix(0.999999963859774 0 0 0.999999963859774 241.830507776784 361.412661977905)" fill="none" stroke="#a6a6a6" stroke-width="1.2816" stroke-linecap="square" stroke-linejoin="miter" stroke-miterlimit="2" d="M0 26.2237L17.4825 0"/><path id="shape047" transform="matrix(0.999999963859774 0 0 0.999999963859774 229.13989652139 77.6279205150935)" fill="none" stroke="#a6a6a6" stroke-width="1.2816" stroke-linecap="square" stroke-linejoin="miter" stroke-miterlimit="2" d="M0 429.84L286.56 0"/><path id="shape018" transform="matrix(0.379531478012222 -0.925178708775511 0.925178708775511 0.379531478012222 -303.659051314435 285.845792125376)" fill="none" stroke="#a6a6a6" stroke-width="1.2816" stroke-linecap="square" stroke-linejoin="miter" stroke-miterlimit="2" d="M0 435.24L290.16 0"/><path id="shape0161" transform="matrix(0.379531478012222 -0.925178708775511 0.925178708775511 0.379531478012222 -326.420603096667 263.019150100446)" fill="none" stroke="#a6a6a6" stroke-width="1.2816" stroke-linecap="square" stroke-linejoin="miter" stroke-miterlimit="2" d="M0 430.236L286.824 0"/><path id="shape036" transform="matrix(0.379531501587855 -0.9251787662455 0.9251787662455 0.379531501587855 -335.637901744074 265.874638132899)" fill="none" stroke="#a6a6a6" stroke-width="1.2816" stroke-linecap="square" stroke-linejoin="miter" stroke-miterlimit="2" d="M0 429.84L286.56 0"/><path id="shape048" transform="matrix(0.379531501587855 -0.9251787662455 0.9251787662455 0.379531501587855 -13.1661615348582 378.359788688355)" fill="none" stroke="#a6a6a6" stroke-width="1.2816" stroke-linecap="square" stroke-linejoin="miter" stroke-miterlimit="2" d="M0 43.3253L28.8836 0"/><path id="shape051" transform="matrix(0.379531487520821 -0.925178731954489 0.925178731954489 0.379531487520821 -290.676034231928 281.942938148005)" fill="none" stroke="#a6a6a6" stroke-width="1.2816" stroke-linecap="square" stroke-linejoin="miter" stroke-miterlimit="2" d="M0 429.84L286.56 0"/><path id="shape061" transform="matrix(0.37953147305753 -0.925178696697526 0.925178696697526 0.37953147305753 -244.11144792509 273.071928939217)" fill="none" stroke="#a6a6a6" stroke-width="1.2816" stroke-linecap="square" stroke-linejoin="miter" stroke-miterlimit="2" d="M0 435.24L290.16 0"/><path id="shape0171" transform="matrix(0.37953147305753 -0.925178696697526 0.925178696697526 0.37953147305753 -266.872999410178 250.245287212285)" fill="none" stroke="#a6a6a6" stroke-width="1.2816" stroke-linecap="square" stroke-linejoin="miter" stroke-miterlimit="2" d="M0 430.236L286.824 0"/><path id="shape027" transform="matrix(0.37953147305753 -0.925178696697526 0.925178696697526 0.37953147305753 -315.960065319518 286.011245979609)" fill="none" stroke="#a6a6a6" stroke-width="1.2816" stroke-linecap="square" stroke-linejoin="miter" stroke-miterlimit="2" d="M0 488.16L325.44 0"/><path id="shape037" transform="matrix(0.379531496633197 -0.925178754167606 0.925178754167606 0.379531496633197 -276.4502979203 253.100775207461)" fill="none" stroke="#a6a6a6" stroke-width="1.2816" stroke-linecap="square" stroke-linejoin="miter" stroke-miterlimit="2" d="M0 429.84L286.56 0"/><path id="shape049" transform="matrix(0.379531496633197 -0.925178754167606 0.925178754167606 0.379531496633197 -262.496416800107 291.103487329156)" fill="none" stroke="#a6a6a6" stroke-width="1.2816" stroke-linecap="square" stroke-linejoin="miter" stroke-miterlimit="2" d="M0 429.84L286.56 0"/><path id="shape071" transform="matrix(0.379531487520821 -0.925178731954489 0.925178731954489 0.379531487520821 -231.128434794603 269.169073117687)" fill="none" stroke="#a6a6a6" stroke-width="1.2816" stroke-linecap="square" stroke-linejoin="miter" stroke-miterlimit="2" d="M0 429.84L286.56 0"/><path id="shape081" transform="matrix(0.37953147305753 -0.925178696697526 0.925178696697526 0.37953147305753 -184.563848487765 260.298063908898)" fill="none" stroke="#a6a6a6" stroke-width="1.2816" stroke-linecap="square" stroke-linejoin="miter" stroke-miterlimit="2" d="M0 435.24L290.16 0"/><path id="shape0112" transform="matrix(0.37953147305753 -0.925178696697526 0.925178696697526 0.37953147305753 -207.325399972853 237.471422181967)" fill="none" stroke="#a6a6a6" stroke-width="1.2816" stroke-linecap="square" stroke-linejoin="miter" stroke-miterlimit="2" d="M0 430.236L286.824 0"/><path id="shape0211" transform="matrix(0.37953147305753 -0.925178696697526 0.925178696697526 0.37953147305753 -256.412465882193 273.237380949289)" fill="none" stroke="#a6a6a6" stroke-width="1.2816" stroke-linecap="square" stroke-linejoin="miter" stroke-miterlimit="2" d="M0 488.16L325.44 0"/><path id="shape0311" transform="matrix(0.379531496633197 -0.925178754167606 0.925178754167606 0.379531496633197 -216.54269849993 240.326910177139)" fill="none" stroke="#a6a6a6" stroke-width="1.2816" stroke-linecap="square" stroke-linejoin="miter" stroke-miterlimit="2" d="M0 429.84L286.56 0"/><path id="shape0411" transform="matrix(0.379531496633197 -0.925178754167606 0.925178754167606 0.379531496633197 -202.948817362783 278.329622298837)" fill="none" stroke="#a6a6a6" stroke-width="1.2816" stroke-linecap="square" stroke-linejoin="miter" stroke-miterlimit="2" d="M0 429.84L286.56 0"/><path id="shape091" transform="matrix(0.379531487520821 -0.925178731954489 0.925178731954489 0.379531487520821 -171.580835357281 256.395208087368)" fill="none" stroke="#a6a6a6" stroke-width="1.2816" stroke-linecap="square" stroke-linejoin="miter" stroke-miterlimit="2" d="M0 429.84L286.56 0"/><path id="shape0101" transform="matrix(0.37953147305753 -0.925178696697526 0.925178696697526 0.37953147305753 -88.5192147810966 237.553681779439)" fill="none" stroke="#a6a6a6" stroke-width="1.2816" stroke-linecap="square" stroke-linejoin="miter" stroke-miterlimit="2" d="M0 370.643L247.096 0"/><path id="shape0122" transform="matrix(0.37953147305753 -0.925178696697526 0.925178696697526 0.37953147305753 -90.9386698565921 245.668101336016)" fill="none" stroke="#a6a6a6" stroke-width="1.2816" stroke-linecap="square" stroke-linejoin="miter" stroke-miterlimit="2" d="M0 365.981L243.987 0"/><path id="shape0221" transform="matrix(0.37953147305753 -0.925178696697526 0.925178696697526 0.37953147305753 -196.864866444871 260.463515918974)" fill="none" stroke="#a6a6a6" stroke-width="1.2816" stroke-linecap="square" stroke-linejoin="miter" stroke-miterlimit="2" d="M0 488.16L325.44 0"/><path id="shape0321" transform="matrix(0.379531496633197 -0.925178754167606 0.925178754167606 0.379531496633197 -156.995099062604 227.553045146822)" fill="none" stroke="#a6a6a6" stroke-width="1.2816" stroke-linecap="square" stroke-linejoin="miter" stroke-miterlimit="2" d="M0 429.84L286.56 0"/><path id="shape0421" transform="matrix(0.379531496633197 -0.925178754167606 0.925178754167606 0.379531496633197 -134.730097430687 244.41828507516)" fill="none" stroke="#a6a6a6" stroke-width="1.2816" stroke-linecap="square" stroke-linejoin="miter" stroke-miterlimit="2" d="M0 395.57L263.713 0"/><path id="shape0111" transform="matrix(0.379531487520821 -0.925178731954489 0.925178731954489 0.379531487520821 -89.5570858448293 252.841622746933)" fill="none" stroke="#a6a6a6" stroke-width="1.2816" stroke-linecap="square" stroke-linejoin="miter" stroke-miterlimit="2" d="M0 405.546L270.364 0"/><path id="shape0121" transform="matrix(0.37953147305753 -0.925178696697526 0.925178696697526 0.37953147305753 -65.4686496131179 234.750333848261)" fill="none" stroke="#a6a6a6" stroke-width="1.2816" stroke-linecap="square" stroke-linejoin="miter" stroke-miterlimit="2" d="M0 435.24L290.16 0"/><path id="shape0132" transform="matrix(0.37953147305753 -0.925178696697526 0.925178696697526 0.37953147305753 -88.2302010982043 211.923692121328)" fill="none" stroke="#a6a6a6" stroke-width="1.2816" stroke-linecap="square" stroke-linejoin="miter" stroke-miterlimit="2" d="M0 430.236L286.824 0"/><path id="shape0231" transform="matrix(0.37953147305753 -0.925178696697526 0.925178696697526 0.37953147305753 -137.317267007544 247.689650888651)" fill="none" stroke="#a6a6a6" stroke-width="1.2816" stroke-linecap="square" stroke-linejoin="miter" stroke-miterlimit="2" d="M0 488.16L325.44 0"/><path id="shape0331" transform="matrix(0.379531496633197 -0.925178754167606 0.925178754167606 0.379531496633197 -97.4474996252812 214.779180116503)" fill="none" stroke="#a6a6a6" stroke-width="1.2816" stroke-linecap="square" stroke-linejoin="miter" stroke-miterlimit="2" d="M0 429.84L286.56 0"/><path id="shape0431" transform="matrix(0.379531496633197 -0.925178754167606 0.925178754167606 0.379531496633197 -83.8536184881338 252.7818922382)" fill="none" stroke="#a6a6a6" stroke-width="1.2816" stroke-linecap="square" stroke-linejoin="miter" stroke-miterlimit="2" d="M0 429.84L286.56 0"/><path id="shape0131" transform="matrix(0.379531487520821 -0.925178731954489 0.925178731954489 0.379531487520821 -52.4856364826316 230.84747802673)" fill="none" stroke="#a6a6a6" stroke-width="1.2816" stroke-linecap="square" stroke-linejoin="miter" stroke-miterlimit="2" d="M0 429.84L286.56 0"/><path id="shape0142" transform="matrix(0.37953147305753 -0.925178696697526 0.925178696697526 0.37953147305753 -5.92105017579222 221.976468817942)" fill="none" stroke="#a6a6a6" stroke-width="1.2816" stroke-linecap="square" stroke-linejoin="miter" stroke-miterlimit="2" d="M0 435.24L290.16 0"/><path id="shape0141" transform="matrix(0.37953147305753 -0.925178696697526 0.925178696697526 0.37953147305753 -28.682601660879 199.149827091008)" fill="none" stroke="#a6a6a6" stroke-width="1.2816" stroke-linecap="square" stroke-linejoin="miter" stroke-miterlimit="2" d="M0 430.236L286.824 0"/><path id="shape0241" transform="matrix(0.37953147305753 -0.925178696697526 0.925178696697526 0.37953147305753 -77.7696675702211 234.915785858333)" fill="none" stroke="#a6a6a6" stroke-width="1.2816" stroke-linecap="square" stroke-linejoin="miter" stroke-miterlimit="2" d="M0 488.16L325.44 0"/><path id="shape0341" transform="matrix(0.379531496633197 -0.925178754167606 0.925178754167606 0.379531496633197 -37.8999001879563 202.005315086183)" fill="none" stroke="#a6a6a6" stroke-width="1.2816" stroke-linecap="square" stroke-linejoin="miter" stroke-miterlimit="2" d="M0 429.84L286.56 0"/><path id="shape0441" transform="matrix(0.379531496633197 -0.925178754167606 0.925178754167606 0.379531496633197 -24.3060190508102 240.008027207881)" fill="none" stroke="#a6a6a6" stroke-width="1.2816" stroke-linecap="square" stroke-linejoin="miter" stroke-miterlimit="2" d="M0 429.84L286.56 0"/><path id="shape0152" transform="matrix(0.379531487520821 -0.925178731954489 0.925178731954489 0.379531487520821 6.29660092516077 219.939325579556)" fill="none" stroke="#a6a6a6" stroke-width="1.2816" stroke-linecap="square" stroke-linejoin="miter" stroke-miterlimit="2" d="M0 429.84L286.56 0"/><path id="shape0162" transform="matrix(0.37953147305753 -0.925178696697526 0.925178696697526 0.37953147305753 52.861187232 211.06831637077)" fill="none" stroke="#a6a6a6" stroke-width="1.2816" stroke-linecap="square" stroke-linejoin="miter" stroke-miterlimit="2" d="M0 435.24L290.16 0"/><path id="shape0151" transform="matrix(0.37953147305753 -0.925178696697526 0.925178696697526 0.37953147305753 30.0996357469142 188.241674643835)" fill="none" stroke="#a6a6a6" stroke-width="1.2816" stroke-linecap="square" stroke-linejoin="miter" stroke-miterlimit="2" d="M0 430.236L286.824 0"/><path id="shape0251" transform="matrix(0.37953147305753 -0.925178696697526 0.925178696697526 0.37953147305753 -18.9874301624286 224.007633411159)" fill="none" stroke="#a6a6a6" stroke-width="1.2816" stroke-linecap="square" stroke-linejoin="miter" stroke-miterlimit="2" d="M0 488.16L325.44 0"/><path id="shape0351" transform="matrix(0.379531496633197 -0.925178754167606 0.925178754167606 0.379531496633197 20.8823372198357 191.09716263901)" fill="none" stroke="#a6a6a6" stroke-width="1.2816" stroke-linecap="square" stroke-linejoin="miter" stroke-miterlimit="2" d="M0 429.84L286.56 0"/><path id="shape0451" transform="matrix(0.379531496633197 -0.925178754167606 0.925178754167606 0.379531496633197 34.4762183569819 229.099874760708)" fill="none" stroke="#a6a6a6" stroke-width="1.2816" stroke-linecap="square" stroke-linejoin="miter" stroke-miterlimit="2" d="M0 429.84L286.56 0"/><path id="shape0172" transform="matrix(0.379531487520821 -0.925178731954489 0.925178731954489 0.379531487520821 45.9813013055265 179.939327463357)" fill="none" stroke="#a6a6a6" stroke-width="1.2816" stroke-linecap="square" stroke-linejoin="miter" stroke-miterlimit="2" d="M0 429.84L286.56 0"/><path id="shape0261" transform="matrix(0.37953147305753 -0.925178696697526 0.925178696697526 0.37953147305753 21.0125679537706 184.00763529496)" fill="none" stroke="#a6a6a6" stroke-width="1.2816" stroke-linecap="square" stroke-linejoin="miter" stroke-miterlimit="2" d="M0 488.16L325.44 0"/><path id="shape0361" transform="matrix(0.379531496633197 -0.925178754167606 0.925178754167606 0.379531496633197 242.751840093194 14.3859717138857)" fill="none" stroke="#a6a6a6" stroke-width="1.2816" stroke-linecap="square" stroke-linejoin="miter" stroke-miterlimit="2" d="M0 17.7004L11.8003 0"/><path id="shape0461" transform="matrix(0.379531496633197 -0.925178754167606 0.925178754167606 0.379531496633197 74.4762164731807 189.09987664451)" fill="none" stroke="#a6a6a6" stroke-width="1.2816" stroke-linecap="square" stroke-linejoin="miter" stroke-miterlimit="2" d="M0 429.84L286.56 0"/><path id="shape0410" transform="matrix(0.379531506703518 -0.925178778715881 0.925178778715881 0.379531506703518 -3.1358682084083 378.564094000146)" fill="none" stroke="#a6a6a6" stroke-width="1.2816" stroke-linecap="square" stroke-linejoin="miter" stroke-miterlimit="2" d="M0 14.2419L9.4946 0"/><rect id="rect6472-821" transform="matrix(0.719999901134042 0 0 0.719999901134042 0.254558441227192 2.57571741713036e-14)" fill="none" stroke="#262626" stroke-width="3.6" stroke-linecap="butt" stroke-linejoin="round" width="358.856740728166" height="539.168994690102" rx="29.9324976415803" ry="29.9538355946958"/>
</svg>
