<?xml version="1.0" encoding="UTF-8" standalone="no"?>
<!-- Created using Krita: https://krita.org -->

<svg
   width="360"
   height="540"
   viewBox="0 0 360 540"
   version="1.1"
   id="svg2008"
   sodipodi:docname="_joker_red.svg"
   inkscape:version="1.1.1 (c3084ef, 2021-09-22)"
   xmlns:inkscape="http://www.inkscape.org/namespaces/inkscape"
   xmlns:sodipodi="http://sodipodi.sourceforge.net/DTD/sodipodi-0.dtd"
   xmlns="http://www.w3.org/2000/svg"
   xmlns:svg="http://www.w3.org/2000/svg">
  <sodipodi:namedview
     id="namedview2010"
     pagecolor="#ffffff"
     bordercolor="#666666"
     borderopacity="1.0"
     inkscape:pageshadow="2"
     inkscape:pageopacity="0.0"
     inkscape:pagecheckerboard="0"
     inkscape:document-units="pt"
     showgrid="false"
     inkscape:zoom="1.4404597"
     inkscape:cx="13.537345"
     inkscape:cy="248.87888"
     inkscape:window-width="3440"
     inkscape:window-height="1387"
     inkscape:window-x="0"
     inkscape:window-y="25"
     inkscape:window-maximized="1"
     inkscape:current-layer="svg2008"
     fit-margin-top="0"
     fit-margin-left="0"
     fit-margin-right="0"
     fit-margin-bottom="0" />
  <defs
     id="defs1952" />
  <rect
     id="rect6472-82"
     fill="#ffffff"
     stroke="#000000"
     stroke-width="1"
     stroke-linecap="butt"
     stroke-linejoin="miter"
     stroke-miterlimit="2"
     width="359"
     height="539"
     rx="29.944448"
     ry="29.944447"
     x="0.5"
     y="0.5" />
  <g
     id="g2465"
     transform="matrix(2.1472341,0,0,2.1472342,390.73168,-12.205588)"
     fill="none">
    <g
       id="joker"
       transform="translate(-1094.1,-924.2)"
       fill="none">
      <path
         id="path576"
         transform="translate(1012.831,1129.964)"
         fill="#e6180a"
         stroke="#000000"
         stroke-opacity="0"
         stroke-width="0"
         stroke-linecap="square"
         stroke-linejoin="bevel"
         d="M 0.715,0.765 0,2.152 0.738,6.973 2.661,6.639 6.473,4.049 2.236,0 Z" />
      <path
         id="shape0"
         transform="translate(968.164,989.07435)"
         fill="#e6180a"
         stroke="#000000"
         stroke-opacity="0"
         stroke-width="0"
         stroke-linecap="square"
         stroke-linejoin="bevel"
         d="M 81.54,10.9206 C 79.676,7.92865 78.75,6.12665 78.945,4.94665 c 0.178,-1.074 1.46,-2.443 -1.219,-4.572002 -1.589,-1.263 -8.359,0.630002 -3.714,6.247002 4.325,0.542 3.748,-0.388 2.81,4.23195 -6.495,6.667 -10.146,4.545 -16.175,3.011 -7.416,-1.251 -9.035,3.314 -12.299,0.448 -2.854,-9.69995 1.77,-5.96995 3.246,-5.37395 3.336,-1.421 2.516,-0.402 3.38,-4.367 -1.727,-2.762 -0.858,-2.099 -3.614,-2.854 -2.274,1.058 -1.458,0.315 -3.546,3.459 -4.942,2.154 -7.675,2.983 -7.16,11.82295 2.478,5.253 2.118,3.953 2.074,6.014 -3.938,6.132 -2.854,3.598 -4.919,10.918 -2.715,2.347 -2.145,1.206 -2.309,4.835 -0.805,2.018 -5.62,-0.998 -5.421,4.906 -7.67,-4.604 -9.635,-2.597 -20.243,2.317 -5.583,1.491 -3.6,1.268 -8.699,1.142 -0.709,0.355 -1.976,-0.025 3.548,5.341 2.064,-0.127 1.009,0.087 4.784,-1.04 0.678,0.441 4.228,1.348 0.201,5.374 -2.035,0.048 -4.251,-0.759 -8.428,6.639 -0.602,1.065 -0.761,2.449 -1.242,3.976 9.193,-1.691 6.836,-0.869 10.842,-3.494 3.62,-7.982 6.047,-4.05 6.857,-1.275 -1.924,3.316 -0.68,2.532 -5.32,3.19 -4.044,4.021 -2.722,1.771 -5.653,10.28 1.935,1.833 8.186,-0.592 12.514,-3.596 0.499,-2.63 0.961,-6.299 6.089,-3.997 0.879,2.394 0.993,1.356 -0.569,4.367 -5.321,1.585 -4.677,0.496 -7.779,10.313 0,4.702 -0.672,3.933 2.594,3.426 6.363,-3.031 6.239,-2.558 9.735,-6.449 -2.031,-8.746 4.65,-5.876 4.751,-5.845 1.291,2.073 2.6,2.675 -3.579,5.946 0.156,10.848 -0.108,8.541 0.87,11.486 1.475,0.399 2.286,1.964 9.703,-7.59 -0.062,-5.566 -0.526,-6.97 3.914,-7.222 4.185,2.515 0.461,5.02 -1.573,6.616 0.209,3.19 0.028,7.592 2.677,9.137 6.786,-5.764 5.265,-4.097 7.162,-7.524 -1.162,-3.803 -2.656,-5.872 1.84,-7.322 3.262,2.646 3.126,1.808 1.036,6.785 1.849,6.329 0.819,4.245 4.317,9.238 0.347,-0.008 2.997,1.055 4.75,-8.734 -2.226,-3.658 -2,-3.319 -0.501,-5.711 2.255,-0.04 1.563,-0.461 2.878,1.848 -1.304,4.257 -2.028,7.363 8.063,12.094 1.152,-0.947 1.25,2.027 -6.725,-17.87 -0.804,-7.42 -0.453,-4.896 -1.507,-11.153 -3.326,-5.372 -1.478,-3.493 -8.463,-8.129 0.078,-7.092 -0.108,-4.997 0.735,-9.44 7.776,-5.291 6.755,-5.25 11.543,-1.713 1.741,4.504 1.825,3.95 -0.67,3.998 -2.382,1.343 -1.746,0.424 -2.608,3.932 2.601,4.543 3.748,3.396 6.121,2.384 1.808,-4.665 -0.809,-3.423 1.707,-6.986 2.356,-7.466 -3.575,-9.496 -1.026,-15.617 2.446,-3.146 3.812,-4.804 5.075,-6.284 3.81,-8.688 2.43,-11.832 1.74,-15.59 z m -20.085,27.071 c -7.897,5.045 -5.025,3.93 -12.587,5.262 l -4.802,-0.992 -2.258,-3.224 c 0.18,-7.174 -0.479,-4.581 2.576,-11.37 l 3.229,-4.787 5.235,-2.92 c 0,0 1.595,-0.177 2.23,-0.273 l 3.079,-0.204 2.187,1.749 c -0.551,3.11 -0.505,2.312 -0.28,3.672 3.215,0.3 1.955,-0.052 5.541,1.688 l 0.445,2.825 c -1.587,5.336 -0.593,3.368 -4.595,8.574 z" />
      <path
         id="rect580"
         transform="translate(1021.807,1002.726)"
         fill="#e6180a"
         stroke="#000000"
         stroke-opacity="0"
         stroke-width="0"
         stroke-linecap="square"
         stroke-linejoin="bevel"
         d="M 6.525,0 6.912,0.456 0.386,6.309 0,5.852 Z" />
      <path
         id="path582"
         transform="translate(944.579,1039.519)"
         fill="#e6180a"
         stroke="#000000"
         stroke-opacity="0"
         stroke-width="0"
         stroke-linecap="square"
         stroke-linejoin="bevel"
         d="M 21.662,0 24.62,0.669 26.702,4.224 24.41,15.307 18.455,26.432 9.331,35.843 H 1.292 L 0,34.085 10.247,24.801 18.455,11.334 Z" />
      <path
         id="path584"
         transform="translate(1013.545,1080.218)"
         fill="#e6180a"
         stroke="#000000"
         stroke-opacity="0"
         stroke-width="0"
         stroke-linecap="square"
         stroke-linejoin="bevel"
         d="M 5.089,1.883 6.375,0.914 10.07,0 11.249,1.075 13.23,8.604 13.927,12.689 13.391,20.324 10.338,32.747 8.088,38.23 4.446,42.962 0,46.026 0.321,43.876 4.071,37.692 6.267,31.186 8.247,22.421 8.944,16.184 7.98,9.194 5.195,4.193 Z" />
      <g
         id="g596"
         transform="translate(-924.12,211.4)"
         fill="none">
        <path
           id="path598"
           transform="translate(1912.925,769.383)"
           fill="#e6180a"
           stroke="#000000"
           stroke-opacity="0"
           stroke-width="0"
           stroke-linecap="square"
           stroke-linejoin="bevel"
           d="M 1.783,0 5.525,0.328 7.584,5.02 6.008,8.436 0.832,7.798 0,2.954 Z" />
        <path
           id="path600"
           transform="translate(1921.504,763.165)"
           fill="#e6180a"
           stroke="#000000"
           stroke-opacity="0"
           stroke-width="0"
           stroke-linecap="square"
           stroke-linejoin="bevel"
           d="M 4.857,1.505 7.932,0 9.159,0.428 9.601,2.022 V 3.515 L 8.73,6.032 5.7,8.767 0.382,9.987 0,8.514 1.893,7.921 4.486,5.372 Z" />
        <path
           id="path602"
           transform="translate(1885.715,764.636)"
           fill="#ff009c"
           stroke="#000000"
           stroke-opacity="0"
           stroke-width="0"
           stroke-linecap="square"
           stroke-linejoin="bevel"
           d="M 4.025,2.145 C 4.025,3.33 3.124,4.29 2.012,4.29 0.9,4.29 0,3.33 0,2.145 0,0.96 0.9,0 2.012,0 3.124,0 4.025,0.96 4.025,2.145 Z" />
        <path
           id="path604"
           transform="translate(1890.253,775.665)"
           fill="#00ff0a"
           stroke="#000000"
           stroke-opacity="0"
           stroke-width="0"
           stroke-linecap="square"
           stroke-linejoin="bevel"
           d="M 4.19,1.99 C 4.19,3.09 3.252,3.981 2.095,3.981 0.938,3.981 0,3.089 0,1.99 0,0.891 0.938,0 2.095,0 3.252,0 4.19,0.89 4.19,1.99 Z" />
        <path
           id="path606"
           transform="translate(1900.409,791.837)"
           fill="#ff9e00"
           stroke="#000000"
           stroke-opacity="0"
           stroke-width="0"
           stroke-linecap="square"
           stroke-linejoin="bevel"
           d="M 4.544,2.075 C 4.544,3.221 3.526,4.151 2.272,4.151 1.016,4.151 0,3.221 0,2.075 0,0.929 1.017,0 2.272,0 3.526,0 4.544,0.928 4.544,2.075 Z" />
        <path
           id="path608"
           transform="translate(1908.926,797.211)"
           fill="#0072ff"
           stroke="#000000"
           stroke-opacity="0"
           stroke-width="0"
           stroke-linecap="square"
           stroke-linejoin="bevel"
           d="M 4.453,2.286 C 4.453,3.549 3.456,4.572 2.227,4.572 0.998,4.572 0,3.549 0,2.286 0,1.023 0.997,0 2.227,0 3.456,0 4.453,1.023 4.453,2.286 Z" />
        <path
           id="path610"
           transform="translate(1917.756,799.792)"
           fill="#ffff00"
           stroke="#000000"
           stroke-opacity="0"
           stroke-width="0"
           stroke-linecap="square"
           stroke-linejoin="bevel"
           d="M 4.512,2.521 C 4.512,3.914 3.501,5.042 2.256,5.042 1.01,5.042 0,3.913 0,2.521 0,1.129 1.01,0 2.256,0 3.502,0.001 4.512,1.129 4.512,2.521 Z" />
        <path
           id="path612"
           transform="translate(1896.3005,786.57448)"
           fill="#e6180a"
           stroke="#000000"
           stroke-opacity="0"
           stroke-width="0"
           stroke-linecap="square"
           stroke-linejoin="bevel"
           d="m 2.65851,0.470524 c 0.326,0.536996 0.025,1.313996 -0.673,1.737996 -0.697,0.424 -1.528004,0.332 -1.854004,-0.204 -0.326,-0.537 -0.025,-1.313996 0.672,-1.737996 0.698004,-0.424 1.528004,-0.3320007 1.855004,0.204 z" />
        <path
           id="path614"
           transform="translate(1902.798,782.53)"
           fill="#e6180a"
           stroke="#000000"
           stroke-opacity="0"
           stroke-width="0"
           stroke-linecap="square"
           stroke-linejoin="bevel"
           d="M 1.567,0.907 C 1.567,1.408 1.216,1.813 0.784,1.813 0.352,1.813 0,1.408 0,0.907 0,0.406 0.352,0 0.784,0 1.216,0 1.567,0.406 1.567,0.907 Z" />
        <path
           id="path616"
           transform="translate(1891.6137,792.02213)"
           fill="#e6180a"
           stroke="#000000"
           stroke-opacity="0"
           stroke-width="0"
           stroke-linecap="square"
           stroke-linejoin="bevel"
           d="m 1.63333,0.0988735 c 0.094,0.1069995 0.02,0.3239995 -0.191,0.5639995 -0.211,0.24 -0.526,0.463997 -0.82,0.583997 -0.293,0.12 -0.517,0.115 -0.582,-0.013 -0.094,-0.107 -0.021,-0.323997 0.191,-0.563997 0.211,-0.24 0.526,-0.465 0.819,-0.5839995 0.293,-0.119 0.517,-0.114 0.583,0.013 z" />
        <path
           id="rect618"
           transform="translate(1876.599,799.623)"
           fill="#e6180a"
           stroke="#000000"
           stroke-opacity="0"
           stroke-width="0"
           stroke-linecap="square"
           stroke-linejoin="bevel"
           d="M 0,3.441 3.689,0 5.411,1.741 1.723,5.181 Z" />
        <path
           id="rect620"
           transform="translate(1869.022,804.377)"
           fill="#e6180a"
           stroke="#000000"
           stroke-opacity="0"
           stroke-width="0"
           stroke-linecap="square"
           stroke-linejoin="bevel"
           d="M 0,4.354 5.376,0 6.909,1.776 1.533,6.131 Z" />
        <path
           id="path622"
           transform="translate(1865.648,811.40694)"
           fill="#e6180a"
           stroke="#000000"
           stroke-opacity="0"
           stroke-width="0"
           stroke-linecap="square"
           stroke-linejoin="bevel"
           d="m 1.67899,0.255059 c 0.18,0.202 0.193,0.522 0.035,0.833001 -0.158,0.311 -0.461,0.561 -0.790001,0.65 -0.328,0.09 -0.628,0.006 -0.78,-0.22 -0.1789996,-0.202 -0.1919996,-0.522001 -0.034,-0.833001 0.157,-0.311 0.461,-0.561 0.789,-0.6500004 0.328001,-0.089 0.628001,-0.006 0.780001,0.2200004 z" />
        <path
           id="path624"
           transform="translate(1866.175,867.566)"
           fill="#e6180a"
           stroke="#000000"
           stroke-opacity="0"
           stroke-width="0"
           stroke-linecap="square"
           stroke-linejoin="bevel"
           d="M 0.601,0.512 2.021,0 4.072,1.097 5.926,2.833 5.946,4.675 1.985,6.743 0,5.421 0.197,1.464 Z" />
        <path
           id="path626"
           transform="translate(1874.986,807.76023)"
           fill="#e6180a"
           stroke="#000000"
           stroke-opacity="0"
           stroke-width="0"
           stroke-linecap="square"
           stroke-linejoin="bevel"
           d="M 13.185,1.06777 C 11.652,21.3998 10.978,17.5128 14.541,21.6618 11.171,34.6478 12.63,32.2818 8.415,34.1978 -1.214,30.5568 0.489,32.0248 0,27.8918 3.76,9.44677 2.136,15.5018 6.786,2.27477 c 1.009,-1.640997 4.892,-3.493 6.399,-1.207 z" />
        <path
           id="path628"
           transform="translate(1923.476,878.542)"
           fill="#e6180a"
           stroke="#000000"
           stroke-opacity="0"
           stroke-width="0"
           stroke-linecap="square"
           stroke-linejoin="bevel"
           d="M 1.814,4.508 14.353,1.624 17.604,0.226 19.969,0 20.587,1.144 20.643,6.796 19.644,7.743 1.94,9.14 0.126,8.816 0,6.399 Z" />
        <g
           id="group0"
           fill="none">
          <path
             id="shape1"
             transform="translate(1950.105,806.9572)"
             fill="#000000"
             stroke="#000000"
             stroke-opacity="0"
             stroke-width="0"
             stroke-linecap="square"
             stroke-linejoin="bevel"
             d="m 0,0.1878 2.905,1.563 2.324,1.742 C 5.084,0.8198 2.394,-0.5212 0,0.1878 Z" />
          <path
             id="shape2"
             transform="translate(1947.587,808.22981)"
             fill="#000000"
             stroke="#000000"
             stroke-opacity="0"
             stroke-width="0"
             stroke-linecap="square"
             stroke-linejoin="bevel"
             d="M 0.969,1.05519 H 0 c 0.184,2.553 3.573,4.139 5.811,4.472 C 5.807,4.26119 5.752,2.06919 4.788,1.13619 3.847,0.227192 1.279,-0.846808 0.969,1.05519 Z m 0.366,0.138 C 1.494,0.904192 2.386,-0.0948082 3.393,0.854192 3.057,0.942192 1.913,1.32319 1.713,3.00019 1.171,2.88619 1.076,1.73919 1.335,1.19319 Z m 3.815,3.498 c -0.148,0.149 -1.696,0.019 -3.014,-1.322 1.873,-0.377 1.869,-1.788 1.867,-1.981 0.933,0.684 1.535,2.913 1.147,3.303 z" />
          <path
             id="shape3"
             transform="translate(1933.8166,796.69436)"
             fill="#000000"
             stroke="#000000"
             stroke-opacity="0"
             stroke-width="0"
             stroke-linecap="square"
             stroke-linejoin="bevel"
             d="m 18.6124,5.78465 c 0.144,-1.132 0.799,-2.563 0.388,-3.694 -1.424,-3.923 -8.405,-1.365008 -10.65195,-0.041 -5.451,3.212 -9.108,10.06695 -8.214,16.37595 0.123,0.871 -0.1150006,1.659 0.221,2.527 1.505,3.891 6.783,3.509 10.12395,3.144 7.419,-0.811 16.003,-9.136 13.75,-16.94995 -2.346,-1.561 -3.907,-1.362 -5.617,-1.362 z M 8.27145,4.36365 c 0.372,-0.375 0.582,-0.379 1.602,0.22 -0.43,-0.062 -1.518,0.583 -1.565,1.327 0,0 -0.237,-0.515 -0.271,-0.783 -0.047,-0.369 -0.177,-0.352 0.234,-0.764 z m 1.93795,0.624 c 1.26,1.442 1.871,6.68095 -1.73695,1.425 0.55,0.184 1.69595,-0.388 1.73695,-1.425 z m 11.36,11.10195 c -6.338,8.533 -20.96295,11.618 -20.96895,1.556 -0.003,-3.771 0.955,-6.359 2.962,-9.52695 5.23,-8.258008 2.355,-0.25 7.10895,1.167 L 8.54045,11.4246 c 2.01695,-0.348 4.63195,-1.54395 5.50695,-3.49995 0.897,-2.007 -0.955,-5.444 -3.183,-5.639 0.508,1.834 4.193,5.25 0.774,6.416 0,-2.404 -0.387,-4.984 -3.29195,-5.055 0.849,-2.831008 8.13195,-3.845008 9.92795,-1.489 0.91,1.193 -0.895,2.957 0.229,3.893 1.613,1.344 4.755,-0.351 5.614,2.651 0.745,2.59695 -1.101,5.43995 -2.548,7.38795 z" />
          <path
             id="shape4"
             transform="translate(1937.4586,809.021)"
             fill="#000000"
             stroke="#000000"
             stroke-opacity="0"
             stroke-width="0"
             stroke-linecap="square"
             stroke-linejoin="bevel"
             d="M 8.38542,5.513 C 6.50242,5.228 4.57642,3.202 3.35042,1.819 2.90742,1.319 2.38142,0 1.60742,0 -0.577575,0 -0.184575,4.413 0.735425,5.471 2.35042,7.328 6.25642,6.883 8.38542,6.487 l -1.355,2.139 c 3.45098,-0.541 2.13,-3.683 1.162,-5.833 -0.969,0.926 -0.087,1.674 0.193,2.72 z m -6.778,-4.666 4.454,5.055 c -2.459,0 -6.550995,-1.945 -4.454,-5.055 z" />
          <path
             id="shape5"
             transform="translate(1923.379,766.7162)"
             fill="#000000"
             stroke="#000000"
             stroke-opacity="0"
             stroke-width="0"
             stroke-linecap="square"
             stroke-linejoin="bevel"
             d="M 0,0.180799 0.774,1.5418 C 2.041,0.764799 1.355,-0.464201 0,0.180799 Z" />
          <path
             id="shape6"
             transform="translate(1936.2744,807.535)"
             fill="#000000"
             stroke="#000000"
             stroke-opacity="0"
             stroke-width="0"
             stroke-linecap="square"
             stroke-linejoin="bevel"
             d="M 0.0795639,3.11 2.40356,0 C 0.788564,0.108 -0.312436,1.491 0.0795639,3.11 Z" />
          <path
             id="shape7"
             transform="translate(1942.9205,809.089)"
             fill="#000000"
             stroke="#000000"
             stroke-opacity="0"
             stroke-width="0"
             stroke-linecap="square"
             stroke-linejoin="bevel"
             d="M 2.34249,2.14 C 2.24549,0.873 1.10949,0.39 0.0184926,0 -0.174507,1.296 1.18049,2.013 2.34249,2.14 Z" />
          <path
             id="shape8"
             transform="translate(1926.671,825.811)"
             fill="#000000"
             stroke="#000000"
             stroke-opacity="0"
             stroke-width="0"
             stroke-linecap="square"
             stroke-linejoin="bevel"
             d="M 0,0 C 1.162,5.017 6.964,7.62 11.427,8.703 13.173,9.127 16.141,9.451 17.431,7.972 13.475,6.944 9.864,6.989 6.199,4.743 4.262,3.556 2.225,0.195 0,0 Z" />
          <path
             id="shape9"
             transform="translate(1935.1953,824.51395)"
             fill="#000000"
             stroke="#000000"
             stroke-opacity="0"
             stroke-width="0"
             stroke-linecap="square"
             stroke-linejoin="bevel"
             d="m 4.32366,1.73705 c 0.782,-0.859997 -3.589,-2.163997 -4.184,-1.599997 -0.457,0.433 0.328,1.005997 0.632,1.183997 0.818,0.478 2.713,1.339 3.552,0.416 z" />
          <path
             id="shape10"
             transform="translate(1865.1698,759.6241)"
             fill="#000000"
             stroke="#000000"
             stroke-opacity="0"
             stroke-width="0"
             stroke-linecap="square"
             stroke-linejoin="bevel"
             d="m 108.628,28.0799 c -0.553,-1.419 -1.793,-2.534 -2.314,-3.879 -0.264,-0.68 0.441,-1.448 0.484,-2.148 0.152,-2.477 -1.335,-4.828 -4.046,-4.591 -2.8068,0.246 -4.7268,3.674 -3.1508,6.146 1.0268,1.613 2.9148,2.078 4.6998,1.75 -0.046,5.462 -6.1488,8.419 -11.0388,7.693 -2.807,-0.417 -4.97,-1.983 -7.94,-1.853 -3.121,0.137 -7.465,2.215 -8.626,1.548 -2.617,-1.505 -1.486,-4.622 -1.252,-6.806 6.956,4.905 9.355,-5.076 4.262,-6.325 -1.482,-0.364 -3.229,0.229 -4.136,1.473 -0.419,0.575 -0.443,1.495 -1.001,1.948 -1.102,0.894 -2.905,1.001 -4.121,1.969 -2.586,2.058 -3.438,6.186 -3.106,9.296 0.484,4.538 2.661,4.96 2.057,6.578 -0.768,2.054 -2.539,3.877 -3.482,5.899 -0.729,1.561 -0.621,3.523 -1.404,4.985 -0.783,1.464 -3.033,1.005 -2.24,5.286 -2.712,-0.64 -6.126,1.309 -5.423,4.278 -1.172,-0.815 -2.668,-1.962 -4.067,-2.309 -7.317,-1.81 -15.312,6.283 -21.885,6.001 -0.969,-0.042 -2.379,-0.554 -3.238,0.006 -1.477,0.961 0.716,2.296 1.107,3.021 0.971,1.797 -5.354,-1.381 -6.004,-2.699 -0.669,-1.355 1.344,-16.856 1.144,-19.385 -0.057,-0.71 -0.478,-1.412 -0.138,-2.106 0.492,-1.003 1.472,-1.783 2.023,-2.788 0.759,-1.381 1.018,-2.954 2.139,-4.124 1.229,-1.284 3.614,-2.446 4.456,-4.06 0.377,-0.724 -0.314,-1.39 -0.02,-2.048 0.323,-0.72 0.231,0.063 7.05,-5.339 0.574,-0.455 1.441,-1.828 2.229,-1.046 1.53,1.516 0.569,7.159 -1.509,7.901 -1.104,0.395 -2.187,-1.176 -3.622,-0.583 -1.017,0.42 -1.54,1.468 -1.549,2.528 -0.031,3.766 6.101,3.14 5.035,-0.584 4.592,-1.26 3.638,-7.188 4.688,-10.693 0.032,-0.107 3.011,-5.878 4.461,-3.845 0.736,1.033 -0.106,4.428 -0.047,5.789 0.147,3.358 1.173,6.42 -0.116,9.722 -0.289,0.739 -0.554,1.944 -1.28,2.354 -0.515,0.55 -2.149,0.233 -3.178,0.714 -1.92,1.368 -1.481,5.747 2.337,4.394 2.058,-0.729 0.95,-2.126 1.934,-3.424 1.025,-1.353 2.662,-2.189 3.596,-3.647 2.113,-3.299 1.037,-7.192 0.388,-10.694 -0.19,-1.027 -0.646,-5.015 1.154,-5.015 0.682,0 0.974,1.009 1.16,1.515 2.041,5.545 3.903,13.437 0.522,18.277 -0.816,1.168 -2.601,0.593 -3.225,2.143 -0.674,1.673 0.128,3.565 1.938,3.977 1.938,0.44 3.368,-1.159 3.284,-3.006 -0.031,-0.685 -0.576,-1.507 -0.238,-2.139 0.544,-1.016 1.579,-1.668 2.109,-2.723 1.72,-3.415 1.993,-8.271 0.713,-11.86 -1.014,-2.841 -5.682,-6.222 -4.726,-9.333 0.792,-2.578 3.808,-2.121 5.827,-3.188 4.574,-2.417 5.647,-5.742 4.073,-10.194 -0.11,-0.778 0.843,-1.537 0.376,-2.337001 -0.418,-0.718 -1.352,-0.613 -1.784,0 -0.87,1.234001 0.713,2.102001 -0.856,3.313001 -0.979,0.756 -2.25,0.477 -3.355,0.877 -0.514,0.186 -0.879,0.753 -1.406,0.857 -0.831,0.165 -1.567,-0.461 -2.365,0.174 -1.252,0.997 -0.874,3.847 -3.201,4.083 -5.34,0.542 -1.943,-5.827 -10.846,-7.928 -3.166,-0.747 -6.734,0.119 -8.721,2.903 -1.153,1.617 -1.684,5.564 -4.255,5.476 -1.004,-0.035 -3.54,-0.835 -3.943,-1.855 -0.499,-1.261 0.337,-2.495 -1.112,-3.457 -1.358,-0.901 -3.402,-0.285 -3.778,1.363 -0.354,1.551 0.313,3.266 2.055,3.457 0.703,0.077 1.448,-0.359 2.098,-0.025 1.755,0.903 3.072,2.528 5.263,2.113 2.853,-0.54 3.677,-4.384 5.81,-6.074 3.473,-2.753 12.35,1.253 12.719,3.443 0.216,1.281 -2.456,0.459 -3.035,0.39 -3.229,-0.386 -6.972,0.526 -8.669,3.503 -1.228,2.152 -0.315,4.471 -3.339,5.383 -4.531,1.367 -2.527,-2.178 -4.846,-2.925 -2.287,-0.737 -4.194,1.043 -3.513,3.179 1.007,3.161 3.484,0.824 5.452,1.077 1.903,0.245 3.678,0.808 5.415,-0.575 2.185,-1.738 1.748,-4.396 4.85,-5.491 1.282,-0.453 5.289,-1.54 5.878,0.325 0.465,1.474 -0.714,1.329 -8.009,7.505 -0.61,0.517 -3.517,2.789 -4.324,3.414 -2.314,1.793 -4.831,5.034 -7.562,6.088 -1.083,0.418 -2.988,-2.623 -3.989,-0.099 -1.609,-0.463 -2.828,0.263 -2.905,1.944 -1.803,0.006 -4.077,1.381 -5.086,2.924 -1.012,1.547 0.714,3.257 -0.532,4.673 -4.53998,5.158 -14.338982,9.746 -13.841982,12.622 0.632,3.65 7.459002,-4.144 12.293982,-7.112 0.503,-0.309 1.704,-1.644 2.299,-1.517 0.662,0.142 2.004,3.493 2.135,4.159 0.228,1.165 -1.145,2.982 -1.528,4.083 -1.3,3.733 -2.727,7.469 -3.761,11.277 -1.089,4.011 -1.12,8.563 -2.59198,12.444 -0.745,1.965 -2.327,3.543 -3.26,5.443 -3.983,8.111 -4.842002,15.213 -4.334,20.9991 0.054,0.61 0.776,1.02 0.765,1.556 -0.012,0.583 -1.090002,0.731 -1.259002,1.373 -0.219,0.83 0.425002,1.544 0.411002,2.321 -0.052,2.988 -1.363002,6.516 0.47,9.333 1.318,2.027 6.749,-0.649 7.554,-2.238 0.433,-0.854 -0.181,-1.695 -0.518,-2.429 -1.029,-2.24 -2.81,-3.443 -4.712,-4.905 -0.543,-0.418 -0.937,-2.36 -0.439,-2.947 0.433,-0.511 1.268,-0.122 1.796,-0.012 1.379,0.287 10.56498,0.521 18.20498,-2.376 1.333,-0.505 3.724,-1.104 4.454,-2.396 -4.143,0.194 -7.84,3.027 -12.201,2.333 0.067,0.012 3.114,-3.0781 3.114,-3.0781 1.371,-1.734 5.859,-7.034 6.873,-8.977 0.712,-1.364 1.412,-3.683 2.555,-4.744 0.67,-0.622 2.451,-0.366 3.339,-0.545 10.024,-2.016 5.707,-6.425 9.684,-7.415 2.712,-0.675 4.561,3.686 0.969,5.319 -1.073,0.488 -2.178,-0.075 -3.293,0.595 -4.017,2.413 -6.123,10.436 -5.229,11.532 0.733,0.898 4.309,-0.278 5.229,-0.593 2.357,-0.807 5.498,-1.79 7.249,-3.671 0.601,-0.646 0.497,-1.626 0.777,-2.421 1.764,-5.001 7.922,-1.672 4.737,1.75 -2.704,2.902 -5.108,-2.699 -7.985,11.6661 -0.146,0.727 -0.516,2.768 0.182,3.306 1.039,0.802 6.384,-1.774 7.904,-2.703 1.752,-1.071 3.058,-2.353 4.568,-3.7141 -2.324,4.4121 -4.264,9.0681 -6.331,13.6101 -0.734,1.612 -1.373,4.547 -2.675,5.754 -1.733,1.607 -6.752,-4.514 -8.23,-2.191 -1.163,1.827 2.898,4.354 3.873,5.382 -3.277,-0.142 -11.376,-1.679 -12.976,-0.039 -0.769,0.787 -0.105,1.54 0.774,1.734 2.376,0.526 5.132,0.979 7.553,1.221 0,0.779 -4.068,0.121 -6.197,0.504 -3.139,0.563 -2.668,2.477 -0.388,2.765 2.579,0.324 5.35,0.229 7.941,0.229 0,0.966 0.582,-0.295 -7.554,1.705 -0.774,0.19 -2.547,0.755 -1.625,1.881 1.51,1.846 7.571,-0.405 10.921,-0.475 -1.245,1.645 -3.764,2.066 -5.229,3.694 -2.497,2.776 1.974,1.676 3.292,0.972 -1.126,3.328 -3.738,7.668 -3.583,8.75 0.094,0.657 0.678,0.389 0.963,0 0.622,-1.005 1.021,-2.236 1.458,-3.307 h 0.194 c 0.242,-1.623 1.476,-5.348 2.904,-6.223 -3.012,6.914 -2.625,6.223 -2.904,6.223 l -0.388,1.945 c 1.076,-0.176 1.949,-1.91 2.585,-3.58 -0.206,0.642 -0.272,1.197 0.041,1.406 0.477,0.318 0.863,-0.633 0.998,-0.937 0.652,-1.472 1.411,-2.952 1.992,-4.474 h 0.194 c 1.291,-2.854 1.226,-2.853 0.193,0 -0.271,0 0.006,-0.628 -1.55,4.278 2.229,-0.664 2.415,-4.989 3.874,-6.612 l 0.193,-0.583 c 0,0.699 0.065,0.583 -0.193,0.583 l -1.937,5.252 c 1.549,-0.127 2.268,-2.918 2.711,-4.277 0.275,0 0.336,-0.488 -0.774,3.305 1.402,-0.229 1.974,-2.27 2.324,-3.5 h 0.193 c 1.293,-2.599 1.226,-2.591 0.193,-0.002 -0.275,0.003 -0.109,-0.364 -0.774,2.53 1.259,-0.194 1.582,-1.64 1.937,-2.724 h 0.193 c 0.638,-1.281 1.001,-2.034 1.118,-2.258 l 0.02,-0.005 c -0.083,0.213 -0.401,0.955 -0.943,2.263 h -0.194 c -0.722,2.334 0.775,1.434 1.356,-0.193 0.271,0 0.076,0.236 0.968,-1.558 -0.669,1.791 -0.504,1.555 -0.774,1.558 v 1.167 c 1.222,-0.194 1.55,-1.472 1.937,-2.528 0.259,0 0.131,0.127 0.581,-0.779 -0.231,0.934 -0.128,0.779 -0.387,0.779 l -0.194,1.75 c 1.069,-0.185 1.323,-1.166 1.55,-2.139 0.265,0 0.093,0.238 0.924,-1.646 -0.623,1.886 -0.465,1.644 -0.73,1.646 l -0.193,1.361 c 1.243,-0.1 1.625,-1.244 1.937,-2.334 0.258,0 0.099,0.19 0.774,-1.168 -0.452,1.366 -0.323,1.168 -0.581,1.168 l -0.193,1.751 c 0.943,-0.169 1.212,-1.122 1.55,-1.944 0.24,0 0.151,0.124 0.501,-0.771 l 0.036,0.021 c -0.169,0.884 -0.104,0.746 -0.344,0.749 v 1.166 c 1.162,-0.192 1.493,-1.273 1.743,-2.333 h 0.193 c -0.451,2.592 0.934,0.468 1.78,0.117 0.774,-0.321 2.014,-0.204 2.868,-0.312 0,8.085 -0.646,15.654 1.899,23.526 0.321,0.994 0.91,1.903 1.162,2.917 0.36,1.446 -0.569,3.528 1.584,3.694 -0.137,3.237 -0.258,6.369 1.857,9.138 1.492,1.952 5.692,-0.33 6.597,-1.944 1.664,-2.969 -1.509,-5.648 -3.806,-7.26 -0.814,-0.571 -2.954,-1.857 -2.454,-3.198 0.521,-1.402 2.564,-1.114 7.674,-5.929 7.326,-6.905 14.73,-21.933 14.73,-34.553 0,-5.122 0.12,-6.775 -0.738,-6.611 -0.913,0.174 0.052,1.499 -0.834,7.778 -2.222,15.759 -5.521,16.922 -7.916,23.332 -0.791,0 4.192,-9.95 1.124,-25.082 -0.7,-3.453 -2.838,-7.669 -3.682,-7.973 -0.561,-0.202 -1.235,0.048 -8.483,3.109 0,0.257 0.116,0.192 -0.581,0.192 l 0.581,-0.192 c 1.736,-1.497 6.04,-4.383 5.986,-6.996 -0.032,-1.557 -1.525,-2.723 -1.299,-4.4741 0.151,-1.167 1.443,-2.34 2.67,-2.234 0.473,0.04 0.849,0.31 1.217,0.588 2.609,1.976 -0.187,3.5991 -0.192,5.7281 -0.005,1.952 1.12,4.67 2.065,6.358 0.599,1.069 1.989,4.104 3.602,3.447 0.864,-0.353 1.329,-1.632 1.701,-2.409 1.027,-2.144 2.409,-4.73 2.008,-7.202 -0.272,-1.68 -3.052,-3.6751 -0.209,-5.0551 0.952,-0.462 1.921,0.441 2.074,1.36 0.371,2.2231 -3.902,4.3381 3.891,10.4491 0.695,0.546 4.8488,3.265 5.3768,1.367 0.405,-1.452 -6.2028,-11.7131 -7.6948,-20.1771 -0.871,-4.944 0.528,-10.596 -6.097,-14.937 -1.007,-0.66 -2.425,-1.103 -3.209,-2.053 -0.579,-0.702 0.041,-1.665 0.095,-2.454 0.143,-2.092 -0.623,-4.08 0.329,-6.17 0.34,-0.747 1.77,-1.311 2.402,-1.802 1.321,-1.026 2.358,-2.207 4.066,-2.431 2.836,-0.371 5.586,3.175 5.811,5.735 -8.768,0.02 -3.128,11.549 2.0898,6.835 1.788,-1.615 0.342,-3.235 0.571,-5.085 0.093,-0.752 0.78,-1.289 1.105,-1.944 2.694,-5.43 -1.736,-9.04 -1.584,-13.026 0.141,-3.681 4.892,-7.067 6.473,-10.306 2.205,-4.511 2.551,-10.418 0.707,-15.156 z m -70.3748,8.034 c -2.368,0.723 -3.917,-2.983 -1.542,-3.675 2.711,-0.79 4.179,2.87 1.542,3.675 z m 8.109,5.715 c -2.874,0.63 -3.539,-3.229 -0.742,-3.936 2.856,-0.721 2.967,3.448 0.742,3.936 z m 9.505,2.601 c -2.625,1.104 -4.113,-2.854 -1.726,-3.792 2.557,-1.004 3.92,2.87 1.726,3.792 z M 22.9612,9.1759 c -2.561,0.362 -3.098,-3.634 -0.581,-3.963 2.356,-0.308 2.978,3.624 0.581,3.963 z m 38.904,-3.975 c 0.521,-0.792 2.841,-1.887 3.465,-0.828 2.052,3.482 -2.301,7.797 -5.38,8.176 -0.967,0.119 -2.71,0.914 -3.097,-0.414 1.913,-0.194 4.202,-2.466 4.731,-4.277 0.228,-0.78 -0.187,-1.947 0.281,-2.657 z m -5.4,4.144 c -0.069,0.07 -0.372,0.233 -0.498,0.185 -0.126,-0.048 -0.3,-1.415 -0.3,-1.415 0,0 0.868,1.159 0.798,1.23 z m -0.968,-0.905 c -0.065,0.593 0.196,1.778 1.056,1.083 0.355,-0.287 -1.391,-2.061 -0.358,-3.104 0.581,-0.586 1.511,-0.052 2.208,-0.151 0.668,-0.096 1.356,-0.892 2.068,-0.614 2.111,0.824 -1.812,6.805 -4.974,6.231 -2.181,-0.395 -1.365,-2.623 0,-3.445 z m -7.165,5.252 c 0.229,-1.287 1.836,-0.004 2.307,-0.832 0.44,-0.776 -1.096,-2.361 0.404,-2.719 2.264,-0.54 4.24,4.148 3.536,5.882 -0.595,1.465 -1.563,0.286 -2.567,0.534 -0.582,0.144 -0.775,0.834 -1.367,0.949 -0.376,0.073 -0.8,-0.108 -0.812,-0.51 -0.023,-0.82 1.265,-1.073 0.926,-1.938 -0.358,-0.911 -2.621,-0.277 -2.427,-1.366 z m -20.917,6.175 c -2.38,0.382 -3.242,-3.125 -0.774,-3.583 2.488,-0.462 3.52,3.143 0.774,3.583 z m 10.845,3.105 c 0.969,-0.288 1.272,1.419 0.36,1.654 -1.031,0.267 -1.343,-1.361 -0.36,-1.654 z M 6.80622,111.88 c -0.208,1.256 -1.232,0.641 -1.95,1.114 -0.396,0.261 -0.554,0.783 -0.977,1.024 -2.503,1.428 -3.627002,-4.645 -1.773,-5.52 1.474,-0.695 4.971,1.751 4.7,3.382 z M 32.6442,27.2009 c 1.861,-0.352 1.515,1.92 -0.194,2.18 -1.872,0.284 -1.171,-1.922 0.194,-2.18 z m -4.648,5.35 c -0.144,0.803 -0.595,0.901 -1.355,0.972 0.141,-0.848 0.547,-0.946 1.355,-0.972 z m -4.397,-1.224 c 1.667,-0.602 2.305,4.527 1.071,4.738 -1.069,0.184 -2.292,-4.298 -1.071,-4.738 z m -3.013,1.277 c 0.805,-1.67 1.921,0.91 1.979,3.057 0.021,0.778 0.008,1.558 0.008,2.333 -1.55,-0.26 -2.643,-4.029 -1.987,-5.39 z m -2.394,1.453 c 0.617,-0.183 0.942,0.565 1.081,1.021 1.776,5.803 -0.345,6.078 -1.075,4.277 -0.366,-0.902 -1.458,-4.867 -0.006,-5.298 z m -2.978,2.242 c 0.774,-1.221 1.549,0.378 1.685,1.112 0.283,2.487 0.209,2.879 0.059,3.694 -1.357,-0.447 -2.574,-3.5 -1.744,-4.806 z M 1.26922,53.4379 c -1.088002,0.103 -0.799002,-1.455 0.193,-1.519 1.274,-0.081 0.84,1.422 -0.193,1.519 z m 7.553,-5.417 c -1.891,1.559 -2.392,1.769 -3.485,2.611 -2.21,-1.411 1.851,-4.579 3.485,-4.962 2.09898,-0.492 0.613,1.845 0,2.351 z m 4.29598,-3.416 c -0.614,0 -1.38,-0.871 -1.083,-1.456 0.317,-0.625 2.366,-2.521 3.023,-2.627 0.688,-0.111 1.122,0.822 0.932,1.368 -0.26,0.893 -1.903,2.641 -2.872,2.715 z m 3.169,0.778 c -0.222,-0.579 -0.678,-1.263 -0.589,-1.911 0.091,-0.664 1.547,-2.232 2.227,-2.249 0.577,-0.014 0.93,0.505 1.54,0.287 1.022,-0.365 0.786,-1.55 1.41,-2.23 0.988,-1.078 2.159,-0.159 2.473,-2.259 3.382,0.406 4.195,-4.47 7.747,-4.859 -0.524,1.75 -2.705,2.479 -3.819,3.729 -1.29,1.446 -1.687,3.75 -2.959,5.353 -0.712,0.898 -2.413,1.348 -2.921,2.104 -0.368,0.547 0.788,0.791 1.062,1.063 0.589,0.587 0.316,1.888 -0.188,2.417 -0.705,0.74 -3.764,2.055 -4.674,1.351 -0.771,-0.597 -0.979,-1.936 -1.309,-2.796 z m -5.021,35.846 c 0.587,-0.564 1.94,-0.38 2.086,0.524 0.342,2.126 -1.484,0.38 -5.13398,14.96 -0.268,1.068 -1.221,2.288 -2.301,1.944 -1,-0.318 2.92,-15.09 5.34898,-17.428 z m 4.036,19.8731 c -2.274,1.949 -4.667,2.806 -7.64298,2.806 -0.613,0 -2.313,0.291 -2.583,-0.449 -0.325,-0.892 6.24098,-6.3061 8.27898,-8.4951 7.789,-8.368 12.107,-20.731 12.122,-26.054 0.763,0.002 4.553,2.113 4.251,6.012 -2.807,11.162 -7.58,20.311 -14.426,26.1801 z m 13.663,-31.9981 c 1.16,0.316 2.094,1.617 3.292,1.75 1.936,0.215 3.879,-2.132 5.894,-0.049 0.573,0.593 0.353,1.538 0.002,2.188 -1.531,2.832 -3.571,0.836 -5.508,2.176 -1.095,0.758 -1.475,2.49 -2.712,2.879 l 0.969,-5.833 z m 27.284,26.638 c -0.705,-5.17 7.071,-4.479 5.252,-0.39 -0.518,1.165 -2.638,2.35 -3.873,2.592 -1.062,0.208 -1.273,-1.425 -1.379,-2.202 z m -1.139,25.4711 c -0.9,-0.749 -0.951,-0.693 -0.193,-0.389 4.097,-8.866 2.994,-6.633 5.035,-10.306 z m 6.391,-11.083 c -0.832,3.906 -3.522,8.05 -5.229,11.666 -0.275,0 -0.655,1.037 3.605,-8.555 z m -6.004,6.188 c 3,-6.928 2.556,-5.994 3.1,-5.994 -3.764,8.185 -6.708,14.326 -3.1,5.994 z m -2.13,-1.717 c 4.388,-8.746 3.124,-8.166 4.067,-8.166 -4.228,9.898 -2.763,6.622 -5.811,13.027 -0.193,-1.492 1.086,-3.55 1.744,-4.861 z m -3.292,4.473 c 5.731,-13.346 4.1,-9.553 7.359,-17.11 0,0 -4.719,15.374 -7.359,17.11 z m 7.553,-10.5 c -0.144,2.762 -2.404,6.064 -3.573,8.556 -3.817,8.132 -0.029,-3.774 3.573,-8.556 z m -0.194,-9.1381 c -3.339,8.3241 -1.478,3.9661 -8.521,19.8321 -1.126,0 5.875,-16.545 8.521,-19.8321 z m -15.301,37.3321 h -0.193 c -0.093,0.353 -0.527,1.184 -0.862,2.009 0.805,-2.282 0.548,-2.009 0.862,-2.009 1.794,-3.603 1.755,-3.658 0.193,0 z m 5.811,-3.112 c -0.256,0 -0.264,0.277 0.181,-1.506 0.114,-0.019 0.231,-0.037 0.341,-0.056 0.102,0.043 -0.054,0.31 -0.522,1.562 z m 5.811,-2.722 c -0.81,1.084 -0.744,1.049 0,-0.194 z m 1.162,0.195 c -0.255,0 -0.301,0.205 0.333,-1.061 l 0.018,-0.001 z m 2.517,-6.806 c -0.808,0.928 -0.473,3.041 -1.278,3.694 -2.497,2.023 -6.997,1.932 -9.955,3.02 -3.212,1.181 -5.827,4.023 -9.296,4.563 1.121,-2.139 5.473,-2.107 6.052,-4.658 0.598,-2.638 -7.487,0.807 -11.862,-0.008 0,-0.278 -1.215,0.072 10.652,-2.527 -0.68,-2.14 -2.395,-1.407 -4.075,-1.361 -4.203,0.114 -7.158,-0.339 -7.158,-0.778 3.717,-1.584 9.562,-0.083 10.458,-1.279 0.72,-0.961 -1.685,-1.223 -2.13,-1.362 -2.542,-0.8 -5.462,-1.247 -8.135,-1.247 0.378,-1.079 1.587,-0.659 2.519,-0.729 4.006,-0.297 10.799,2.089 11.031,-0.243 0.147,-1.472 -4.07,-2.432 -4.253,-4.861 l 6.778,3.306 c 7.902,1.867 5.53,0.85 10.652,4.277 z m -0.194,-1.749 c 4.919,-11.213 9.664,-21.154 4.623,-9.723 -4.78,10.841 -4.342,9.723 -4.623,9.723 z m 1.743,-0.584 c -0.193,-1.433 1.156,-3.384 1.792,-4.666 2.377,-4.792 5.186,-11.835 6.343,-12.833 -8.547,18.835 -7.834,17.499 -8.135,17.499 z m 1.743,-0.389 c -0.448,-1.573 5.37,-11.098 8.271,-19.055 0.567,-1.556 -1.094,-3.2861 -0.565,-5.0561 0.479,-1.606 2.496,-2.73 4.052,-1.888 1.604,0.869 1.3,2.865 0.209,4.025 -0.764,0.8121 -2.008,1.0651 -2.671,1.9801 -1.555,2.148 -5.662,13.376 -9.296,19.994 z m 1.743,-0.388 h -0.193 c 0.678,-3.824 3.364,-7.938 4.976,-11.472 0.96,-2.105 1.679,-4.816 3.158,-6.611 -2.58,6.611 -0.871,2.683 -7.941,18.083 z m 1.356,-0.389 c 5.165,-11.667 3.662,-8.41 6.778,-14.777 -0.387,3.562 -3.23,7.825 -4.708,11.083 -0.528,1.165 -0.983,2.98 -2.07,3.694 z m 1.757,-0.112 c 0.144,-2.548 2.063,-4.023 5.216,-13.109 0.551,3.036 -4.059,8.603 -4.842,13.027 l 0.021,-0.002 c -0.165,0.042 -0.294,0.07 -0.395,0.084 z m 1.743,-0.457 -0.018,0.007 z m -0.207,-0.015 c 0.473,-3.208 2.829,-7.314 4.454,-10.11 0,0 0.176,0.142 0.411,0.316 -0.011,0.026 -0.02,0.047 -0.029,0.072 h -0.188 c -4.896,10.686 -4.368,9.722 -4.648,9.722 z m 6.778,39.292 c 0.732,0.129 3.908,2.804 3.451,3.552 -0.435,0.71 -1.991,0.118 -4.032,2.46 -1.162,-1.044 -2.325,-6.524 0.581,-6.012 z m 2.888,-12.654 c 2.421,-6.216 4.382,-12.945 4.842,-19.638 0.757,-11.008 -3.544,-11.354 -3.93,-15.551 -0.129,-1.404 3.482,-2.132 4.528,-2.04 1.309,0.114 1.599,1.791 1.915,2.813 0.931,3.01 1.492,6.027 1.818,9.139 0.794,7.583 -3.906,21.588 -4.437,22.943 -0.531,1.355 -4.474,7.603 -8.594,9.527 0.447,-2.463 2.913,-4.767 3.858,-7.193 z M 100.877,52.7749 c -0.683,4.427 4.013,8.128 1.629,13.61 -0.28,0.645 -0.943,1.022 -1.06,1.754 -0.308,1.94 1.069,3.8 -1.042,5.324 -2.1528,1.555 -5.5288,-0.857 -4.9288,-3.384 0.222,-0.932 0.926,-1.985 1.855,-2.288 0.845,-0.275 4.0498,-0.037 1.72,-3.934 -1.351,-2.26 -3.423,-3.922 -6.175,-3.545 -1.226,0.168 -2.156,1.122 -3.099,1.842 -0.965,0.738 -2.424,1.429 -3.174,2.364 -1.428,1.781 -0.711,4.591 -0.703,6.535 0.004,0.915 -0.706,2.038 -0.439,2.916 0.387,1.272 2.688,2.076 3.737,2.723 7.509,4.633 5.238,12.264 6.955,18.276 1.932,6.7701 6.3588,14.4231 6.7938,15.9381 -3.6798,-0.713 -7.7788,-3.768 -8.7558,-7.582 -0.548,-2.14 2.44,-4.9241 -0.928,-6.3131 -1.646,-0.68 -2.988,1.65 -2.986,3.0081 0.002,1.421 1.177,2.051 1.519,3.306 0.536,1.967 -1.229,4.937 -2.098,6.61 -0.304,0.586 -0.708,1.656 -1.47,1.766 -1.624,0.232 -4.551,-7.125 -4.395,-8.766 0.083,-0.869 0.779,-1.511 1.005,-2.333 0.555,-2.0231 -0.188,-4.0821 -2.228,-4.8321 -1.431,-0.525 -3.277,0.762 -3.72,2.112 -0.711,2.1721 1.243,3.6081 0.972,5.4441 -0.402,2.722 -4.844,5.341 -6.741,6.999 h -0.194 c -1.694,-1.519 -1.532,-3.696 -1.824,-5.833 -0.106,-0.778 -0.379,-2.098 0.081,-2.802 1.097,-1.68 3.487,-1.9251 3.008,-4.5871 -0.51,-2.825 -3.974,-3.192 -5.642,-1.158 -1.623,1.98 0.101,4.011 -0.794,6.0201 -1.448,3.251 -4.897,5.718 -7.416,7.972 0,0 -0.981,-0.008 -1.173,-0.202 -1.292,-1.306 -1.468,-4.331 -1.288,-6.02 0.152,-1.429 -0.34,-3.696 0.256,-5.0011 0.506,-1.107 2.784,-1.41 3.656,-2.331 1.968,-2.079 -0.492,-5.453 -3,-5.069 -1.895,0.29 -3.41,2.349 -3.256,4.236 0.072,0.887 0.772,1.981 0.268,2.817 -2.138,3.5381 -7.718,5.6011 -11.537,6.3211 0,-3.5 1.11,-9.4811 3.78,-11.9921 1.42,-1.336 3.612,-0.19 4.935,-2.396 2.558,-4.265 -4.891,-8.215 -6.583,-1.944 -0.157,0.58 0.009,1.367 -0.327,1.821 -1.441,1.946 -4.706,2.739 -6.838,3.541 -0.813,0.306 -3.999,1.399 -4.648,0.548 -0.641,-0.84 0.563,-2.954 0.879,-3.77 3.811,-9.833 6.917,-4.669 9.051,-7.972 1.701,-2.632 -0.478,-6.556 -3.732,-5.433 -2.517,0.869 -1.934,3.238 -3.376,4.758 -2.333,2.459 -6.643,2.813 -9.794,2.813 0.364,-2.917 3.353,-7.483 5.844,-9.021 0.806,-0.497 1.638,-0.017 2.484,-0.21 1.744,-0.398 3.284,-2.57 2.824,-4.372 -0.438,-1.717 -2.893,-2.349 -4.373,-1.756 -0.59,0.236 -1.101,0.916 -1.743,0.985 -0.661,0.071 -1.158,-0.736 -1.567,-1.126 -1.082,-1.031 -2.839,-1.977 -3.081,-3.556 2.811,0 5.426,0.008 8.109,-0.973 4.354,-1.591 8.691,-4.627 13.389,-5.213 3.184,-0.397 4.967,2.491 7.94,2.491 -0.014,-0.661 -0.268,-1.499 -0.043,-2.131 0.783,-2.198 4.096,-1.099 5.155,-2.536 0.548,-0.742 0.158,-1.729 0.477,-2.527 0.419,-1.05 1.584,-1.399 2.074,-2.333 0.738,-1.404 0.668,-3.205 1.313,-4.667 0.996,-2.256 3.036,-4.47 3.707,-6.805 0.447,-1.555 -1.178,-3.38 -1.645,-4.861 -0.961,-3.047 -0.701,-6.14 0.906,-8.943 1.427,-2.488 3.42,-2.32 5.48,-3.644 1.604,-1.03 2.572,-4.227 5.231,-2.878 2.049,1.039 2.092,4.444 0,5.488 -1.809,0.902 -2.901,-0.816 -4.454,-0.521 -2.773,0.529 -1.16,6.051 -0.07,7.328 1.711,2.005 5.261,-0.487 9.947,-0.879 2.324,-0.194 4.07,1.314 6.197,1.818 4.494,1.066 11.7718,-0.875 12.9768,-5.937 0.196,-0.824 0.585,-2.143 -0.085,-2.833 -0.601,-0.62 -1.482,-0.387 -2.239,-0.54 -1.558,-0.314 -2.7308,-1.846 -2.4538,-3.434 0.4758,-2.723 4.1168,-3.613 5.6708,-1.361 1.107,1.605 -0.344,3.063 0.045,4.666 0.317,1.309 2.232,1.659 3.234,7.389 0.859,4.917 -0.42,9.722 -3.221,13.805 -1.567,2.293 -4.315,4.29 -4.764,7.2 z" />
          <path
             id="shape11"
             transform="translate(1923.667,878.78421)"
             fill="#e6180a"
             stroke="#000000"
             stroke-opacity="0"
             stroke-width="0"
             stroke-linecap="square"
             stroke-linejoin="bevel"
             d="m 20.03,1.46978 c 0.112,1.262 0.645,4.566 -0.453,5.471 -0.959,0.79 -3.02,0.426 -4.195,0.58 -3.593,0.471 -7.39301,0.661 -11.02101,0.756 -1.104,0.028 -2.768,0.59 -3.812002,0.074 -1.451,-0.717 0.325,-3.416 1.293002,-3.755 3.544,-1.242 7.601,-1.354 11.23301,-2.521 2.786,-0.895 6.671,-3.817 6.955,-0.605 z" />
          <path
             id="shape12"
             transform="translate(1936.6877,888.49337)"
             fill="#ffffff"
             stroke="#000000"
             stroke-opacity="0"
             stroke-width="0"
             stroke-linecap="square"
             stroke-linejoin="bevel"
             d="m 2.85135,16.4526 c -0.176,1.589 -1.333,2.94 -1.635,4.473 -0.969004,-0.584 -0.786004,-2.817 -0.912004,-3.889 -0.478,-4.053 -0.2499994,-8.16697 -0.2499994,-12.24997 0,-0.972 -0.2160006,-4.188999 0.8329994,-4.665999 2.083004,-0.947 1.073004,3.964999 1.186004,4.859999 0.292,2.334 -0.054,4.674 0.112,6.99997 0.102,1.44 0.824,3.041 0.666,4.472 z" />
          <path
             id="shape13"
             transform="translate(1939.453,873.642)"
             fill="#ffffff"
             stroke="#000000"
             stroke-opacity="0"
             stroke-width="0"
             stroke-linecap="square"
             stroke-linejoin="bevel"
             d="M 2.518,0 C 3.668,2.164 2.13,3.804 0,4.083 0.165,2.474 1.162,0.879 2.518,0 Z" />
          <path
             id="shape14"
             transform="translate(1875.7585,807.95149)"
             fill="#e6180a"
             stroke="#000000"
             stroke-opacity="0"
             stroke-width="0"
             stroke-linecap="square"
             stroke-linejoin="bevel"
             d="M 0.724534,23.3045 C 1.49953,17.8995 3.13053,12.6125 4.59553,7.36151 c 0.808,-2.895 1.569,-6.740996 5.064,-7.3239965 C 12.6845,-0.467486 11.5845,4.25951 11.3695,6.19451 c -0.34,3.058 -0.55,6.06999 -0.759,9.13899 -0.072,1.06 -0.556,2.266 -0.467,3.306 0.15,1.748 1.554,1.622 2.109,2.782 0.709,1.48 -0.974,10.624 -3.58097,11.349 -0.896,0.249 -1.852,-0.196 -2.694,-0.438 -2.134,-0.61 -5.607996,-1.033 -5.9409956,-3.777 -0.1970004,-1.626 0.4559996,-3.632 0.6879996,-5.251 z" />
        </g>
      </g>
    </g>
    <path
       id="path70"
       transform="translate(-138.79248,173.31881)"
       fill="#e6180a"
       stroke="#000000"
       stroke-opacity="0"
       stroke-width="0"
       stroke-linecap="square"
       stroke-linejoin="bevel"
       d="m 0.519477,2.28719 c -1.870007,4.103 1.907993,9.44401 1.933993,13.38301 2.992,-2.547 9.47803,-3.157 11.36903,-7.25001 0.892,-1.929 0.11,-4.192 -1.721,-5.031 -1.841,-0.843 -4.05203,0.03 -4.93103,1.965 0.883,-1.943 0.109,-4.188 -1.721,-5.030998 -1.838,-0.848 -4.049,0.03 -4.929993,1.963998 z" />
    <path
       id="path67"
       transform="translate(-129.047,193.567)"
       fill="#e6180a"
       stroke="#000000"
       stroke-opacity="0"
       stroke-width="0"
       stroke-linecap="square"
       stroke-linejoin="bevel"
       d="M 7.052,7.483 C 4.701,8.104 2.351,8.724 0,9.345 0.794,9.096 1.344,8.382 1.879,7.771 3.047,6.265 4.114,4.631 4.777,2.83 5.103,1.946 5.4,0.95 5.176,0 Z M 0.001,9.346 c 1.027,-0.236 2.073,0.18 2.995,0.608 1.687,0.785 3.21,1.914 4.595,3.173 0.526,0.533 1.127,1.087 1.338,1.84 C 8.303,12.473 7.678,9.979 7.053,7.484 Z m 8.927,5.621 C 8.683,13.844 9.084,12.696 9.511,11.678 10.236,9.948 11.27,8.354 12.457,6.918 12.931,6.408 13.422,5.82 14.103,5.621 11.752,6.242 9.402,6.863 7.051,7.483 Z M 14.104,5.621 C 13.077,5.857 12.03,5.442 11.109,5.014 9.422,4.23 7.899,3.099 6.514,1.841 5.988,1.308 5.388,0.753 5.177,0 5.802,2.495 6.427,4.988 7.052,7.483 Z" />
    <path
       id="shape15"
       transform="translate(-107.61886,195.8539)"
       fill="#000000"
       stroke="#000000"
       stroke-opacity="0"
       stroke-width="0"
       stroke-linecap="square"
       stroke-linejoin="bevel"
       d="m 11.9739,7.66709 c -1.475,-0.819 -2.29004,-0.189 -3.67704,-0.122 1.99004,-1.771 3.21004,-0.97 4.21404,-2.788 2.009,-3.639 -3.63404,-6.778 -5.64304,-3.141 -0.996,1.803 0.332,2.521 -0.086,5.126 -0.197,-0.341 -0.366,-0.713 -0.486,-1.116 -0.777,-2.729 -4.527,-3.272 -5.900003,-0.786 -1.379,2.496 1.071003,5.38201 3.863003,4.571 0.558,-0.162 1.116,-0.199 1.638,-0.182 -0.583,0.88601 -2.881,4.03801 -5.293003,2.70501 l 6.569003,3.656 c -1.962,-1.094 -1.474,-3.839 -0.549,-5.89701 0.938,1.43801 0.719,2.58501 2.314,3.47201 3.73304,2.078 6.76804,-3.41901 3.03604,-5.49801 z" />
    <path
       id="shape16"
       transform="translate(-129.38471,150.529)"
       fill="#000000"
       stroke="#000000"
       stroke-opacity="0"
       stroke-width="0"
       stroke-linecap="square"
       stroke-linejoin="bevel"
       d="M 12.5077,6.244 C 11.5867,3.052 6.13971,2.116 4.01271,0 c -0.676,2.937 -4.792004,6.64 -3.882004,9.826 0.768,2.69 5.030004,2.608 6.096004,-0.104 0.307,2.012 0.466,5.313 -1.635,5.921 L 11.7977,13.558 C 9.72071,14.159 8.09871,11.366 7.24271,9.37 9.56471,11.166 13.2947,8.97 12.5077,6.244 Z M 6.31971,8.038 Z" />
  </g>
  <path
     id="path3128"
     fill="#fe3521"
     stroke="#000000"
     stroke-opacity="0"
     stroke-width="0"
     stroke-linecap="square"
     stroke-linejoin="bevel"
     d="m 345.58268,453.17355 v 9.06464 h -2.1482 c -0.0563,-2.39685 -0.2935,-4.1658 -0.71815,-5.28453 -0.42776,-1.12829 -1.07409,-1.68607 -1.92649,-1.68607 -1.0866,0 -1.84535,0.953 -2.27623,2.86219 -0.43089,1.90599 -0.64008,5.48531 -0.64008,10.73158 v 50.94556 h 3.70938 v 4.68213 h -13.46682 v -4.68213 h 3.21918 v -51.25153 c 0,-6.23751 0.68379,-10.78897 2.05453,-13.6639 1.36758,-2.86856 3.56262,-4.30921 6.5726,-4.30921 0.93358,0 1.86094,0.21673 2.78828,0.64703 0.93358,0.43664 1.87343,1.08686 2.832,1.94424 z" />
  <path
     id="path3130"
     fill="#fe3521"
     stroke="#000000"
     stroke-opacity="0"
     stroke-width="0"
     stroke-linecap="square"
     stroke-linejoin="bevel"
     d="m 311.81416,465.92269 c 4.22769,0 7.54053,2.64862 9.94165,7.93633 2.40111,5.2877 3.60323,12.58021 3.60323,21.87433 0,9.29412 -1.20524,16.58982 -3.60323,21.89347 -2.39798,5.30365 -5.71396,7.95546 -9.94165,7.95546 -4.24956,0 -7.57489,-2.64544 -9.976,-7.93635 -2.40424,-5.28451 -3.60324,-12.59294 -3.60324,-21.91258 0,-9.29412 1.20838,-16.5898 3.62198,-21.87433 2.4136,-5.29088 5.73268,-7.93633 9.95726,-7.93633 z m 0,4.68211 c -2.15757,0 -3.75935,2.06537 -4.79911,6.1929 -1.03974,4.13391 -1.56118,10.44473 -1.56118,18.93565 0,8.51643 0.52144,14.84001 1.56118,18.97391 1.03976,4.12754 2.64154,6.19289 4.79911,6.19289 2.13571,0 3.71874,-2.08448 4.76163,-6.25662 1.04287,-4.16579 1.56118,-10.47024 1.56118,-18.91335 0,-8.41762 -0.51831,-14.70933 -1.56118,-18.87512 -1.03977,-4.16577 -2.62592,-6.25026 -4.76163,-6.25026 z" />
  <path
     id="path3132"
     fill="#fe3521"
     stroke="#000000"
     stroke-opacity="0"
     stroke-width="0"
     stroke-linecap="square"
     stroke-linejoin="bevel"
     d="m 295.12504,467.01911 v 4.68213 h -3.21917 v 48.10888 h 3.21917 v 4.68211 h -12.87982 v -4.68211 h 3.21918 v -20.95961 l -10.65356,20.95961 h 2.68214 v 4.68211 h -9.36091 v -4.68211 h 3.35969 l 9.02055,-17.73088 -12.29906,-30.378 h -2.4573 v -4.68213 h 8.52096 l 11.19061,27.90788 v -23.22575 h -3.21916 v -4.68213 z" />
  <path
     id="path3134"
     fill="#fe3521"
     stroke="#000000"
     stroke-opacity="0"
     stroke-width="0"
     stroke-linecap="square"
     stroke-linejoin="bevel"
     d="m 265.1502,467.01911 v 4.68213 h -3.21918 v 48.10888 h 3.21918 v 4.68211 h -22.54045 v -13.54595 h 2.34179 v 8.26781 h 10.53804 v -18.4257 h -6.53827 v 7.27021 h -2.34179 v -19.82174 h 2.34179 v 7.2702 h 6.53827 v -23.20661 h -10.83155 v 8.26781 h -2.34179 v -13.54595 h 22.83396 z" />
  <path
     id="path3136"
     fill="#fe3521"
     stroke="#000000"
     stroke-opacity="0"
     stroke-width="0"
     stroke-linecap="square"
     stroke-linejoin="bevel"
     d="m 222.10196,495.0449 c -0.9773,-0.33147 -1.80785,-1.08367 -2.49478,-2.25978 -0.68691,-1.1761 -1.28018,-2.87492 -1.77975,-5.09965 l -3.64069,-15.98742 h -2.60406 v -4.68212 h 8.26805 l 4.03725,17.36113 c 0.79306,3.5857 1.46126,5.86779 2.00768,6.85266 0.5464,0.98487 1.29891,1.48208 2.26372,1.48208 h 1.04911 v -21.01695 h -3.21916 v -4.68212 h 12.87982 v 4.68212 h -3.21919 v 48.10889 h 3.21919 v 4.68212 h -14.35671 c -2.92878,0 -5.18626,-1.34504 -6.77556,-4.02873 -1.5893,-2.68369 -2.38549,-6.49251 -2.38549,-11.42323 0,-4.0096 0.56826,-7.17778 1.68921,-9.49811 1.12717,-2.32353 2.81013,-3.81836 5.06136,-4.49089 z m 7.10341,2.25342 h -2.2075 c -1.59243,0 -2.82264,0.97851 -3.70316,2.93228 -0.87114,1.94745 -1.31139,4.73631 -1.31139,8.36026 0,3.62394 0.43713,6.40327 1.31139,8.32837 0.87428,1.92514 2.11073,2.88769 3.70316,2.88769 h 2.2075 z" />
  <path
     id="path3116"
     fill="#fe3521"
     stroke="#000000"
     stroke-opacity="0"
     stroke-width="0"
     stroke-linecap="square"
     stroke-linejoin="bevel"
     d="m 14.242769,86.216528 v -9.04751 h 2.188707 c 0.05408,2.39549 0.295859,4.157909 0.728509,5.274531 0.439015,1.126168 1.094355,1.682889 1.969201,1.682889 1.1039,0 1.873763,-0.951197 2.31278,-2.853592 0.439013,-1.902394 0.655338,-5.478134 0.655338,-10.714492 V 19.70588 h -3.77934 v -4.670094 h 13.720785 v 4.673274 h -3.279881 v 51.157876 c 0,6.222551 -0.696697,10.765392 -2.09009,13.634891 -1.393393,2.866317 -3.62982,4.301067 -6.70292,4.301067 -0.944834,0 -1.892849,-0.216327 -2.840866,-0.645798 -0.948016,-0.429467 -1.908759,-1.081628 -2.882223,-1.940568 z" />
  <path
     id="path3118"
     fill="#fe3521"
     stroke="#000000"
     stroke-opacity="0"
     stroke-width="0"
     stroke-linecap="square"
     stroke-linejoin="bevel"
     d="m 48.644938,73.491479 c -4.307428,0 -7.682749,-2.640447 -10.129139,-7.918161 -2.446391,-5.277714 -3.671178,-12.556442 -3.671178,-21.836184 0,-9.27656 1.224787,-16.55847 3.671178,-21.852091 2.44639,-5.293621 5.821711,-7.94043 10.129139,-7.94043 4.329696,0 7.720922,2.640449 10.167314,7.921343 2.446391,5.277714 3.667995,12.569168 3.667995,21.871178 0,9.279742 -1.231148,16.55847 -3.690264,21.836184 -2.459115,5.277714 -5.840797,7.918161 -10.145045,7.918161 z m 0,-4.673275 c 2.198251,0 3.830238,-2.061458 4.889599,-6.181192 1.05936,-4.126096 1.590632,-10.424997 1.590632,-18.899878 0,-8.500334 -0.531272,-14.811956 -1.590632,-18.934873 -1.059361,-4.122916 -2.691348,-6.184373 -4.889599,-6.184373 -2.175984,0 -3.792065,2.080545 -4.851424,6.244817 -1.059362,4.16109 -1.590633,10.450447 -1.590633,18.877609 0,8.401713 0.531271,14.681525 1.590633,18.842617 1.059359,4.161091 2.67544,6.235273 4.851424,6.235273 z" />
  <path
     id="path3120"
     fill="#fe3521"
     stroke="#000000"
     stroke-opacity="0"
     stroke-width="0"
     stroke-linecap="square"
     stroke-linejoin="bevel"
     d="M 65.651964,72.397125 V 67.72385 h 3.279883 V 19.70588 H 65.651964 V 15.035786 H 78.774672 V 19.70906 H 75.49479 V 40.62904 L 86.349258,19.70906 h -2.729525 v -4.673274 h 9.534244 V 19.70906 H 89.73412 l -9.190666,17.697361 12.530992,30.320611 h 2.500472 v 4.673274 H 86.896434 L 75.49161,44.545174 v 23.181858 h 3.279881 v 4.673274 H 65.651964 Z" />
  <path
     id="path3122"
     fill="#fe3521"
     stroke="#000000"
     stroke-opacity="0"
     stroke-width="0"
     stroke-linecap="square"
     stroke-linejoin="bevel"
     d="M 96.188902,72.397125 V 67.72385 h 3.279881 V 19.70588 H 96.188902 V 15.035786 H 119.15443 V 28.55615 h -2.38594 v -8.252193 h -10.73676 v 18.390876 h 6.66156 v -7.25646 h 2.38595 v 19.78427 h -2.38595 v -7.256459 h -6.66156 v 23.162771 h 11.03579 v -8.252196 h 2.38595 v 13.520366 z" />
  <path
     id="path3124"
     fill="#fe3521"
     stroke="#000000"
     stroke-opacity="0"
     stroke-width="0"
     stroke-linecap="square"
     stroke-linejoin="bevel"
     d="m 140.04896,44.424286 c 0.99573,0.330852 1.84195,1.081629 2.54183,2.255514 0.69988,1.173888 1.3043,2.8695 1.81332,5.093201 l 3.71253,15.954031 h 2.65318 v 4.673274 h -8.42717 l -4.11339,-17.328335 c -0.80484,-3.578921 -1.48563,-5.859886 -2.04235,-6.839714 -0.55673,-0.989372 -1.3266,-1.479286 -2.30959,-1.479286 h -1.06891 v 20.977242 h 3.27987 v 4.673274 H 122.96559 V 67.72385 h 3.27988 V 19.70588 h -3.27988 v -4.670094 h 14.63061 c 2.98403,0 5.28408,1.342492 6.90334,4.021115 1.61926,2.678623 2.4305,6.480231 2.4305,11.404826 0,4.002027 -0.57583,7.161021 -1.72107,9.48016 -1.14525,2.319142 -2.86632,3.814334 -5.16001,4.482399 z m -7.23736,-2.249154 h 2.24915 c 1.62562,0 2.88221,-0.976645 3.77297,-2.923579 0.89075,-1.946931 1.33612,-4.730535 1.33612,-8.347631 0,-3.617096 -0.44537,-6.387976 -1.33612,-8.309456 -0.89076,-1.921484 -2.14735,-2.885406 -3.77297,-2.885406 h -2.24915 z" />
</svg>
