<?xml version="1.0" standalone="no"?>
<!DOCTYPE svg PUBLIC "-//W3C//DTD SVG 20010904//EN"
 "http://www.w3.org/TR/2001/REC-SVG-20010904/DTD/svg10.dtd">
<svg version="1.0" xmlns="http://www.w3.org/2000/svg"
 width="700.000000pt" height="700.000000pt" viewBox="0 0 700.000000 700.000000"
 preserveAspectRatio="xMidYMid meet">
<metadata>
Created by potrace 1.14, written by Peter Selinger 2001-2017
</metadata>
<g transform="translate(0.000000,700.000000) scale(0.100000,-0.100000)"
fill="#000000" stroke="none">
<path d="M0 3500 l0 -3500 660 0 660 0 0 2623 c0 1850 3 2649 11 2712 16 127
51 243 114 370 62 127 114 199 222 308 173 174 411 292 657 326 53 8 795 11
2377 11 l2299 0 0 325 0 325 -3500 0 -3500 0 0 -3500z"/>
<path d="M2711 3572 c-343 -928 -626 -1693 -629 -1700 -3 -10 86 -12 438 -10
l442 3 107 307 106 308 686 0 687 0 40 -112 c21 -62 70 -202 107 -310 l68
-198 438 0 c242 0 439 3 439 8 0 4 -282 769 -627 1700 l-626 1692 -526 0 -526
0 -624 -1688z m1394 188 l222 -645 -460 -3 c-253 -1 -462 0 -465 2 -3 4 414
1225 454 1330 7 18 9 17 17 -10 6 -16 110 -319 232 -674z"/>
<path d="M3809 1028 c-122 -209 -385 -570 -693 -953 l-56 -70 401 -3 c220 -1
578 -1 794 0 l394 3 -50 60 c-173 206 -553 738 -678 948 -29 48 -56 87 -61 87
-4 0 -27 -33 -51 -72z"/>
</g>
</svg>
