<?xml version="1.0" standalone="no"?>
<!DOCTYPE svg PUBLIC "-//W3C//DTD SVG 20010904//EN" "http://www.w3.org/TR/2001/REC-SVG-20010904/DTD/svg10.dtd">
<!-- Created using Krita: https://krita.org -->
<svg xmlns="http://www.w3.org/2000/svg" 
    xmlns:xlink="http://www.w3.org/1999/xlink"
    xmlns:krita="http://krita.org/namespaces/svg/krita"
    xmlns:sodipodi="http://sodipodi.sourceforge.net/DTD/sodipodi-0.dtd"
    width="259.2pt"
    height="388.8pt"
    viewBox="0 0 259.2 388.8">
<defs/>
<rect id="rect6472-17" transform="matrix(0.72 0 0 0.72 0.360000000000028 0.3599999999999)" fill="#ffffff" stroke="#000000" stroke-width="0.99999976" stroke-linecap="butt" stroke-linejoin="miter" stroke-miterlimit="2" width="359" height="539" rx="29.944447" ry="29.944447"/><path id="rect3163-52-9-8-1-38-3" transform="matrix(1.44 0 0 1.4331414922462 18.0000000000001 21.599928)" fill="#ff5555" stroke="#000000" stroke-opacity="0" stroke-width="0" stroke-linecap="square" stroke-linejoin="bevel" d="M10 0C4.46 0 0 4.46 0 10L0 15L5 15L5 10C5 7.23 7.23 5 10 5C12.77 5 15 7.23 15 10L15 15C15 16.1275 14.6249 18.0654 14 18.9C9.53673 28.0041 4.72176 36.0286 0 45L0 50L10 50L20 50L20 45L20 40L15 40L15 45L10 45L5.5 45C9.98873 37.0846 13.7183 29.4282 18 21.4C19.2501 19.7307 20 17.2552 20 15L20 10C20 4.46 15.54 0 10 0Z"/><path id="rect3163-52-9-8-1-38-8-0" transform="matrix(1.44 0 0 1.43314258416333 212.4 295.54282786613)" fill="#ff5555" stroke="#000000" stroke-opacity="0" stroke-width="0" stroke-linecap="square" stroke-linejoin="bevel" d="M10 50C15.54 50 20 45.54 20 40L20 35L15 35L15 40C15 42.77 12.77 45 10 45C7.23 45 5 42.77 5 40L5 35C5 33.8725 5.37508 31.9346 6 31.1C10.4633 21.9959 15.2782 13.9714 20 5L20 0L10 0L0 0L0 5L0 10L5 10L5 5L10 5L14.5 5C10.0113 12.9155 6.28169 20.5719 2 28.6C0.74988 30.2693 0 32.7448 0 35L0 40C0 45.54 4.46 50 10 50Z"/><path id="path3204-24-04" transform="matrix(0.72 0 0 0.72 108 32.3999999999999)" fill="#ff5555" stroke="#000000" stroke-opacity="0" stroke-width="0" stroke-linecap="square" stroke-linejoin="bevel" d="M30 0C30 0 36 15 43 25C50 35 60 45 60 45C60 45 50 55 43 65C36 75 30 90 30 90C30 90 24 75 17 65C10 55 0 45 0 45C0 45 10 35 17 25C24 15 30 0 30 0"/><path id="path3204-24-1-83" transform="matrix(0.72 0 0 0.72 108 291.6)" fill="#ff5555" stroke="#000000" stroke-opacity="0" stroke-width="0" stroke-linecap="square" stroke-linejoin="bevel" d="M30 0C30 0 36 15 43 25C50 35 60 45 60 45C60 45 50 55 43 65C36 75 30 90 30 90C30 90 24 75 17 65C10 55 0 45 0 45C0 45 10 35 17 25C24 15 30 0 30 0"/><path id="path3204-24-1-7-0" transform="matrix(1.44 0 0 1.4331414922462 10.8 107.588560848921)" fill="#ff5555" stroke="#000000" stroke-opacity="0" stroke-width="0" stroke-linecap="square" stroke-linejoin="bevel" d="M15 0C15 0 18 7.5 21.5 12.5C25 17.5 30 22.5 30 22.5C30 22.5 25 27.5 21.5 32.5C18 37.5 15 45 15 45C15 45 12 37.5 8.5 32.5C5 27.5 0 22.5 0 22.5C0 22.5 5 17.5 8.5 12.5C12 7.5 15 0 15 0"/><path id="path3204-24-1-4-1" transform="matrix(1.44 0 0 1.43314258416333 205.2 216.7200144)" fill="#ff5555" stroke="#000000" stroke-opacity="0" stroke-width="0" stroke-linecap="square" stroke-linejoin="bevel" d="M15 0C15 0 18 7.5 21.5 12.5C25 17.5 30 22.5 30 22.5C30 22.5 25 27.5 21.5 32.5C18 37.5 15 45 15 45C15 45 12 37.5 8.5 32.5C5 27.5 0 22.5 0 22.5C0 22.5 5 17.5 8.5 12.5C12 7.5 15 0 15 0"/>
</svg>
