<?xml version="1.0" standalone="no"?>
<!DOCTYPE svg PUBLIC "-//W3C//DTD SVG 20010904//EN" "http://www.w3.org/TR/2001/REC-SVG-20010904/DTD/svg10.dtd">
<!-- Created using Krita: https://krita.org -->
<svg xmlns="http://www.w3.org/2000/svg" 
    xmlns:xlink="http://www.w3.org/1999/xlink"
    xmlns:krita="http://krita.org/namespaces/svg/krita"
    xmlns:sodipodi="http://sodipodi.sourceforge.net/DTD/sodipodi-0.dtd"
    width="259.2pt"
    height="388.8pt"
    viewBox="0 0 259.2 388.8">
<defs/>
<rect id="rect6472-65" transform="matrix(0.72 0 0 0.72 0.360000000000028 0.3599999999999)" fill="#ffffff" stroke="#000000" stroke-width="0.99999976" stroke-linecap="butt" stroke-linejoin="miter" stroke-miterlimit="2" width="359" height="539" rx="29.944447" ry="29.944447"/><path id="rect3163-7-1-7-3-0-78-0" transform="matrix(1.44 0 0 1.4331414922462 18.0000000000001 21.599928)" fill="#ff5555" stroke="#000000" stroke-opacity="0" stroke-width="0" stroke-linecap="square" stroke-linejoin="bevel" d="M10 50C15.54 50 20 45.54 20 40L20 20L20 10C20 4.46 15.54 0 10 0C4.46 0 0 4.46 0 10L0 20C0 25.54 4.46 30 10 30C11.8226 30 13.5315 29.5014 15 28.6562L15 40C15 42.77 12.77 45 10 45C7.23 45 5 42.77 5 40L5 39L0 39L0 40C0 45.54 4.46 50 10 50ZM10 25C7.23 25 5 22.77 5 20L5 10C5 7.23 7.23 5 10 5C12.77 5 15 7.23 15 10L15 20C15 22.77 12.77 25 10 25Z"/><path id="rect3163-7-1-7-3-0-78-1-2" transform="matrix(1.44 0 0 1.43314394906205 212.4 295.542716284018)" fill="#ff5555" stroke="#000000" stroke-opacity="0" stroke-width="0" stroke-linecap="square" stroke-linejoin="bevel" d="M10 0C4.46 0 0 4.46 0 10L0 30L0 40C0 45.54 4.46 50 10 50C15.54 50 20 45.54 20 40L20 30C20 24.46 15.54 20 10 20C8.1774 20 6.4685 20.4986 5 21.3438L5 10C5 7.23 7.23 5 10 5C12.77 5 15 7.23 15 10L15 11L20 11L20 10C20 4.46 15.54 0 10 0ZM10 25C12.77 25 15 27.23 15 30L15 40C15 42.77 12.77 45 10 45C7.23 45 5 42.77 5 40L5 30C5 27.23 7.23 25 10 25Z"/><path id="path3126-86" transform="matrix(0.72 0 0 0.72 63.2 32.3999999999999)" fill="#ff5555" stroke="#000000" stroke-opacity="0" stroke-width="0" stroke-linecap="square" stroke-linejoin="bevel" d="M29 18C29 6.95431 23.2843 0 15 0C6.71573 0 0 8.95431 0 20C0.0349 20.9556 0.0182 21.8912 0 22.8125C0 30.111 2.67685 37.1893 5 43.8125C7.38903 50.6235 10.8336 56.5932 14.0625 62.6875C19.0637 72.1269 30 90 30 90C30 90 40.9363 72.1269 45.9375 62.6875C49.1664 56.5932 52.611 50.6235 55 43.8125C57.3231 37.1893 60 30.111 60 22.8125C59.9716 21.8381 59.9814 20.8979 60 20C60 8.95431 53.2843 0 45 0C36.7157 0 31 6.95431 31 18C31 20 29 20 29 18Z"/><path id="path3126-17" transform="matrix(0.72 0 0 0.72 152.8 32.3999999999999)" fill="#ff5555" stroke="#000000" stroke-opacity="0" stroke-width="0" stroke-linecap="square" stroke-linejoin="bevel" d="M29 18C29 6.95431 23.2843 0 15 0C6.71573 0 0 8.95431 0 20C0.0349 20.9556 0.0182 21.8912 0 22.8125C0 30.111 2.67685 37.1893 5 43.8125C7.38903 50.6235 10.8336 56.5932 14.0625 62.6875C19.0637 72.1269 30 90 30 90C30 90 40.9363 72.1269 45.9375 62.6875C49.1664 56.5932 52.611 50.6235 55 43.8125C57.3231 37.1893 60 30.111 60 22.8125C59.9716 21.8381 59.9814 20.8979 60 20C60 8.95431 53.2843 0 45 0C36.7157 0 31 6.95431 31 18C31 20 29 20 29 18Z"/><path id="path3126-40" transform="matrix(0.72 0 0 0.72 63.2 118.8)" fill="#ff5555" stroke="#000000" stroke-opacity="0" stroke-width="0" stroke-linecap="square" stroke-linejoin="bevel" d="M29 18C29 6.95431 23.2843 0 15 0C6.71573 0 0 8.95431 0 20C0.0349 20.9556 0.0182 21.8912 0 22.8125C0 30.111 2.67685 37.1893 5 43.8125C7.38903 50.6235 10.8336 56.5932 14.0625 62.6875C19.0637 72.1269 30 90 30 90C30 90 40.9363 72.1269 45.9375 62.6875C49.1664 56.5932 52.611 50.6235 55 43.8125C57.3231 37.1893 60 30.111 60 22.8125C59.9716 21.8381 59.9814 20.8979 60 20C60 8.95431 53.2843 0 45 0C36.7157 0 31 6.95431 31 18C31 20 29 20 29 18Z"/><path id="path3126-94" transform="matrix(0.72 0 0 0.72 152.8 118.8)" fill="#ff5555" stroke="#000000" stroke-opacity="0" stroke-width="0" stroke-linecap="square" stroke-linejoin="bevel" d="M29 18C29 6.95431 23.2843 0 15 0C6.71573 0 0 8.95431 0 20C0.0349 20.9556 0.0182 21.8912 0 22.8125C0 30.111 2.67685 37.1893 5 43.8125C7.38903 50.6235 10.8336 56.5932 14.0625 62.6875C19.0637 72.1269 30 90 30 90C30 90 40.9363 72.1269 45.9375 62.6875C49.1664 56.5932 52.611 50.6235 55 43.8125C57.3231 37.1893 60 30.111 60 22.8125C59.9716 21.8381 59.9814 20.8979 60 20C60 8.95431 53.2843 0 45 0C36.7157 0 31 6.95431 31 18C31 20 29 20 29 18Z"/><path id="path3126-8" transform="matrix(0.72 0 0 0.72 108 162)" fill="#ff5555" stroke="#000000" stroke-opacity="0" stroke-width="0" stroke-linecap="square" stroke-linejoin="bevel" d="M29 18C29 6.95431 23.2843 0 15 0C6.71573 0 0 8.95431 0 20C0.0349 20.9556 0.0182 21.8912 0 22.8125C0 30.111 2.67685 37.1893 5 43.8125C7.38903 50.6235 10.8336 56.5932 14.0625 62.6875C19.0637 72.1269 30 90 30 90C30 90 40.9363 72.1269 45.9375 62.6875C49.1664 56.5932 52.611 50.6235 55 43.8125C57.3231 37.1893 60 30.111 60 22.8125C59.9716 21.8381 59.9814 20.8979 60 20C60 8.95431 53.2843 0 45 0C36.7157 0 31 6.95431 31 18C31 20 29 20 29 18Z"/><path id="path3126-82-0" transform="matrix(0.72 0 0 0.72 63.2 205.2)" fill="#ff5555" stroke="#000000" stroke-opacity="0" stroke-width="0" stroke-linecap="square" stroke-linejoin="bevel" d="M29 72C29 83.0457 23.2843 90 15 90C6.71573 90 0 81.0457 0 70C0.0349 69.0444 0.0182 68.1088 0 67.1875C0 59.889 2.67685 52.8107 5 46.1875C7.38903 39.3765 10.8336 33.4068 14.0625 27.3125C19.0637 17.8731 30 0 30 0C30 0 40.9363 17.8731 45.9375 27.3125C49.1664 33.4068 52.611 39.3765 55 46.1875C57.3231 52.8107 60 59.889 60 67.1875C59.9716 68.1619 59.9814 69.1021 60 70C60 81.0457 53.2843 90 45 90C36.7157 90 31 83.0457 31 72C31 70 29 70 29 72Z"/><path id="path3126-4" transform="matrix(0.72 0 0 0.72 152.8 205.2)" fill="#ff5555" stroke="#000000" stroke-opacity="0" stroke-width="0" stroke-linecap="square" stroke-linejoin="bevel" d="M29 72C29 83.0457 23.2843 90 15 90C6.71573 90 0 81.0457 0 70C0.0349 69.0444 0.0182 68.1088 0 67.1875C0 59.889 2.67685 52.8107 5 46.1875C7.38903 39.3765 10.8336 33.4068 14.0625 27.3125C19.0637 17.8731 30 0 30 0C30 0 40.9363 17.8731 45.9375 27.3125C49.1664 33.4068 52.611 39.3765 55 46.1875C57.3231 52.8107 60 59.889 60 67.1875C59.9716 68.1619 59.9814 69.1021 60 70C60 81.0457 53.2843 90 45 90C36.7157 90 31 83.0457 31 72C31 70 29 70 29 72Z"/><path id="path3126-55" transform="matrix(0.72 0 0 0.72 63.2 291.6)" fill="#ff5555" stroke="#000000" stroke-opacity="0" stroke-width="0" stroke-linecap="square" stroke-linejoin="bevel" d="M29 72C29 83.0457 23.2843 90 15 90C6.71573 90 0 81.0457 0 70C0.0349 69.0444 0.0182 68.1088 0 67.1875C0 59.889 2.67685 52.8107 5 46.1875C7.38903 39.3766 10.8336 33.4069 14.0625 27.3125C19.0637 17.8731 30 0 30 0C30 0 40.9363 17.8731 45.9375 27.3125C49.1664 33.4068 52.611 39.3766 55 46.1875C57.3231 52.8107 60 59.889 60 67.1875C59.9716 68.1619 59.9814 69.1021 60 70C60 81.0457 53.2843 90 45 90C36.7157 90 31 83.0457 31 72C31 70 29 70 29 72Z"/><path id="path3126-1-2" transform="matrix(0.72 0 0 0.72 152.8 291.6)" fill="#ff5555" stroke="#000000" stroke-opacity="0" stroke-width="0" stroke-linecap="square" stroke-linejoin="bevel" d="M29 72C29 83.0457 23.2843 90 15 90C6.71573 90 0 81.0457 0 70C0.0349 69.0444 0.0182 68.1088 0 67.1875C0 59.889 2.67685 52.8107 5 46.1875C7.38903 39.3766 10.8336 33.4069 14.0625 27.3125C19.0637 17.8731 30 0 30 0C30 0 40.9363 17.8731 45.9375 27.3125C49.1664 33.4068 52.611 39.3766 55 46.1875C57.3231 52.8107 60 59.889 60 67.1875C59.9716 68.1619 59.9814 69.1021 60 70C60 81.0457 53.2843 90 45 90C36.7157 90 31 83.0457 31 72C31 70 29 70 29 72Z"/><path id="path3126-1-7-4" transform="matrix(1.44 0 0 1.4331414922462 10.8 107.588560848921)" fill="#ff5555" stroke="#000000" stroke-opacity="0" stroke-width="0" stroke-linecap="square" stroke-linejoin="bevel" d="M14.5 9C14.5 3.47715 11.6421 0 7.5 0C3.35787 0 0 4.47715 0 10C0.01745 10.4778 0.0091 10.9456 0 11.4063C0 15.0555 1.33843 18.5947 2.5 21.9063C3.69451 25.3117 5.41679 28.2966 7.03125 31.3438C9.53186 36.0634 15 45 15 45C15 45 20.4681 36.0634 22.9688 31.3438C24.5832 28.2966 26.3055 25.3117 27.5 21.9063C28.6616 18.5947 30 15.0555 30 11.4063C29.9858 10.919 29.9907 10.4489 30 10C30 4.47715 26.6421 0 22.5 0C18.3579 0 15.5 3.47715 15.5 9C15.5 10 14.5 10 14.5 9Z"/><path id="path3126-1-1" transform="matrix(1.44 0 0 1.43314394906205 205.2 216.7199424)" fill="#ff5555" stroke="#000000" stroke-opacity="0" stroke-width="0" stroke-linecap="square" stroke-linejoin="bevel" d="M14.5 36C14.5 41.5228 11.6421 45 7.5 45C3.35786 45 0 40.5228 0 35C0.0174 34.5222 0.009 34.0544 0 33.5938C0 29.9445 1.33842 26.4053 2.5 23.0938C3.69452 19.6883 5.41678 16.7034 7.03125 13.6563C9.53186 8.93655 15 0 15 0C15 0 20.4681 8.93655 22.9688 13.6563C24.5832 16.7034 26.3055 19.6883 27.5 23.0938C28.6616 26.4053 30 29.9445 30 33.5938C29.9858 34.081 29.991 34.5511 30 35C30 40.5228 26.6421 45 22.5 45C18.3579 45 15.5 41.5228 15.5 36C15.5 35 14.5 35 14.5 36Z"/>
</svg>
