<?xml version="1.0" standalone="no"?>
<!DOCTYPE svg PUBLIC "-//W3C//DTD SVG 20010904//EN" "http://www.w3.org/TR/2001/REC-SVG-20010904/DTD/svg10.dtd">
<!-- Created using Krita: https://krita.org -->
<svg xmlns="http://www.w3.org/2000/svg" 
    xmlns:xlink="http://www.w3.org/1999/xlink"
    xmlns:krita="http://krita.org/namespaces/svg/krita"
    xmlns:sodipodi="http://sodipodi.sourceforge.net/DTD/sodipodi-0.dtd"
    width="259.2pt"
    height="388.8pt"
    viewBox="0 0 259.2 388.8">
<defs/>
<rect id="rect6472-82" transform="matrix(0.719999966091581 0 0 0.719999966091581 0.360006086561137 0.360009138318799)" fill="#a2402b" stroke="#a6a6a6" stroke-width="0.99999976" stroke-linecap="butt" stroke-linejoin="miter" stroke-miterlimit="2" width="359" height="539" rx="29.944447" ry="29.944447"/><path id="shape0" transform="matrix(0.999999961891732 0 0 0.999999961891732 -137.2 -136.206255897627)" fill="none" stroke="#a6a6a6" stroke-width="1.2816" stroke-linecap="square" stroke-linejoin="miter" stroke-miterlimit="2" d="M0 435.24L290.16 0"/><path id="shape01" transform="matrix(0.999999961891732 0 0 0.999999961891732 -124.72 -165.928193399643)" fill="none" stroke="#a6a6a6" stroke-width="1.2816" stroke-linecap="square" stroke-linejoin="miter" stroke-miterlimit="2" d="M0 430.236L286.824 0"/><path id="shape02" transform="matrix(0.999999961891732 0 0 0.999999961891732 -176.44 -197.768200478635)" fill="none" stroke="#a6a6a6" stroke-width="1.2816" stroke-linecap="square" stroke-linejoin="miter" stroke-miterlimit="2" d="M0 488.16L325.44 0"/><path id="shape03" transform="matrix(1.0000000240095 0 0 1.0000000240095 -130.860092789872 -173.372095576763)" fill="none" stroke="#a6a6a6" stroke-width="1.2816" stroke-linecap="square" stroke-linejoin="miter" stroke-miterlimit="2" d="M0 429.84L286.56 0"/><path id="shape04" transform="matrix(1.0000000240095 0 0 1.0000000240095 -160.860092789872 -146.372095576763)" fill="none" stroke="#a6a6a6" stroke-width="1.2816" stroke-linecap="square" stroke-linejoin="miter" stroke-miterlimit="2" d="M0 429.84L286.56 0"/><path id="shape05" transform="matrix(0.999999986945296 0 0 0.999999986945296 -128.661697432255 -125.675899003239)" fill="none" stroke="#a6a6a6" stroke-width="1.2816" stroke-linecap="square" stroke-linejoin="miter" stroke-miterlimit="2" d="M0 429.84L286.56 0"/><path id="shape06" transform="matrix(0.999999948837029 0 0 0.999999948837029 -102.781697770111 -85.9621554193168)" fill="none" stroke="#a6a6a6" stroke-width="1.2816" stroke-linecap="square" stroke-linejoin="miter" stroke-miterlimit="2" d="M0 435.24L290.16 0"/><path id="shape01" transform="matrix(0.999999948837029 0 0 0.999999948837029 -90.3016979330338 -115.684092533322)" fill="none" stroke="#a6a6a6" stroke-width="1.2816" stroke-linecap="square" stroke-linejoin="miter" stroke-miterlimit="2" d="M0 430.236L286.824 0"/><path id="shape02" transform="matrix(0.999999948837029 0 0 0.999999948837029 -142.021697257845 -147.524099196652)" fill="none" stroke="#a6a6a6" stroke-width="1.2816" stroke-linecap="square" stroke-linejoin="miter" stroke-miterlimit="2" d="M0 488.16L325.44 0"/><path id="shape03" transform="matrix(1.0000000109548 0 0 1.0000000109548 -96.4417906427484 -123.127994613264)" fill="none" stroke="#a6a6a6" stroke-width="1.2816" stroke-linecap="square" stroke-linejoin="miter" stroke-miterlimit="2" d="M0 429.84L286.56 0"/><path id="shape04" transform="matrix(1.0000000109548 0 0 1.0000000109548 -126.441790251107 -96.1279949657412)" fill="none" stroke="#a6a6a6" stroke-width="1.2816" stroke-linecap="square" stroke-linejoin="miter" stroke-miterlimit="2" d="M0 429.84L286.56 0"/><path id="shape07" transform="matrix(0.999999986945296 0 0 0.999999986945296 -94.2433949961021 -75.4318028811739)" fill="none" stroke="#a6a6a6" stroke-width="1.2816" stroke-linecap="square" stroke-linejoin="miter" stroke-miterlimit="2" d="M0 429.84L286.56 0"/><path id="shape08" transform="matrix(0.999999948837029 0 0 0.999999948837029 -68.3633953339578 -35.7180592972515)" fill="none" stroke="#a6a6a6" stroke-width="1.2816" stroke-linecap="square" stroke-linejoin="miter" stroke-miterlimit="2" d="M0 435.24L290.16 0"/><path id="shape011" transform="matrix(0.999999948837029 0 0 0.999999948837029 -55.8833954968805 -65.4399964112567)" fill="none" stroke="#a6a6a6" stroke-width="1.2816" stroke-linecap="square" stroke-linejoin="miter" stroke-miterlimit="2" d="M0 430.236L286.824 0"/><path id="shape021" transform="matrix(0.999999948837029 0 0 0.999999948837029 -107.603394821691 -97.2800030745865)" fill="none" stroke="#a6a6a6" stroke-width="1.2816" stroke-linecap="square" stroke-linejoin="miter" stroke-miterlimit="2" d="M0 488.16L325.44 0"/><path id="shape031" transform="matrix(1.0000000109548 0 0 1.0000000109548 -62.0234882065951 -72.8838984911989)" fill="none" stroke="#a6a6a6" stroke-width="1.2816" stroke-linecap="square" stroke-linejoin="miter" stroke-miterlimit="2" d="M0 429.84L286.56 0"/><path id="shape041" transform="matrix(1.0000000109548 0 0 1.0000000109548 -92.023487814954 -45.8838988436758)" fill="none" stroke="#a6a6a6" stroke-width="1.2816" stroke-linecap="square" stroke-linejoin="miter" stroke-miterlimit="2" d="M0 429.84L286.56 0"/><path id="shape09" transform="matrix(0.999999986945296 0 0 0.999999986945296 -59.8250925599488 -25.1877067591086)" fill="none" stroke="#a6a6a6" stroke-width="1.2816" stroke-linecap="square" stroke-linejoin="miter" stroke-miterlimit="2" d="M0 429.84L286.56 0"/><path id="shape010" transform="matrix(0.999999948837029 0 0 0.999999948837029 10.3545125298431 14.5260368248139)" fill="none" stroke="#a6a6a6" stroke-width="1.2816" stroke-linecap="square" stroke-linejoin="miter" stroke-miterlimit="2" d="M0 368.791L245.86 0"/><path id="shape012" transform="matrix(0.999999948837029 0 0 0.999999948837029 4.05176577254731 7.00243810756561)" fill="none" stroke="#a6a6a6" stroke-width="1.2816" stroke-linecap="square" stroke-linejoin="miter" stroke-miterlimit="2" d="M0 369.762L246.508 0"/><path id="shape022" transform="matrix(0.999999948837029 0 0 0.999999948837029 -73.185092385538 -47.0359069525212)" fill="none" stroke="#a6a6a6" stroke-width="1.2816" stroke-linecap="square" stroke-linejoin="miter" stroke-miterlimit="2" d="M0 488.16L325.44 0"/><path id="shape032" transform="matrix(1.0000000109548 0 0 1.0000000109548 -27.6051857704418 1.5192942879516)" fill="none" stroke="#a6a6a6" stroke-width="1.2816" stroke-linecap="square" stroke-linejoin="miter" stroke-miterlimit="2" d="M0 405.681L270.454 0"/><path id="shape042" transform="matrix(1.0000000109548 0 0 1.0000000109548 -57.6051853788007 -39.9275760810021)" fill="none" stroke="#a6a6a6" stroke-width="1.2816" stroke-linecap="square" stroke-linejoin="miter" stroke-miterlimit="2" d="M0 474.128L316.085 0"/><path id="shape011" transform="matrix(0.999999986945296 0 0 0.999999986945296 -25.4067901237956 25.0563893629568)" fill="none" stroke="#a6a6a6" stroke-width="1.2816" stroke-linecap="square" stroke-linejoin="miter" stroke-miterlimit="2" d="M0 429.84L286.56 0"/><path id="shape012" transform="matrix(0.999999948837029 0 0 0.999999948837029 0.473209538348726 64.7701329468792)" fill="none" stroke="#a6a6a6" stroke-width="1.2816" stroke-linecap="square" stroke-linejoin="miter" stroke-miterlimit="2" d="M0 435.24L290.16 0"/><path id="shape013" transform="matrix(0.999999948837029 0 0 0.999999948837029 12.953209375426 35.0481958328739)" fill="none" stroke="#a6a6a6" stroke-width="1.2816" stroke-linecap="square" stroke-linejoin="miter" stroke-miterlimit="2" d="M0 430.236L286.824 0"/><path id="shape023" transform="matrix(0.999999948837029 0 0 0.999999948837029 -38.7667899493847 3.20818916954417)" fill="none" stroke="#a6a6a6" stroke-width="1.2816" stroke-linecap="square" stroke-linejoin="miter" stroke-miterlimit="2" d="M0 488.16L325.44 0"/><path id="shape033" transform="matrix(1.0000000109548 0 0 1.0000000109548 6.81311666571141 27.6042937529318)" fill="none" stroke="#a6a6a6" stroke-width="1.2816" stroke-linecap="square" stroke-linejoin="miter" stroke-miterlimit="2" d="M0 429.84L286.56 0"/><path id="shape043" transform="matrix(1.0000000109548 0 0 1.0000000109548 -23.1868829426474 54.6042934004549)" fill="none" stroke="#a6a6a6" stroke-width="1.2816" stroke-linecap="square" stroke-linejoin="miter" stroke-miterlimit="2" d="M0 429.84L286.56 0"/><path id="shape013" transform="matrix(0.999999986945296 0 0 0.999999986945296 9.01151231235774 75.3004854850222)" fill="none" stroke="#a6a6a6" stroke-width="1.2816" stroke-linecap="square" stroke-linejoin="miter" stroke-miterlimit="2" d="M0 429.84L286.56 0"/><path id="shape014" transform="matrix(0.999999948837029 0 0 0.999999948837029 34.891511974502 115.014229068945)" fill="none" stroke="#a6a6a6" stroke-width="1.2816" stroke-linecap="square" stroke-linejoin="miter" stroke-miterlimit="2" d="M0 435.24L290.16 0"/><path id="shape014" transform="matrix(0.999999948837029 0 0 0.999999948837029 46.3715118115792 85.2922919549393)" fill="none" stroke="#a6a6a6" stroke-width="1.2816" stroke-linecap="square" stroke-linejoin="miter" stroke-miterlimit="2" d="M0 430.236L286.824 0"/><path id="shape024" transform="matrix(0.999999948837029 0 0 0.999999948837029 -4.34848751323149 53.4522852916095)" fill="none" stroke="#a6a6a6" stroke-width="1.2816" stroke-linecap="square" stroke-linejoin="miter" stroke-miterlimit="2" d="M0 488.16L325.44 0"/><path id="shape034" transform="matrix(1.0000000109548 0 0 1.0000000109548 40.2314191018647 77.8483898749971)" fill="none" stroke="#a6a6a6" stroke-width="1.2816" stroke-linecap="square" stroke-linejoin="miter" stroke-miterlimit="2" d="M0 429.84L286.56 0"/><path id="shape044" transform="matrix(1.0000000109548 0 0 1.0000000109548 11.2314194935058 104.84838952252)" fill="none" stroke="#a6a6a6" stroke-width="1.2816" stroke-linecap="square" stroke-linejoin="miter" stroke-miterlimit="2" d="M0 429.84L286.56 0"/><path id="shape015" transform="matrix(0.999999986945296 0 0 0.999999986945296 41.4132178528513 125.544581607087)" fill="none" stroke="#a6a6a6" stroke-width="1.2816" stroke-linecap="square" stroke-linejoin="miter" stroke-miterlimit="2" d="M0 429.84L286.56 0"/><path id="shape016" transform="matrix(0.999999948837029 0 0 0.999999948837029 67.2932175149955 165.25832519101)" fill="none" stroke="#a6a6a6" stroke-width="1.2816" stroke-linecap="square" stroke-linejoin="miter" stroke-miterlimit="2" d="M0 435.24L290.16 0"/><path id="shape015" transform="matrix(0.999999948837029 0 0 0.999999948837029 79.7732173520728 135.536388077005)" fill="none" stroke="#a6a6a6" stroke-width="1.2816" stroke-linecap="square" stroke-linejoin="miter" stroke-miterlimit="2" d="M0 430.236L286.824 0"/><path id="shape025" transform="matrix(0.999999948837029 0 0 0.999999948837029 28.053218027262 103.696381413675)" fill="none" stroke="#a6a6a6" stroke-width="1.2816" stroke-linecap="square" stroke-linejoin="miter" stroke-miterlimit="2" d="M0 488.16L325.44 0"/><path id="shape035" transform="matrix(1.0000000109548 0 0 1.0000000109548 73.6331246423582 128.092485997063)" fill="none" stroke="#a6a6a6" stroke-width="1.2816" stroke-linecap="square" stroke-linejoin="miter" stroke-miterlimit="2" d="M0 429.84L286.56 0"/><path id="shape045" transform="matrix(1.0000000109548 0 0 1.0000000109548 43.6331250339993 155.092485644585)" fill="none" stroke="#a6a6a6" stroke-width="1.2816" stroke-linecap="square" stroke-linejoin="miter" stroke-miterlimit="2" d="M0 429.84L286.56 0"/><path id="shape017" transform="matrix(0.999999986945296 0 0 0.999999986945296 81.4132178528513 165.544581607087)" fill="none" stroke="#a6a6a6" stroke-width="1.2816" stroke-linecap="square" stroke-linejoin="miter" stroke-miterlimit="2" d="M0 429.84L286.56 0"/><path id="shape026" transform="matrix(0.999999948837029 0 0 0.999999948837029 68.0532180272621 143.696381413675)" fill="none" stroke="#a6a6a6" stroke-width="1.2816" stroke-linecap="square" stroke-linejoin="miter" stroke-miterlimit="2" d="M0 488.16L325.44 0"/><path id="shape046" transform="matrix(1.0000000109548 0 0 1.0000000109548 241.830519165799 361.412663739855)" fill="none" stroke="#a6a6a6" stroke-width="1.2816" stroke-linecap="square" stroke-linejoin="miter" stroke-miterlimit="2" d="M0 26.2237L17.4825 0"/><path id="shape047" transform="matrix(1.0000000109548 0 0 1.0000000109548 229.13990731274 77.6279089121935)" fill="none" stroke="#a6a6a6" stroke-width="1.2816" stroke-linecap="square" stroke-linejoin="miter" stroke-miterlimit="2" d="M0 429.84L286.56 0"/><path id="shape018" transform="matrix(0.379531495886268 -0.925178752346828 0.925178752346828 0.379531495886268 -303.659065615266 285.845790328502)" fill="none" stroke="#a6a6a6" stroke-width="1.2816" stroke-linecap="square" stroke-linejoin="miter" stroke-miterlimit="2" d="M0 435.24L290.16 0"/><path id="shape016" transform="matrix(0.379531495886268 -0.925178752346828 0.925178752346828 0.379531495886268 -326.420618469454 263.019147228551)" fill="none" stroke="#a6a6a6" stroke-width="1.2816" stroke-linecap="square" stroke-linejoin="miter" stroke-miterlimit="2" d="M0 430.236L286.824 0"/><path id="shape036" transform="matrix(0.379531519461902 -0.92517880981682 0.92517880981682 0.379531519461902 -335.63791755095 265.874635395483)" fill="none" stroke="#a6a6a6" stroke-width="1.2816" stroke-linecap="square" stroke-linejoin="miter" stroke-miterlimit="2" d="M0 429.84L286.56 0"/><path id="shape048" transform="matrix(0.379531519461902 -0.92517880981682 0.92517880981682 0.379531519461902 -13.1661621549189 378.359791248431)" fill="none" stroke="#a6a6a6" stroke-width="1.2816" stroke-linecap="square" stroke-linejoin="miter" stroke-miterlimit="2" d="M0 43.3253L28.8836 0"/><path id="shape05" transform="matrix(0.379531505394867 -0.925178775525807 0.925178775525807 0.379531505394867 -290.676047921324 281.942936167326)" fill="none" stroke="#a6a6a6" stroke-width="1.2816" stroke-linecap="square" stroke-linejoin="miter" stroke-miterlimit="2" d="M0 429.84L286.56 0"/><path id="shape06" transform="matrix(0.379531490931575 -0.925178740268843 0.925178740268843 0.379531490931575 -244.111459421525 273.071926540758)" fill="none" stroke="#a6a6a6" stroke-width="1.2816" stroke-linecap="square" stroke-linejoin="miter" stroke-miterlimit="2" d="M0 435.24L290.16 0"/><path id="shape017" transform="matrix(0.379531490931575 -0.925178740268843 0.925178740268843 0.379531490931575 -266.873011978569 250.245283738805)" fill="none" stroke="#a6a6a6" stroke-width="1.2816" stroke-linecap="square" stroke-linejoin="miter" stroke-miterlimit="2" d="M0 430.236L286.824 0"/><path id="shape027" transform="matrix(0.379531490931575 -0.925178740268843 0.925178740268843 0.379531490931575 -315.960080199666 286.011244190528)" fill="none" stroke="#a6a6a6" stroke-width="1.2816" stroke-linecap="square" stroke-linejoin="miter" stroke-miterlimit="2" d="M0 488.16L325.44 0"/><path id="shape037" transform="matrix(0.379531514507243 -0.925178797738925 0.925178797738925 0.379531514507243 -276.450310939735 253.10077186846)" fill="none" stroke="#a6a6a6" stroke-width="1.2816" stroke-linecap="square" stroke-linejoin="miter" stroke-miterlimit="2" d="M0 429.84L286.56 0"/><path id="shape049" transform="matrix(0.379531514507243 -0.925178797738925 0.925178797738925 0.379531514507243 -262.496429162383 291.103485779894)" fill="none" stroke="#a6a6a6" stroke-width="1.2816" stroke-linecap="square" stroke-linejoin="miter" stroke-miterlimit="2" d="M0 429.84L286.56 0"/><path id="shape07" transform="matrix(0.379531505394867 -0.925178775525807 0.925178775525807 0.379531505394867 -231.128445679603 269.169070535423)" fill="none" stroke="#a6a6a6" stroke-width="1.2816" stroke-linecap="square" stroke-linejoin="miter" stroke-miterlimit="2" d="M0 429.84L286.56 0"/><path id="shape08" transform="matrix(0.379531490931575 -0.925178740268843 0.925178740268843 0.379531490931575 -184.563857179805 260.298060908854)" fill="none" stroke="#a6a6a6" stroke-width="1.2816" stroke-linecap="square" stroke-linejoin="miter" stroke-miterlimit="2" d="M0 435.24L290.16 0"/><path id="shape011" transform="matrix(0.379531490931575 -0.925178740268843 0.925178740268843 0.379531490931575 -207.325409736848 237.471418106901)" fill="none" stroke="#a6a6a6" stroke-width="1.2816" stroke-linecap="square" stroke-linejoin="miter" stroke-miterlimit="2" d="M0 430.236L286.824 0"/><path id="shape021" transform="matrix(0.379531490931575 -0.925178740268843 0.925178740268843 0.379531490931575 -256.412477957945 273.237378558622)" fill="none" stroke="#a6a6a6" stroke-width="1.2816" stroke-linecap="square" stroke-linejoin="miter" stroke-miterlimit="2" d="M0 488.16L325.44 0"/><path id="shape031" transform="matrix(0.379531514507243 -0.925178797738925 0.925178797738925 0.379531514507243 -216.542708698014 240.326906236553)" fill="none" stroke="#a6a6a6" stroke-width="1.2816" stroke-linecap="square" stroke-linejoin="miter" stroke-miterlimit="2" d="M0 429.84L286.56 0"/><path id="shape041" transform="matrix(0.379531514507243 -0.925178797738925 0.925178797738925 0.379531514507243 -202.948826920663 278.329620147989)" fill="none" stroke="#a6a6a6" stroke-width="1.2816" stroke-linecap="square" stroke-linejoin="miter" stroke-miterlimit="2" d="M0 429.84L286.56 0"/><path id="shape09" transform="matrix(0.379531505394867 -0.925178775525807 0.925178775525807 0.379531505394867 -171.580843437885 256.395204903518)" fill="none" stroke="#a6a6a6" stroke-width="1.2816" stroke-linecap="square" stroke-linejoin="miter" stroke-miterlimit="2" d="M0 429.84L286.56 0"/><path id="shape010" transform="matrix(0.379531490931575 -0.925178740268843 0.925178740268843 0.379531490931575 -88.5192189499115 237.553677708247)" fill="none" stroke="#a6a6a6" stroke-width="1.2816" stroke-linecap="square" stroke-linejoin="miter" stroke-miterlimit="2" d="M0 370.643L247.096 0"/><path id="shape012" transform="matrix(0.379531490931575 -0.925178740268843 0.925178740268843 0.379531490931575 -90.9386741393513 245.668097646973)" fill="none" stroke="#a6a6a6" stroke-width="1.2816" stroke-linecap="square" stroke-linejoin="miter" stroke-miterlimit="2" d="M0 365.981L243.987 0"/><path id="shape022" transform="matrix(0.379531490931575 -0.925178740268843 0.925178740268843 0.379531490931575 -196.864875716227 260.463512926721)" fill="none" stroke="#a6a6a6" stroke-width="1.2816" stroke-linecap="square" stroke-linejoin="miter" stroke-miterlimit="2" d="M0 488.16L325.44 0"/><path id="shape032" transform="matrix(0.379531514507243 -0.925178797738925 0.925178797738925 0.379531514507243 -156.995106456293 227.55304060465)" fill="none" stroke="#a6a6a6" stroke-width="1.2816" stroke-linecap="square" stroke-linejoin="miter" stroke-miterlimit="2" d="M0 429.84L286.56 0"/><path id="shape042" transform="matrix(0.379531514507243 -0.925178797738925 0.925178797738925 0.379531514507243 -134.730103775805 244.418281327257)" fill="none" stroke="#a6a6a6" stroke-width="1.2816" stroke-linecap="square" stroke-linejoin="miter" stroke-miterlimit="2" d="M0 395.57L263.713 0"/><path id="shape0111" transform="matrix(0.379531505394867 -0.925178775525807 0.925178775525807 0.379531505394867 -89.5570900625228 252.841619395727)" fill="none" stroke="#a6a6a6" stroke-width="1.2816" stroke-linecap="square" stroke-linejoin="miter" stroke-miterlimit="2" d="M0 405.546L270.364 0"/><path id="shape0121" transform="matrix(0.379531490931575 -0.925178740268843 0.925178740268843 0.379531490931575 -65.4686526963658 234.750329645045)" fill="none" stroke="#a6a6a6" stroke-width="1.2816" stroke-linecap="square" stroke-linejoin="miter" stroke-miterlimit="2" d="M0 435.24L290.16 0"/><path id="shape013" transform="matrix(0.379531490931575 -0.925178740268843 0.925178740268843 0.379531490931575 -88.2302052534081 211.923686843091)" fill="none" stroke="#a6a6a6" stroke-width="1.2816" stroke-linecap="square" stroke-linejoin="miter" stroke-miterlimit="2" d="M0 430.236L286.824 0"/><path id="shape023" transform="matrix(0.379531490931575 -0.925178740268843 0.925178740268843 0.379531490931575 -137.317273474505 247.689647294813)" fill="none" stroke="#a6a6a6" stroke-width="1.2816" stroke-linecap="square" stroke-linejoin="miter" stroke-miterlimit="2" d="M0 488.16L325.44 0"/><path id="shape033" transform="matrix(0.379531514507243 -0.925178797738925 0.925178797738925 0.379531514507243 -97.4475042145739 214.779174972745)" fill="none" stroke="#a6a6a6" stroke-width="1.2816" stroke-linecap="square" stroke-linejoin="miter" stroke-miterlimit="2" d="M0 429.84L286.56 0"/><path id="shape043" transform="matrix(0.379531514507243 -0.925178797738925 0.925178797738925 0.379531514507243 -83.8536224372223 252.781888884181)" fill="none" stroke="#a6a6a6" stroke-width="1.2816" stroke-linecap="square" stroke-linejoin="miter" stroke-miterlimit="2" d="M0 429.84L286.56 0"/><path id="shape0131" transform="matrix(0.379531505394867 -0.925178775525807 0.925178775525807 0.379531505394867 -52.4856389544441 230.847473639709)" fill="none" stroke="#a6a6a6" stroke-width="1.2816" stroke-linecap="square" stroke-linejoin="miter" stroke-miterlimit="2" d="M0 429.84L286.56 0"/><path id="shape014" transform="matrix(0.379531490931575 -0.925178740268843 0.925178740268843 0.379531490931575 -5.92105045464424 221.976464013141)" fill="none" stroke="#a6a6a6" stroke-width="1.2816" stroke-linecap="square" stroke-linejoin="miter" stroke-miterlimit="2" d="M0 435.24L290.16 0"/><path id="shape0141" transform="matrix(0.379531490931575 -0.925178740268843 0.925178740268843 0.379531490931575 -28.6826030116869 199.149821211186)" fill="none" stroke="#a6a6a6" stroke-width="1.2816" stroke-linecap="square" stroke-linejoin="miter" stroke-miterlimit="2" d="M0 430.236L286.824 0"/><path id="shape024" transform="matrix(0.379531490931575 -0.925178740268843 0.925178740268843 0.379531490931575 -77.7696712327858 234.915781662909)" fill="none" stroke="#a6a6a6" stroke-width="1.2816" stroke-linecap="square" stroke-linejoin="miter" stroke-miterlimit="2" d="M0 488.16L325.44 0"/><path id="shape034" transform="matrix(0.379531514507243 -0.925178797738925 0.925178797738925 0.379531514507243 -37.8999019728532 202.00530934084)" fill="none" stroke="#a6a6a6" stroke-width="1.2816" stroke-linecap="square" stroke-linejoin="miter" stroke-miterlimit="2" d="M0 429.84L286.56 0"/><path id="shape044" transform="matrix(0.379531514507243 -0.925178797738925 0.925178797738925 0.379531514507243 -24.3060201955028 240.008023252277)" fill="none" stroke="#a6a6a6" stroke-width="1.2816" stroke-linecap="square" stroke-linejoin="miter" stroke-miterlimit="2" d="M0 429.84L286.56 0"/><path id="shape015" transform="matrix(0.379531505394867 -0.925178775525807 0.925178775525807 0.379531505394867 6.29660122169937 219.939320678816)" fill="none" stroke="#a6a6a6" stroke-width="1.2816" stroke-linecap="square" stroke-linejoin="miter" stroke-miterlimit="2" d="M0 429.84L286.56 0"/><path id="shape016" transform="matrix(0.379531490931575 -0.925178740268843 0.925178740268843 0.379531490931575 52.8611897214991 211.068311052249)" fill="none" stroke="#a6a6a6" stroke-width="1.2816" stroke-linecap="square" stroke-linejoin="miter" stroke-miterlimit="2" d="M0 435.24L290.16 0"/><path id="shape0151" transform="matrix(0.379531490931575 -0.925178740268843 0.925178740268843 0.379531490931575 30.0996371644574 188.241668250293)" fill="none" stroke="#a6a6a6" stroke-width="1.2816" stroke-linecap="square" stroke-linejoin="miter" stroke-miterlimit="2" d="M0 430.236L286.824 0"/><path id="shape025" transform="matrix(0.379531490931575 -0.925178740268843 0.925178740268843 0.379531490931575 -18.9874310566422 224.007628702016)" fill="none" stroke="#a6a6a6" stroke-width="1.2816" stroke-linecap="square" stroke-linejoin="miter" stroke-miterlimit="2" d="M0 488.16L325.44 0"/><path id="shape035" transform="matrix(0.379531514507243 -0.925178797738925 0.925178797738925 0.379531514507243 20.88233820329 191.097156379947)" fill="none" stroke="#a6a6a6" stroke-width="1.2816" stroke-linecap="square" stroke-linejoin="miter" stroke-miterlimit="2" d="M0 429.84L286.56 0"/><path id="shape045" transform="matrix(0.379531514507243 -0.925178797738925 0.925178797738925 0.379531514507243 34.4762199806404 229.099870291384)" fill="none" stroke="#a6a6a6" stroke-width="1.2816" stroke-linecap="square" stroke-linejoin="miter" stroke-miterlimit="2" d="M0 429.84L286.56 0"/><path id="shape017" transform="matrix(0.379531505394867 -0.925178775525807 0.925178775525807 0.379531505394867 45.9813034710172 179.939320678816)" fill="none" stroke="#a6a6a6" stroke-width="1.2816" stroke-linecap="square" stroke-linejoin="miter" stroke-miterlimit="2" d="M0 429.84L286.56 0"/><path id="shape026" transform="matrix(0.379531490931575 -0.925178740268843 0.925178740268843 0.379531490931575 21.012568943358 184.007628702016)" fill="none" stroke="#a6a6a6" stroke-width="1.2816" stroke-linecap="square" stroke-linejoin="miter" stroke-miterlimit="2" d="M0 488.16L325.44 0"/><path id="shape036" transform="matrix(0.379531514507243 -0.925178797738925 0.925178797738925 0.379531514507243 242.751851525599 14.3859571326044)" fill="none" stroke="#a6a6a6" stroke-width="1.2816" stroke-linecap="square" stroke-linejoin="miter" stroke-miterlimit="2" d="M0 17.7004L11.8003 0"/><path id="shape046" transform="matrix(0.379531514507243 -0.925178797738925 0.925178797738925 0.379531514507243 74.4762199806402 189.099870291385)" fill="none" stroke="#a6a6a6" stroke-width="1.2816" stroke-linecap="square" stroke-linejoin="miter" stroke-miterlimit="2" d="M0 429.84L286.56 0"/><rect id="rect6472-821" transform="matrix(0.719999935042458 0 0 0.719999935042458 0.360011659878751 0.360017506057508)" fill="none" stroke="#4c4c4c" stroke-width="0.99999976" stroke-linecap="butt" stroke-linejoin="miter" stroke-miterlimit="2" width="359.500016239387" height="539.50002435908" rx="29.9861537124776" ry="29.9722261334308"/><path id="shape0410" transform="matrix(0.379531524577565 -0.925178822287201 0.925178822287201 0.379531524577565 -3.1358683560921 378.564096569844)" fill="none" stroke="#a6a6a6" stroke-width="1.2816" stroke-linecap="square" stroke-linejoin="miter" stroke-miterlimit="2" d="M0 14.2419L9.4946 0"/>
</svg>
