<?xml version="1.0" standalone="no"?>
<!DOCTYPE svg PUBLIC "-//W3C//DTD SVG 20010904//EN" "http://www.w3.org/TR/2001/REC-SVG-20010904/DTD/svg10.dtd">
<!-- Created using Krita: https://krita.org -->
<svg xmlns="http://www.w3.org/2000/svg" 
    xmlns:xlink="http://www.w3.org/1999/xlink"
    xmlns:krita="http://krita.org/namespaces/svg/krita"
    xmlns:sodipodi="http://sodipodi.sourceforge.net/DTD/sodipodi-0.dtd"
    width="259.2pt"
    height="388.8pt"
    viewBox="0 0 259.2 388.8">
<defs/>
<rect id="rect6472-82" transform="matrix(0.719999966091581 0 0 0.719999966091581 0.360006086561137 0.360009138318799)" fill="#ffffff" stroke="#000000" stroke-width="0.99999976" stroke-linecap="butt" stroke-linejoin="miter" stroke-miterlimit="2" width="359" height="539" rx="29.944447" ry="29.944447"/><g id="g2465" transform="matrix(1.54600854614391 0 0 1.54600854614391 281.326807714066 -8.78801375177504)" fill="none">
  <g id="joker" transform="translate(-1094.1, -924.2)" fill="none">
   <path id="path576" transform="translate(1012.831, 1129.964)" fill="#e6180a" stroke="#000000" stroke-opacity="0" stroke-width="0" stroke-linecap="square" stroke-linejoin="bevel" d="M0.715 0.765L0 2.152L0.738 6.973L2.661 6.639L6.473 4.049L2.236 0Z"/>
   <path id="shape0" transform="translate(968.164, 989.074351683123)" fill="#e6180a" stroke="#000000" stroke-opacity="0" stroke-width="0" stroke-linecap="square" stroke-linejoin="bevel" d="M81.54 10.9206C79.676 7.92865 78.75 6.12665 78.945 4.94665C79.123 3.87265 80.405 2.50365 77.726 0.374648C76.137 -0.888352 69.367 1.00465 74.012 6.62165C78.337 7.16365 77.76 6.23365 76.822 10.8536C70.327 17.5206 66.676 15.3986 60.647 13.8646C53.231 12.6136 51.612 17.1786 48.348 14.3126C45.494 4.61265 50.118 8.34265 51.594 8.93865C54.93 7.51765 54.11 8.53665 54.974 4.57165C53.247 1.80965 54.116 2.47265 51.36 1.71765C49.086 2.77565 49.902 2.03265 47.814 5.17665C42.872 7.33065 40.139 8.15965 40.654 16.9996C43.132 22.2526 42.772 20.9526 42.728 23.0136C38.79 29.1456 39.874 26.6116 37.809 33.9316C35.094 36.2786 35.664 35.1376 35.5 38.7666C34.695 40.7846 29.88 37.7686 30.079 43.6726C22.409 39.0686 20.444 41.0756 9.836 45.9896C4.253 47.4806 6.236 47.2576 1.137 47.1316C0.428 47.4866 -0.839 47.1066 4.685 52.4726C6.749 52.3456 5.694 52.5596 9.469 51.4326C10.147 51.8736 13.697 52.7806 9.67 56.8066C7.635 56.8546 5.419 56.0476 1.242 63.4456C0.64 64.5106 0.481 65.8946 0 67.4216C9.193 65.7306 6.836 66.5526 10.842 63.9276C14.462 55.9456 16.889 59.8776 17.699 62.6526C15.775 65.9686 17.019 65.1846 12.379 65.8426C8.335 69.8636 9.657 67.6136 6.726 76.1226C8.661 77.9556 14.912 75.5306 19.24 72.5266C19.739 69.8966 20.201 66.2276 25.329 68.5296C26.208 70.9236 26.322 69.8856 24.76 72.8966C19.439 74.4816 20.083 73.3926 16.981 83.2096C16.981 87.9116 16.309 87.1426 19.575 86.6356C25.938 83.6046 25.814 84.0776 29.31 80.1866C27.279 71.4406 33.96 74.3106 34.061 74.3416C35.352 76.4146 36.661 77.0166 30.482 80.2876C30.638 91.1356 30.374 88.8286 31.352 91.7736C32.827 92.1726 33.638 93.7376 41.055 84.1836C40.993 78.6176 40.529 77.2136 44.969 76.9616C49.154 79.4766 45.43 81.9816 43.396 83.5776C43.605 86.7676 43.424 91.1696 46.073 92.7146C52.859 86.9506 51.338 88.6176 53.235 85.1906C52.073 81.3876 50.579 79.3186 55.075 77.8686C58.337 80.5146 58.201 79.6766 56.111 84.6536C57.96 90.9826 56.93 88.8986 60.428 93.8916C60.775 93.8836 63.425 94.9466 65.178 85.1576C62.952 81.4996 63.178 81.8386 64.677 79.4466C66.932 79.4066 66.24 78.9856 67.555 81.2946C66.251 85.5516 65.527 88.6576 75.618 93.3886C76.77 92.4416 76.868 95.4156 68.893 75.5186C68.089 68.0986 68.44 70.6226 67.386 64.3656C64.06 58.9936 65.908 60.8726 58.923 56.2366C59.001 49.1446 58.815 51.2396 59.658 46.7966C67.434 41.5056 66.413 41.5466 71.201 45.0836C72.942 49.5876 73.026 49.0336 70.531 49.0816C68.149 50.4246 68.785 49.5056 67.923 53.0136C70.524 57.5566 71.671 56.4096 74.044 55.3976C75.852 50.7326 73.235 51.9746 75.751 48.4116C78.107 40.9456 72.176 38.9156 74.725 32.7946C77.171 29.6486 78.537 27.9906 79.8 26.5106C83.61 17.8226 82.23 14.6786 81.54 10.9206ZM61.455 37.9916C53.558 43.0366 56.43 41.9216 48.868 43.2536L44.066 42.2616L41.808 39.0376C41.988 31.8636 41.329 34.4566 44.384 27.6676L47.613 22.8806L52.848 19.9606C52.848 19.9606 54.443 19.7836 55.078 19.6876L58.157 19.4836L60.344 21.2326C59.793 24.3426 59.839 23.5446 60.064 24.9046C63.279 25.2046 62.019 24.8526 65.605 26.5926L66.05 29.4176C64.463 34.7536 65.457 32.7856 61.455 37.9916Z"/>
   <path id="rect580" transform="translate(1021.807, 1002.726)" fill="#e6180a" stroke="#000000" stroke-opacity="0" stroke-width="0" stroke-linecap="square" stroke-linejoin="bevel" d="M6.525 0L6.912 0.456L0.386 6.309L0 5.852Z"/>
   <path id="path582" transform="translate(944.579, 1039.519)" fill="#e6180a" stroke="#000000" stroke-opacity="0" stroke-width="0" stroke-linecap="square" stroke-linejoin="bevel" d="M21.662 0L24.62 0.669L26.702 4.224L24.41 15.307L18.455 26.432L9.331 35.843L1.292 35.843L0 34.085L10.247 24.801L18.455 11.334Z"/>
   <path id="path584" transform="translate(1013.545, 1080.218)" fill="#e6180a" stroke="#000000" stroke-opacity="0" stroke-width="0" stroke-linecap="square" stroke-linejoin="bevel" d="M5.089 1.883L6.375 0.914L10.07 0L11.249 1.075L13.23 8.604L13.927 12.689L13.391 20.324L10.338 32.747L8.088 38.23L4.446 42.962L0 46.026L0.321 43.876L4.071 37.692L6.267 31.186L8.247 22.421L8.944 16.184L7.98 9.194L5.195 4.193Z"/>
   <g id="g596" transform="translate(-924.12, 211.4)" fill="none">
    <path id="path598" transform="translate(1912.925, 769.383)" fill="#e6180a" stroke="#000000" stroke-opacity="0" stroke-width="0" stroke-linecap="square" stroke-linejoin="bevel" d="M1.783 0L5.525 0.328L7.584 5.02L6.008 8.436L0.832 7.798L0 2.954Z"/>
    <path id="path600" transform="translate(1921.504, 763.165)" fill="#e6180a" stroke="#000000" stroke-opacity="0" stroke-width="0" stroke-linecap="square" stroke-linejoin="bevel" d="M4.857 1.505L7.932 0L9.159 0.428L9.601 2.022L9.601 3.515L8.73 6.032L5.7 8.767L0.382 9.987L0 8.514L1.893 7.921L4.486 5.372Z"/>
    <path id="path602" transform="translate(1885.715, 764.636)" fill="#ff009c" stroke="#000000" stroke-opacity="0" stroke-width="0" stroke-linecap="square" stroke-linejoin="bevel" d="M4.025 2.145C4.025 3.33 3.124 4.29 2.012 4.29C0.9 4.29 0 3.33 0 2.145C0 0.96 0.9 0 2.012 0C3.124 0 4.025 0.96 4.025 2.145Z"/>
    <path id="path604" transform="translate(1890.253, 775.665)" fill="#00ff0a" stroke="#000000" stroke-opacity="0" stroke-width="0" stroke-linecap="square" stroke-linejoin="bevel" d="M4.19 1.99C4.19 3.09 3.252 3.981 2.095 3.981C0.938 3.981 0 3.089 0 1.99C0 0.891 0.938 0 2.095 0C3.252 0 4.19 0.89 4.19 1.99Z"/>
    <path id="path606" transform="translate(1900.409, 791.837)" fill="#ff9e00" stroke="#000000" stroke-opacity="0" stroke-width="0" stroke-linecap="square" stroke-linejoin="bevel" d="M4.544 2.075C4.544 3.221 3.526 4.151 2.272 4.151C1.016 4.151 0 3.221 0 2.075C0 0.929 1.017 0 2.272 0C3.526 0 4.544 0.928 4.544 2.075Z"/>
    <path id="path608" transform="translate(1908.926, 797.211)" fill="#0072ff" stroke="#000000" stroke-opacity="0" stroke-width="0" stroke-linecap="square" stroke-linejoin="bevel" d="M4.453 2.286C4.453 3.549 3.456 4.572 2.227 4.572C0.998 4.572 0 3.549 0 2.286C0 1.023 0.997 0 2.227 0C3.456 0 4.453 1.023 4.453 2.286Z"/>
    <path id="path610" transform="translate(1917.756, 799.792)" fill="#ffff00" stroke="#000000" stroke-opacity="0" stroke-width="0" stroke-linecap="square" stroke-linejoin="bevel" d="M4.512 2.521C4.512 3.914 3.501 5.042 2.256 5.042C1.01 5.042 0 3.913 0 2.521C0 1.129 1.01 0 2.256 0C3.502 0.001 4.512 1.129 4.512 2.521Z"/>
    <path id="path612" transform="translate(1896.3004940204, 786.574476764981)" fill="#e6180a" stroke="#000000" stroke-opacity="0" stroke-width="0" stroke-linecap="square" stroke-linejoin="bevel" d="M2.65851 0.470524C2.98451 1.00752 2.68351 1.78452 1.98551 2.20852C1.28851 2.63252 0.457506 2.54052 0.131506 2.00452C-0.194494 1.46752 0.106506 0.690524 0.803506 0.266524C1.50151 -0.157476 2.33151 -0.0654767 2.65851 0.470524Z"/>
    <path id="path614" transform="translate(1902.798, 782.53)" fill="#e6180a" stroke="#000000" stroke-opacity="0" stroke-width="0" stroke-linecap="square" stroke-linejoin="bevel" d="M1.567 0.907C1.567 1.408 1.216 1.813 0.784 1.813C0.352 1.813 0 1.408 0 0.907C0 0.406 0.352 0 0.784 0C1.216 0 1.567 0.406 1.567 0.907Z"/>
    <path id="path616" transform="translate(1891.6136700066, 792.02212657326)" fill="#e6180a" stroke="#000000" stroke-opacity="0" stroke-width="0" stroke-linecap="square" stroke-linejoin="bevel" d="M1.63333 0.0988735C1.72733 0.205873 1.65333 0.422873 1.44233 0.662873C1.23133 0.902873 0.91633 1.12687 0.62233 1.24687C0.32933 1.36687 0.10533 1.36187 0.04033 1.23387C-0.05367 1.12687 0.01933 0.909873 0.23133 0.669873C0.44233 0.429873 0.75733 0.204873 1.05033 0.0858735C1.34333 -0.0331265 1.56733 -0.0281265 1.63333 0.0988735Z"/>
    <path id="rect618" transform="translate(1876.599, 799.623)" fill="#e6180a" stroke="#000000" stroke-opacity="0" stroke-width="0" stroke-linecap="square" stroke-linejoin="bevel" d="M0 3.441L3.689 0L5.411 1.741L1.723 5.181Z"/>
    <path id="rect620" transform="translate(1869.022, 804.377)" fill="#e6180a" stroke="#000000" stroke-opacity="0" stroke-width="0" stroke-linecap="square" stroke-linejoin="bevel" d="M0 4.354L5.376 0L6.909 1.776L1.533 6.131Z"/>
    <path id="path622" transform="translate(1865.64801060441, 811.406941309986)" fill="#e6180a" stroke="#000000" stroke-opacity="0" stroke-width="0" stroke-linecap="square" stroke-linejoin="bevel" d="M1.67899 0.255059C1.85899 0.457059 1.87199 0.777059 1.71399 1.08806C1.55599 1.39906 1.25299 1.64906 0.923989 1.73806C0.595989 1.82806 0.295989 1.74406 0.143989 1.51806C-0.0350106 1.31606 -0.0480106 0.996059 0.109989 0.685059C0.266989 0.374059 0.570989 0.124059 0.898989 0.0350586C1.22699 -0.0539414 1.52699 0.0290586 1.67899 0.255059Z"/>
    <path id="path624" transform="translate(1866.175, 867.566)" fill="#e6180a" stroke="#000000" stroke-opacity="0" stroke-width="0" stroke-linecap="square" stroke-linejoin="bevel" d="M0.601 0.512L2.021 0L4.072 1.097L5.926 2.833L5.946 4.675L1.985 6.743L0 5.421L0.197 1.464Z"/>
    <path id="path626" transform="translate(1874.986, 807.760226732431)" fill="#e6180a" stroke="#000000" stroke-opacity="0" stroke-width="0" stroke-linecap="square" stroke-linejoin="bevel" d="M13.185 1.06777C11.652 21.3998 10.978 17.5128 14.541 21.6618C11.171 34.6478 12.63 32.2818 8.415 34.1978C-1.214 30.5568 0.489 32.0248 0 27.8918C3.76 9.44677 2.136 15.5018 6.786 2.27477C7.795 0.633773 11.678 -1.21823 13.185 1.06777Z"/>
    <path id="path628" transform="translate(1923.476, 878.542)" fill="#e6180a" stroke="#000000" stroke-opacity="0" stroke-width="0" stroke-linecap="square" stroke-linejoin="bevel" d="M1.814 4.508L14.353 1.624L17.604 0.226L19.969 0L20.587 1.144L20.643 6.796L19.644 7.743L1.94 9.14L0.126 8.816L0 6.399Z"/>
    <g id="group0" fill="none">
     <path id="shape1" transform="translate(1950.105, 806.957199551333)" fill="#000000" stroke="#000000" stroke-opacity="0" stroke-width="0" stroke-linecap="square" stroke-linejoin="bevel" d="M0 0.1878L2.905 1.7508L5.229 3.4928C5.084 0.8198 2.394 -0.5212 0 0.1878Z"/>
     <path id="shape2" transform="translate(1947.587, 808.229808188942)" fill="#000000" stroke="#000000" stroke-opacity="0" stroke-width="0" stroke-linecap="square" stroke-linejoin="bevel" d="M0.969 1.05519L0 1.05519C0.184 3.60819 3.573 5.19419 5.811 5.52719C5.807 4.26119 5.752 2.06919 4.788 1.13619C3.847 0.227192 1.279 -0.846808 0.969 1.05519ZM1.335 1.19319C1.494 0.904192 2.386 -0.0948082 3.393 0.854192C3.057 0.942192 1.913 1.32319 1.713 3.00019C1.171 2.88619 1.076 1.73919 1.335 1.19319ZM5.15 4.69119C5.002 4.84019 3.454 4.71019 2.136 3.36919C4.009 2.99219 4.005 1.58119 4.003 1.38819C4.936 2.07219 5.538 4.30119 5.15 4.69119Z"/>
     <path id="shape3" transform="translate(1933.8165506299, 796.6943578809)" fill="#000000" stroke="#000000" stroke-opacity="0" stroke-width="0" stroke-linecap="square" stroke-linejoin="bevel" d="M18.6124 5.78465C18.7564 4.65265 19.4114 3.22165 19.0004 2.09065C17.5764 -1.83235 10.5954 0.725642 8.34845 2.04965C2.89745 5.26165 -0.75955 12.1166 0.13445 18.4256C0.25745 19.2966 0.0194494 20.0846 0.35545 20.9526C1.86045 24.8436 7.13845 24.4616 10.4794 24.0966C17.8984 23.2856 26.4824 14.9606 24.2294 7.14665C21.8834 5.58565 20.3224 5.78465 18.6124 5.78465ZM8.27145 4.36365C8.64345 3.98865 8.85345 3.98465 9.87345 4.58365C9.44345 4.52165 8.35545 5.16665 8.30845 5.91065C8.30845 5.91065 8.07145 5.39565 8.03745 5.12765C7.99045 4.75865 7.86045 4.77565 8.27145 4.36365ZM10.2094 4.98765C11.4694 6.42965 12.0804 11.6686 8.47245 6.41265C9.02245 6.59665 10.1684 6.02465 10.2094 4.98765ZM21.5694 16.0896C15.2314 24.6226 0.60645 27.7076 0.60045 17.6456C0.59745 13.8746 1.55545 11.2866 3.56245 8.11865C8.79245 -0.139358 5.91745 7.86865 10.6714 9.28565L8.54045 11.4246C10.5574 11.0766 13.1724 9.88065 14.0474 7.92465C14.9444 5.91765 13.0924 2.48065 10.8644 2.28565C11.3724 4.11965 15.0574 7.53565 11.6384 8.70165C11.6384 6.29765 11.2514 3.71765 8.34645 3.64665C9.19545 0.815642 16.4784 -0.198358 18.2744 2.15765C19.1844 3.35065 17.3794 5.11465 18.5034 6.05065C20.1164 7.39465 23.2584 5.69965 24.1174 8.70165C24.8624 11.2986 23.0164 14.1416 21.5694 16.0896Z"/>
     <path id="shape4" transform="translate(1937.45857459173, 809.021)" fill="#000000" stroke="#000000" stroke-opacity="0" stroke-width="0" stroke-linecap="square" stroke-linejoin="bevel" d="M8.38542 5.513C6.50242 5.228 4.57642 3.202 3.35042 1.819C2.90742 1.319 2.38142 0 1.60742 0C-0.577575 0 -0.184575 4.413 0.735425 5.471C2.35042 7.328 6.25642 6.883 8.38542 6.487L7.03042 8.626C10.4814 8.085 9.16042 4.943 8.19242 2.793C7.22342 3.719 8.10542 4.467 8.38542 5.513ZM1.60742 0.847L6.06142 5.902C3.60242 5.902 -0.489575 3.957 1.60742 0.847Z"/>
     <path id="shape5" transform="translate(1923.379, 766.716201042674)" fill="#000000" stroke="#000000" stroke-opacity="0" stroke-width="0" stroke-linecap="square" stroke-linejoin="bevel" d="M0 0.180799L0.774 1.5418C2.041 0.764799 1.355 -0.464201 0 0.180799Z"/>
     <path id="shape6" transform="translate(1936.274436073, 807.535)" fill="#000000" stroke="#000000" stroke-opacity="0" stroke-width="0" stroke-linecap="square" stroke-linejoin="bevel" d="M0.0795639 3.11L2.40356 0C0.788564 0.108 -0.312436 1.491 0.0795639 3.11Z"/>
     <path id="shape7" transform="translate(1942.92050737507, 809.089)" fill="#000000" stroke="#000000" stroke-opacity="0" stroke-width="0" stroke-linecap="square" stroke-linejoin="bevel" d="M2.34249 2.14C2.24549 0.873 1.10949 0.39 0.0184926 0C-0.174507 1.296 1.18049 2.013 2.34249 2.14Z"/>
     <path id="shape8" transform="translate(1926.671, 825.811)" fill="#000000" stroke="#000000" stroke-opacity="0" stroke-width="0" stroke-linecap="square" stroke-linejoin="bevel" d="M0 0C1.162 5.017 6.964 7.62 11.427 8.703C13.173 9.127 16.141 9.451 17.431 7.972C13.475 6.944 9.864 6.989 6.199 4.743C4.262 3.556 2.225 0.195 0 0Z"/>
     <path id="shape9" transform="translate(1935.19533954194, 824.513947656067)" fill="#000000" stroke="#000000" stroke-opacity="0" stroke-width="0" stroke-linecap="square" stroke-linejoin="bevel" d="M4.32366 1.73705C5.10566 0.877053 0.73466 -0.426947 0.13966 0.137053C-0.31734 0.570053 0.46766 1.14305 0.77166 1.32105C1.58966 1.79905 3.48466 2.66005 4.32366 1.73705Z"/>
     <path id="shape10" transform="translate(1865.16978203145, 759.624100690662)" fill="#000000" stroke="#000000" stroke-opacity="0" stroke-width="0" stroke-linecap="square" stroke-linejoin="bevel" d="M108.628 28.0799C108.075 26.6609 106.835 25.5459 106.314 24.2009C106.05 23.5209 106.755 22.7529 106.798 22.0529C106.95 19.5759 105.463 17.2249 102.752 17.4619C99.9452 17.7079 98.0252 21.1359 99.6012 23.6079C100.628 25.2209 102.516 25.6859 104.301 25.3579C104.255 30.8199 98.1522 33.7769 93.2622 33.0509C90.4552 32.6339 88.2922 31.0679 85.3222 31.1979C82.2012 31.3349 77.8572 33.4129 76.6962 32.7459C74.0792 31.2409 75.2102 28.1239 75.4442 25.9399C82.4002 30.8449 84.7992 20.8639 79.7062 19.6149C78.2242 19.2509 76.4772 19.8439 75.5702 21.0879C75.1512 21.6629 75.1272 22.5829 74.5692 23.0359C73.4672 23.9299 71.6642 24.0369 70.4482 25.0049C67.8622 27.0629 67.0102 31.1909 67.3422 34.3009C67.8262 38.8389 70.0032 39.2609 69.3992 40.8789C68.6312 42.9329 66.8602 44.7559 65.9172 46.7779C65.1882 48.3389 65.2962 50.3009 64.5132 51.7629C63.7302 53.2269 61.4802 52.7679 62.2732 57.0489C59.5612 56.4089 56.1472 58.3579 56.8502 61.3269C55.6782 60.5119 54.1822 59.3649 52.7832 59.0179C45.4662 57.2079 37.4712 65.3009 30.8982 65.0189C29.9292 64.9769 28.5192 64.4649 27.6602 65.0249C26.1832 65.9859 28.3762 67.3209 28.7672 68.0459C29.7382 69.8429 23.4132 66.6649 22.7632 65.3469C22.0942 63.9919 24.1072 48.4909 23.9072 45.9619C23.8502 45.2519 23.4292 44.5499 23.7692 43.8559C24.2612 42.8529 25.2412 42.0729 25.7922 41.0679C26.5512 39.6869 26.8102 38.1139 27.9312 36.9439C29.1602 35.6599 31.5452 34.4979 32.3872 32.8839C32.7642 32.1599 32.0732 31.4939 32.3672 30.8359C32.6902 30.1159 32.5982 30.8989 39.4172 25.4969C39.9912 25.0419 40.8582 23.6689 41.6462 24.4509C43.1762 25.9669 42.2152 31.6099 40.1372 32.3519C39.0332 32.7469 37.9502 31.1759 36.5152 31.7689C35.4982 32.1889 34.9752 33.2369 34.9662 34.2969C34.9352 38.0629 41.0672 37.4369 40.0012 33.7129C44.5932 32.4529 43.6392 26.5249 44.6892 23.0199C44.7212 22.9129 47.7002 17.1419 49.1502 19.1749C49.8862 20.2079 49.0442 23.6029 49.1032 24.9639C49.2502 28.3219 50.2762 31.3839 48.9872 34.6859C48.6982 35.4249 48.4332 36.6299 47.7072 37.0399C47.1922 37.5899 45.5582 37.2729 44.5292 37.7539C42.6092 39.1219 43.0482 43.5009 46.8662 42.1479C48.9242 41.4189 47.8162 40.0219 48.8002 38.7239C49.8252 37.3709 51.4622 36.5349 52.3962 35.0769C54.5092 31.7779 53.4332 27.8849 52.7842 24.3829C52.5942 23.3559 52.1382 19.3679 53.9382 19.3679C54.6202 19.3679 54.9122 20.3769 55.0982 20.8829C57.1392 26.4279 59.0012 34.3199 55.6202 39.1599C54.8042 40.3279 53.0192 39.7529 52.3952 41.3029C51.7212 42.9759 52.5232 44.8679 54.3332 45.2799C56.2712 45.7199 57.7012 44.1209 57.6172 42.2739C57.5862 41.5889 57.0412 40.7669 57.3792 40.1349C57.9232 39.1189 58.9582 38.4669 59.4882 37.4119C61.2082 33.9969 61.4812 29.1409 60.2012 25.5519C59.1872 22.7109 54.5192 19.3299 55.4752 16.2189C56.2672 13.6409 59.2832 14.0979 61.3022 13.0309C65.8762 10.6139 66.9492 7.2889 65.3752 2.8369C65.2652 2.0589 66.2182 1.2999 65.7512 0.499899C65.3332 -0.218101 64.3992 -0.113101 63.9672 0.499899C63.0972 1.7339 64.6802 2.6019 63.1112 3.8129C62.1322 4.5689 60.8612 4.2899 59.7562 4.6899C59.2422 4.8759 58.8772 5.4429 58.3502 5.5469C57.5192 5.7119 56.7832 5.0859 55.9852 5.7209C54.7332 6.7179 55.1112 9.5679 52.7842 9.8039C47.4442 10.3459 50.8412 3.9769 41.9382 1.8759C38.7722 1.1289 35.2042 1.9949 33.2172 4.7789C32.0642 6.3959 31.5332 10.3429 28.9622 10.2549C27.9582 10.2199 25.4222 9.4199 25.0192 8.3999C24.5202 7.1389 25.3562 5.9049 23.9072 4.9429C22.5492 4.0419 20.5052 4.6579 20.1292 6.3059C19.7752 7.8569 20.4422 9.5719 22.1842 9.7629C22.8872 9.8399 23.6322 9.4039 24.2822 9.7379C26.0372 10.6409 27.3542 12.2659 29.5452 11.8509C32.3982 11.3109 33.2222 7.4669 35.3552 5.7769C38.8282 3.0239 47.7052 7.0299 48.0742 9.2199C48.2902 10.5009 45.6182 9.6789 45.0392 9.6099C41.8102 9.2239 38.0672 10.1359 36.3702 13.1129C35.1422 15.2649 36.0552 17.5839 33.0312 18.4959C28.5002 19.8629 30.5042 16.3179 28.1852 15.5709C25.8982 14.8339 23.9912 16.6139 24.6722 18.7499C25.6792 21.9109 28.1562 19.5739 30.1242 19.8269C32.0272 20.0719 33.8022 20.6349 35.5392 19.2519C37.7242 17.5139 37.2872 14.8559 40.3892 13.7609C41.6712 13.3079 45.6782 12.2209 46.2672 14.0859C46.7322 15.5599 45.5532 15.4149 38.2582 21.5909C37.6482 22.1079 34.7412 24.3799 33.9342 25.0049C31.6202 26.7979 29.1032 30.0389 26.3722 31.0929C25.2892 31.5109 23.3842 28.4699 22.3832 30.9939C20.7742 30.5309 19.5552 31.2569 19.4782 32.9379C17.6752 32.9439 15.4012 34.3189 14.3922 35.8619C13.3802 37.4089 15.1062 39.1189 13.8602 40.5349C9.32022 45.6929 -0.478782 50.2809 0.018218 53.1569C0.650218 56.8069 7.47722 49.0129 12.3122 46.0449C12.8152 45.7359 14.0162 44.4009 14.6112 44.5279C15.2732 44.6699 16.6152 48.0209 16.7462 48.6869C16.9742 49.8519 15.6012 51.6689 15.2182 52.7699C13.9182 56.5029 12.4912 60.2389 11.4572 64.0469C10.3682 68.0579 10.3372 72.6099 8.86522 76.4909C8.12022 78.4559 6.53822 80.0339 5.60522 81.9339C1.62222 90.0449 0.763218 97.1469 1.27122 102.933C1.32522 103.543 2.04722 103.953 2.03622 104.489C2.02422 105.072 0.946218 105.22 0.777218 105.862C0.558218 106.692 1.20222 107.406 1.18822 108.183C1.13622 111.171 -0.174782 114.699 1.65822 117.516C2.97622 119.543 8.40722 116.867 9.21222 115.278C9.64522 114.424 9.03122 113.583 8.69422 112.849C7.66522 110.609 5.88422 109.406 3.98222 107.944C3.43922 107.526 3.04522 105.584 3.54322 104.997C3.97622 104.486 4.81122 104.875 5.33922 104.985C6.71822 105.272 15.9042 105.506 23.5442 102.609C24.8772 102.104 27.2682 101.505 27.9982 100.213C23.8552 100.407 20.1582 103.24 15.7972 102.546C15.8642 102.558 18.9112 99.4679 18.9112 99.4679C20.2822 97.7339 24.7702 92.4339 25.7842 90.4909C26.4962 89.1269 27.1962 86.8079 28.3392 85.7469C29.0092 85.1249 30.7902 85.3809 31.6782 85.2019C41.7022 83.1859 37.3852 78.7769 41.3622 77.7869C44.0742 77.1119 45.9232 81.4729 42.3312 83.1059C41.2582 83.5939 40.1532 83.0309 39.0382 83.7009C35.0212 86.1139 32.9152 94.1369 33.8092 95.2329C34.5422 96.1309 38.1182 94.9549 39.0382 94.6399C41.3952 93.8329 44.5362 92.8499 46.2872 90.9689C46.8882 90.3229 46.7842 89.3429 47.0642 88.5479C48.8282 83.5469 54.9862 86.8759 51.8012 90.2979C49.0972 93.1999 46.6932 87.5989 43.8162 101.964C43.6702 102.691 43.3002 104.732 43.9982 105.27C45.0372 106.072 50.3822 103.496 51.9022 102.567C53.6542 101.496 54.9602 100.214 56.4702 98.8529C54.1462 103.265 52.2062 107.921 50.1392 112.463C49.4052 114.075 48.7662 117.01 47.4642 118.217C45.7312 119.824 40.7122 113.703 39.2342 116.026C38.0712 117.853 42.1322 120.38 43.1072 121.408C39.8302 121.266 31.7312 119.729 30.1312 121.369C29.3622 122.156 30.0262 122.909 30.9052 123.103C33.2812 123.629 36.0372 124.082 38.4582 124.324C38.4582 125.103 34.3902 124.445 32.2612 124.828C29.1222 125.391 29.5932 127.305 31.8732 127.593C34.4522 127.917 37.2232 127.822 39.8142 127.822C39.8142 128.788 40.3962 127.527 32.2602 129.527C31.4862 129.717 29.7132 130.282 30.6352 131.408C32.1452 133.254 38.2062 131.003 41.5562 130.933C40.3112 132.578 37.7922 132.999 36.3272 134.627C33.8302 137.403 38.3012 136.303 39.6192 135.599C38.4932 138.927 35.8812 143.267 36.0362 144.349C36.1302 145.006 36.7142 144.738 36.9992 144.349C37.6212 143.344 38.0202 142.113 38.4572 141.042L38.6512 141.042C38.8932 139.419 40.1272 135.694 41.5552 134.819C38.5432 141.733 38.9302 141.042 38.6512 141.042L38.2632 142.987C39.3392 142.811 40.2122 141.077 40.8482 139.407C40.6422 140.049 40.5762 140.604 40.8892 140.813C41.3662 141.131 41.7522 140.18 41.8872 139.876C42.5392 138.404 43.2982 136.924 43.8792 135.402L44.0732 135.402C45.3642 132.548 45.2992 132.549 44.2662 135.402C43.9952 135.402 44.2722 134.774 42.7162 139.68C44.9452 139.016 45.1312 134.691 46.5902 133.068L46.7832 132.485C46.7832 133.184 46.8482 133.068 46.5902 133.068L44.6532 138.32C46.2022 138.193 46.9212 135.402 47.3642 134.043C47.6392 134.043 47.7002 133.555 46.5902 137.348C47.9922 137.119 48.5642 135.078 48.9142 133.848L49.1072 133.848C50.4002 131.249 50.3332 131.257 49.3002 133.846C49.0252 133.849 49.1912 133.482 48.5262 136.376C49.7852 136.182 50.1082 134.736 50.4632 133.652L50.6562 133.652C51.2942 132.371 51.6572 131.618 51.7742 131.394L51.7942 131.389C51.7112 131.602 51.3932 132.344 50.8512 133.652L50.6572 133.652C49.9352 135.986 51.4322 135.086 52.0132 133.459C52.2842 133.459 52.0892 133.695 52.9812 131.901C52.3122 133.692 52.4772 133.456 52.2072 133.459L52.2072 134.626C53.4292 134.432 53.7572 133.154 54.1442 132.098C54.4032 132.098 54.2752 132.225 54.7252 131.319C54.4942 132.253 54.5972 132.098 54.3382 132.098L54.1442 133.848C55.2132 133.663 55.4672 132.682 55.6942 131.709C55.9592 131.709 55.7872 131.947 56.6182 130.063C55.9952 131.949 56.1532 131.707 55.8882 131.709L55.6952 133.07C56.9382 132.97 57.3202 131.826 57.6322 130.736C57.8902 130.736 57.7312 130.926 58.4062 129.568C57.9542 130.934 58.0832 130.736 57.8252 130.736L57.6322 132.487C58.5752 132.318 58.8442 131.365 59.1822 130.543C59.4222 130.543 59.3332 130.667 59.6832 129.772L59.7192 129.793C59.5502 130.677 59.6152 130.539 59.3752 130.542L59.3752 131.708C60.5372 131.516 60.8682 130.435 61.1182 129.375L61.3112 129.375C60.8602 131.967 62.2452 129.843 63.0912 129.492C63.8652 129.171 65.1052 129.288 65.9592 129.18C65.9592 137.265 65.3132 144.834 67.8582 152.706C68.1792 153.7 68.7682 154.609 69.0202 155.623C69.3802 157.069 68.4512 159.151 70.6042 159.317C70.4672 162.554 70.3462 165.686 72.4612 168.455C73.9532 170.407 78.1532 168.125 79.0582 166.511C80.7222 163.542 77.5492 160.863 75.2522 159.251C74.4382 158.68 72.2982 157.394 72.7982 156.053C73.3192 154.651 75.3622 154.939 80.4722 150.124C87.7982 143.219 95.2022 128.191 95.2022 115.571C95.2022 110.449 95.3222 108.796 94.4642 108.96C93.5512 109.134 94.5162 110.459 93.6302 116.738C91.4082 132.497 88.1092 133.66 85.7142 140.07C84.9232 140.07 89.9062 130.12 86.8382 114.988C86.1382 111.535 84.0002 107.319 83.1562 107.015C82.5952 106.813 81.9212 107.063 74.6732 110.124C74.6732 110.381 74.7892 110.316 74.0922 110.316L74.6732 110.124C76.4092 108.627 80.7132 105.741 80.6592 103.128C80.6272 101.571 79.1342 100.405 79.3602 98.6539C79.5112 97.4869 80.8032 96.3139 82.0302 96.4199C82.5032 96.4599 82.8792 96.7299 83.2472 97.0079C85.8562 98.9839 83.0602 100.607 83.0552 102.736C83.0502 104.688 84.1752 107.406 85.1202 109.094C85.7192 110.163 87.1092 113.198 88.7222 112.541C89.5862 112.188 90.0512 110.909 90.4232 110.132C91.4502 107.988 92.8322 105.402 92.4312 102.93C92.1592 101.25 89.3792 99.2549 92.2222 97.8749C93.1742 97.4129 94.1432 98.3159 94.2962 99.2349C94.6672 101.458 90.3942 103.573 98.1872 109.684C98.8822 110.23 103.036 112.949 103.564 111.051C103.969 109.599 97.3612 99.3379 95.8692 90.8739C94.9982 85.9299 96.3972 80.2779 89.7722 75.9369C88.7652 75.2769 87.3472 74.8339 86.5632 73.8839C85.9842 73.1819 86.6042 72.2189 86.6582 71.4299C86.8012 69.3379 86.0352 67.3499 86.9872 65.2599C87.3272 64.5129 88.7572 63.9489 89.3892 63.4579C90.7102 62.4319 91.7472 61.2509 93.4552 61.0269C96.2912 60.6559 99.0412 64.2019 99.2662 66.7619C90.4982 66.7819 96.1382 78.3109 101.356 73.5969C103.144 71.9819 101.698 70.3619 101.927 68.5119C102.02 67.7599 102.707 67.2229 103.032 66.5679C105.726 61.1379 101.296 57.5279 101.448 53.5419C101.589 49.8609 106.34 46.4749 107.921 43.2359C110.126 38.7249 110.472 32.8179 108.628 28.0799ZM38.2532 36.1139C35.8852 36.8369 34.3362 33.1309 36.7112 32.4389C39.4222 31.6489 40.8902 35.3089 38.2532 36.1139ZM46.3622 41.8289C43.4882 42.4589 42.8232 38.5999 45.6202 37.8929C48.4762 37.1719 48.5872 41.3409 46.3622 41.8289ZM55.8672 44.4299C53.2422 45.5339 51.7542 41.5759 54.1412 40.6379C56.6982 39.6339 58.0612 43.5079 55.8672 44.4299ZM22.9612 9.1759C20.4002 9.5379 19.8632 5.5419 22.3802 5.2129C24.7362 4.9049 25.3582 8.8369 22.9612 9.1759ZM61.8652 5.2009C62.3862 4.4089 64.7062 3.3139 65.3302 4.3729C67.3822 7.8549 63.0292 12.1699 59.9502 12.5489C58.9832 12.6679 57.2402 13.4629 56.8532 12.1349C58.7662 11.9409 61.0552 9.6689 61.5842 7.8579C61.8122 7.0779 61.3972 5.9109 61.8652 5.2009ZM56.4652 9.3449C56.3962 9.4149 56.0932 9.5779 55.9672 9.5299C55.8412 9.4819 55.6672 8.1149 55.6672 8.1149C55.6672 8.1149 56.5352 9.2739 56.4652 9.3449ZM55.4972 8.4399C55.4322 9.0329 55.6932 10.2179 56.5532 9.5229C56.9082 9.2359 55.1622 7.4619 56.1952 6.4189C56.7762 5.8329 57.7062 6.3669 58.4032 6.2679C59.0712 6.1719 59.7592 5.3759 60.4712 5.6539C62.5822 6.4779 58.6592 12.4589 55.4972 11.8849C53.3162 11.4899 54.1322 9.2619 55.4972 8.4399ZM48.3322 13.6919C48.5612 12.4049 50.1682 13.6879 50.6392 12.8599C51.0792 12.0839 49.5432 10.4989 51.0432 10.1409C53.3072 9.6009 55.2832 14.2889 54.5792 16.0229C53.9842 17.4879 53.0162 16.3089 52.0122 16.5569C51.4302 16.7009 51.2372 17.3909 50.6452 17.5059C50.2692 17.5789 49.8452 17.3979 49.8332 16.9959C49.8102 16.1759 51.0982 15.9229 50.7592 15.0579C50.4012 14.1469 48.1382 14.7809 48.3322 13.6919ZM27.4152 19.8669C25.0352 20.2489 24.1732 16.7419 26.6412 16.2839C29.1292 15.8219 30.1612 19.4269 27.4152 19.8669ZM38.2602 22.9719C39.2292 22.6839 39.5322 24.3909 38.6202 24.6259C37.5892 24.8929 37.2772 23.2649 38.2602 22.9719ZM6.80622 111.88C6.59822 113.136 5.57422 112.521 4.85622 112.994C4.46022 113.255 4.30222 113.777 3.87922 114.018C1.37622 115.446 0.252218 109.373 2.10622 108.498C3.58022 107.803 7.07722 110.249 6.80622 111.88ZM32.6442 27.2009C34.5052 26.8489 34.1592 29.1209 32.4502 29.3809C30.5782 29.6649 31.2792 27.4589 32.6442 27.2009ZM27.9962 32.5509C27.8522 33.3539 27.4012 33.4519 26.6412 33.5229C26.7822 32.6749 27.1882 32.5769 27.9962 32.5509ZM23.5992 31.3269C25.2662 30.7249 25.9042 35.8539 24.6702 36.0649C23.6012 36.2489 22.3782 31.7669 23.5992 31.3269ZM20.5862 32.6039C21.3912 30.9339 22.5072 33.5139 22.5652 35.6609C22.5862 36.4389 22.5732 37.2189 22.5732 37.9939C21.0232 37.7339 19.9302 33.9649 20.5862 32.6039ZM18.1922 34.0569C18.8092 33.8739 19.1342 34.6219 19.2732 35.0779C21.0492 40.8809 18.9282 41.1559 18.1982 39.3549C17.8322 38.4529 16.7402 34.4879 18.1922 34.0569ZM15.2142 36.2989C15.9882 35.0779 16.7632 36.6769 16.8992 37.4109C17.1822 39.8979 17.1082 40.2899 16.9582 41.1049C15.6012 40.6579 14.3842 37.6049 15.2142 36.2989ZM1.26922 53.4379C0.181218 53.5409 0.470218 51.9829 1.46222 51.9189C2.73622 51.8379 2.30222 53.3409 1.26922 53.4379ZM8.82222 48.0209C6.93122 49.5799 6.43022 49.7899 5.33722 50.6319C3.12722 49.2209 7.18822 46.0529 8.82222 45.6699C10.9212 45.1779 9.43522 47.5149 8.82222 48.0209ZM13.1182 44.6049C12.5042 44.6049 11.7382 43.7339 12.0352 43.1489C12.3522 42.5239 14.4012 40.6279 15.0582 40.5219C15.7462 40.4109 16.1802 41.3439 15.9902 41.8899C15.7302 42.7829 14.0872 44.5309 13.1182 44.6049ZM16.2872 45.3829C16.0652 44.8039 15.6092 44.1199 15.6982 43.4719C15.7892 42.8079 17.2452 41.2399 17.9252 41.2229C18.5022 41.2089 18.8552 41.7279 19.4652 41.5099C20.4872 41.1449 20.2512 39.9599 20.8752 39.2799C21.8632 38.2019 23.0342 39.1209 23.3482 37.0209C26.7302 37.4269 27.5432 32.5509 31.0952 32.1619C30.5712 33.9119 28.3902 34.6409 27.2762 35.8909C25.9862 37.3369 25.5892 39.6409 24.3172 41.2439C23.6052 42.1419 21.9042 42.5919 21.3962 43.3479C21.0282 43.8949 22.1842 44.1389 22.4582 44.4109C23.0472 44.9979 22.7742 46.2989 22.2702 46.8279C21.5652 47.5679 18.5062 48.8829 17.5962 48.1789C16.8252 47.5819 16.6172 46.2429 16.2872 45.3829ZM11.2662 81.2289C11.8532 80.6649 13.2062 80.8489 13.3522 81.7529C13.6942 83.8789 11.8682 82.1329 8.21822 96.7129C7.95022 97.7809 6.99722 99.0009 5.91722 98.6569C4.91722 98.3389 8.83722 83.5669 11.2662 81.2289ZM15.3022 101.102C13.0282 103.051 10.6352 103.908 7.65922 103.908C7.04622 103.908 5.34622 104.199 5.07622 103.459C4.75122 102.567 11.3172 97.1529 13.3552 94.9639C21.1442 86.5959 25.4622 74.2329 25.4772 68.9099C26.2402 68.9119 30.0302 71.0229 29.7282 74.9219C26.9212 86.0839 22.1482 95.2329 15.3022 101.102ZM28.9652 69.1039C30.1252 69.4199 31.0592 70.7209 32.2572 70.8539C34.1932 71.0689 36.1362 68.7219 38.1512 70.8049C38.7242 71.3979 38.5042 72.3429 38.1532 72.9929C36.6222 75.8249 34.5822 73.8289 32.6452 75.1689C31.5502 75.9269 31.1702 77.6589 29.9332 78.0479L30.9022 72.2149ZM56.2492 95.7419C55.5442 90.5719 63.3202 91.2629 61.5012 95.3519C60.9832 96.5169 58.8632 97.7019 57.6282 97.9439C56.5662 98.1519 56.3552 96.5189 56.2492 95.7419ZM55.1102 121.213C54.2102 120.464 54.1592 120.52 54.9172 120.824C59.0142 111.958 57.9112 114.191 59.9522 110.518ZM61.5012 110.13C60.6692 114.036 57.9792 118.18 56.2722 121.796C55.9972 121.796 55.6172 122.833 59.8772 113.241ZM55.4972 116.318C58.4972 109.39 58.0532 110.324 58.5972 110.324C54.8332 118.509 51.8892 124.65 55.4972 116.318ZM53.3672 114.601C57.7552 105.855 56.4912 106.435 57.4342 106.435C53.2062 116.333 54.6712 113.057 51.6232 119.462C51.4302 117.97 52.7092 115.912 53.3672 114.601ZM50.0752 119.074C55.8062 105.728 54.1752 109.521 57.4342 101.964C57.4342 101.964 52.7152 117.338 50.0752 119.074ZM57.6282 108.574C57.4842 111.336 55.2242 114.638 54.0552 117.13C50.2382 125.262 54.0262 113.356 57.6282 108.574ZM57.4342 99.4359C54.0952 107.76 55.9562 103.402 48.9132 119.268C47.7872 119.268 54.7882 102.723 57.4342 99.4359ZM42.1332 136.768L41.9402 136.768C41.8472 137.121 41.4132 137.952 41.0782 138.777C41.8832 136.495 41.6262 136.768 41.9402 136.768C43.7342 133.165 43.6952 133.11 42.1332 136.768ZM47.9442 133.656C47.6882 133.656 47.6802 133.933 48.1252 132.15C48.2392 132.131 48.3562 132.113 48.4662 132.094C48.5682 132.137 48.4122 132.404 47.9442 133.656ZM53.7552 130.934C52.9452 132.018 53.0112 131.983 53.7552 130.74ZM54.9172 131.129C54.6622 131.129 54.6162 131.334 55.2502 130.068L55.2682 130.067ZM57.4342 124.323C56.6262 125.251 56.9612 127.364 56.1562 128.017C53.6592 130.04 49.1592 129.949 46.2012 131.037C42.9892 132.218 40.3742 135.06 36.9052 135.6C38.0262 133.461 42.3782 133.493 42.9572 130.942C43.5552 128.304 35.4702 131.749 31.0952 130.934C31.0952 130.656 29.8802 131.006 41.7472 128.407C41.0672 126.267 39.3522 127 37.6722 127.046C33.4692 127.16 30.5142 126.707 30.5142 126.268C34.2312 124.684 40.0762 126.185 40.9722 124.989C41.6922 124.028 39.2872 123.766 38.8422 123.627C36.3002 122.827 33.3802 122.38 30.7072 122.38C31.0852 121.301 32.2942 121.721 33.2262 121.651C37.2322 121.354 44.0252 123.74 44.2572 121.408C44.4042 119.936 40.1872 118.976 40.0042 116.547L46.7822 119.853C54.6842 121.72 52.3122 120.703 57.4342 124.13ZM57.2402 122.574C62.1592 111.361 66.9042 101.42 61.8632 112.851C57.0832 123.692 57.5212 122.574 57.2402 122.574ZM58.9832 121.99C58.7902 120.557 60.1392 118.606 60.7752 117.324C63.1522 112.532 65.9612 105.489 67.1182 104.491C58.5712 123.326 59.2842 121.99 58.9832 121.99ZM60.7262 121.601C60.2782 120.028 66.0962 110.503 68.9972 102.546C69.5642 100.99 67.9032 99.2599 68.4322 97.4899C68.9112 95.8839 70.9282 94.7599 72.4842 95.6019C74.0882 96.4709 73.7842 98.4669 72.6932 99.6269C71.9292 100.439 70.6852 100.692 70.0222 101.607C68.4672 103.755 64.3602 114.983 60.7262 121.601ZM62.4692 121.213L62.2762 121.213C62.9542 117.389 65.6402 113.275 67.2522 109.741C68.2122 107.636 68.9312 104.925 70.4102 103.13C67.8302 109.741 69.5392 105.813 62.4692 121.213ZM63.8252 120.824C68.9902 109.157 67.4872 112.414 70.6032 106.047C70.2162 109.609 67.3732 113.872 65.8952 117.13C65.3672 118.295 64.9122 120.11 63.8252 120.824ZM65.5822 120.712C65.7262 118.164 67.6452 116.689 70.7982 107.603C71.3492 110.639 66.7392 116.206 65.9562 120.63L65.9772 120.628C65.8122 120.67 65.6832 120.698 65.5822 120.712ZM67.3252 120.255L67.3072 120.262ZM67.1182 120.24C67.5912 117.032 69.9472 112.926 71.5722 110.13C71.5722 110.13 71.7482 110.272 71.9832 110.446C71.9722 110.472 71.9632 110.493 71.9542 110.518L71.7662 110.518C66.8702 121.204 67.3982 120.24 67.1182 120.24ZM73.8962 159.532C74.6282 159.661 77.8042 162.336 77.3472 163.084C76.9122 163.794 75.3562 163.202 73.3152 165.544C72.1532 164.5 70.9902 159.02 73.8962 159.532ZM76.7842 146.878C79.2052 140.662 81.1662 133.933 81.6262 127.24C82.3832 116.232 78.0822 115.886 77.6962 111.689C77.5672 110.285 81.1782 109.557 82.2242 109.649C83.5332 109.763 83.8232 111.44 84.1392 112.462C85.0702 115.472 85.6312 118.489 85.9572 121.601C86.7512 129.184 82.0512 143.189 81.5202 144.544C80.9892 145.899 77.0462 152.147 72.9262 154.071C73.3732 151.608 75.8392 149.304 76.7842 146.878ZM100.877 52.7749C100.194 57.2019 104.89 60.9029 102.506 66.3849C102.226 67.0299 101.563 67.4069 101.446 68.1389C101.138 70.0789 102.515 71.9389 100.404 73.4629C98.2512 75.0179 94.8752 72.6059 95.4752 70.0789C95.6972 69.1469 96.4012 68.0939 97.3302 67.7909C98.1752 67.5159 101.38 67.7539 99.0502 63.8569C97.6992 61.5969 95.6272 59.9349 92.8752 60.3119C91.6492 60.4799 90.7192 61.4339 89.7762 62.1539C88.8112 62.8919 87.3522 63.5829 86.6022 64.5179C85.1742 66.2989 85.8912 69.1089 85.8992 71.0529C85.9032 71.9679 85.1932 73.0909 85.4602 73.9689C85.8472 75.2409 88.1482 76.0449 89.1972 76.6919C96.7062 81.3249 94.4352 88.9559 96.1522 94.9679C98.0842 101.738 102.511 109.391 102.946 110.906C99.2662 110.193 95.1672 107.138 94.1902 103.324C93.6422 101.184 96.6302 98.3999 93.2622 97.0109C91.6162 96.3309 90.2742 98.6609 90.2762 100.019C90.2782 101.44 91.4532 102.07 91.7952 103.325C92.3312 105.292 90.5662 108.262 89.6972 109.935C89.3932 110.521 88.9892 111.591 88.2272 111.701C86.6032 111.933 83.6762 104.576 83.8322 102.935C83.9152 102.066 84.6112 101.424 84.8372 100.602C85.3922 98.5789 84.6492 96.5199 82.6092 95.7699C81.1782 95.2449 79.3322 96.5319 78.8892 97.8819C78.1782 100.054 80.1322 101.49 79.8612 103.326C79.4592 106.048 75.0172 108.667 73.1202 110.325L72.9262 110.325C71.2322 108.806 71.3942 106.629 71.1022 104.492C70.9962 103.714 70.7232 102.394 71.1832 101.69C72.2802 100.01 74.6702 99.7649 74.1912 97.1029C73.6812 94.2779 70.2172 93.9109 68.5492 95.9449C66.9262 97.9249 68.6502 99.9559 67.7552 101.965C66.3072 105.216 62.8582 107.683 60.3392 109.937C60.3392 109.937 59.3582 109.929 59.1662 109.735C57.8742 108.429 57.6982 105.404 57.8782 103.715C58.0302 102.286 57.5382 100.019 58.1342 98.7139C58.6402 97.6069 60.9182 97.3039 61.7902 96.3829C63.7582 94.3039 61.2982 90.9299 58.7902 91.3139C56.8952 91.6039 55.3802 93.6629 55.5342 95.5499C55.6062 96.4369 56.3062 97.5309 55.8022 98.3669C53.6642 101.905 48.0842 103.968 44.2652 104.688C44.2652 101.188 45.3752 95.2069 48.0452 92.6959C49.4652 91.3599 51.6572 92.5059 52.9802 90.2999C55.5382 86.0349 48.0892 82.0849 46.3972 88.3559C46.2402 88.9359 46.4062 89.7229 46.0702 90.1769C44.6292 92.1229 41.3642 92.9159 39.2322 93.7179C38.4192 94.0239 35.2332 95.1169 34.5842 94.2659C33.9432 93.4259 35.1472 91.3119 35.4632 90.4959C39.2742 80.6629 42.3802 85.8269 44.5142 82.5239C46.2152 79.8919 44.0362 75.9679 40.7822 77.0909C38.2652 77.9599 38.8482 80.3289 37.4062 81.8489C35.0732 84.3079 30.7632 84.6619 27.6122 84.6619C27.9762 81.7449 30.9652 77.1789 33.4562 75.6409C34.2622 75.1439 35.0942 75.6239 35.9402 75.4309C37.6842 75.0329 39.2242 72.8609 38.7642 71.0589C38.3262 69.3419 35.8712 68.7099 34.3912 69.3029C33.8012 69.5389 33.2902 70.2189 32.6482 70.2879C31.9872 70.3589 31.4902 69.5519 31.0812 69.1619C29.9992 68.1309 28.2422 67.1849 28.0002 65.6059C30.8112 65.6059 33.4262 65.6139 36.1092 64.6329C40.4632 63.0419 44.8002 60.0059 49.4982 59.4199C52.6822 59.0229 54.4652 61.9109 57.4382 61.9109C57.4242 61.2499 57.1702 60.4119 57.3952 59.7799C58.1782 57.5819 61.4912 58.6809 62.5502 57.2439C63.0982 56.5019 62.7082 55.5149 63.0272 54.7169C63.4462 53.6669 64.6112 53.3179 65.1012 52.3839C65.8392 50.9799 65.7692 49.1789 66.4142 47.7169C67.4102 45.4609 69.4502 43.2469 70.1212 40.9119C70.5682 39.3569 68.9432 37.5319 68.4762 36.0509C67.5152 33.0039 67.7752 29.9109 69.3822 27.1079C70.8092 24.6199 72.8022 24.7879 74.8622 23.4639C76.4662 22.4339 77.4342 19.2369 80.0932 20.5859C82.1422 21.6249 82.1852 25.0299 80.0932 26.0739C78.2842 26.9759 77.1922 25.2579 75.6392 25.5529C72.8662 26.0819 74.4792 31.6039 75.5692 32.8809C77.2802 34.8859 80.8302 32.3939 85.5162 32.0019C87.8402 31.8079 89.5862 33.3159 91.7132 33.8199C96.2072 34.8859 103.485 32.9449 104.69 27.8829C104.886 27.0589 105.275 25.7399 104.605 25.0499C104.004 24.4299 103.123 24.6629 102.366 24.5099C100.808 24.1959 99.6352 22.6639 99.9122 21.0759C100.388 18.3529 104.029 17.4629 105.583 19.7149C106.69 21.3199 105.239 22.7779 105.628 24.3809C105.945 25.6899 107.86 26.0399 108.862 31.7699C109.721 36.6869 108.442 41.4919 105.641 45.5749C104.074 47.8679 101.326 49.8649 100.877 52.7749Z"/>
     <path id="shape11" transform="translate(1923.66701138755, 878.784212537506)" fill="#e6180a" stroke="#000000" stroke-opacity="0" stroke-width="0" stroke-linecap="square" stroke-linejoin="bevel" d="M20.03 1.46978C20.142 2.73178 20.675 6.03578 19.577 6.94078C18.618 7.73078 16.557 7.36678 15.382 7.52078C11.789 7.99178 7.98899 8.18178 4.36099 8.27678C3.25699 8.30478 1.59299 8.86678 0.548988 8.35078C-0.902012 7.63378 0.873988 4.93478 1.84199 4.59578C5.38599 3.35378 9.44299 3.24178 13.075 2.07478C15.861 1.17978 19.746 -1.74222 20.03 1.46978Z"/>
     <path id="shape12" transform="translate(1936.68765340734, 888.493369285966)" fill="#ffffff" stroke="#000000" stroke-opacity="0" stroke-width="0" stroke-linecap="square" stroke-linejoin="bevel" d="M2.85135 16.4526C2.67535 18.0416 1.51835 19.3926 1.21635 20.9256C0.247346 20.3416 0.430346 18.1086 0.304346 17.0366C-0.173654 12.9836 0.0543466 8.86963 0.0543466 4.78663C0.0543466 3.81463 -0.161654 0.597631 0.887346 0.120631C2.97035 -0.826369 1.96035 4.08563 2.07335 4.98063C2.36535 7.31463 2.01935 9.65463 2.18535 11.9806C2.28735 13.4206 3.00935 15.0216 2.85135 16.4526Z"/>
     <path id="shape13" transform="translate(1939.453, 873.642)" fill="#ffffff" stroke="#000000" stroke-opacity="0" stroke-width="0" stroke-linecap="square" stroke-linejoin="bevel" d="M2.518 0C3.668 2.164 2.13 3.804 0 4.083C0.165 2.474 1.162 0.879 2.518 0Z"/>
     <path id="shape14" transform="translate(1875.75846552884, 807.951486468007)" fill="#e6180a" stroke="#000000" stroke-opacity="0" stroke-width="0" stroke-linecap="square" stroke-linejoin="bevel" d="M0.724534 23.3045C1.49953 17.8995 3.13053 12.6125 4.59553 7.36151C5.40353 4.46651 6.16453 0.620514 9.65953 0.0375135C12.6845 -0.467486 11.5845 4.25951 11.3695 6.19451C11.0295 9.25251 10.8195 12.2645 10.6105 15.3335C10.5385 16.3935 10.0545 17.5995 10.1435 18.6395C10.2935 20.3875 11.6975 20.2615 12.2525 21.4215C12.9615 22.9015 11.2785 32.0455 8.67153 32.7705C7.77553 33.0195 6.81953 32.5745 5.97753 32.3325C3.84353 31.7225 0.369534 31.2995 0.0365344 28.5555C-0.160466 26.9295 0.492534 24.9235 0.724534 23.3045Z"/>
    </g>
   </g>
  </g>
  <path id="path70" transform="translate(-138.792476685542, 173.31880844951)" fill="#e6180a" stroke="#000000" stroke-opacity="0" stroke-width="0" stroke-linecap="square" stroke-linejoin="bevel" d="M0.519477 2.28719C-1.35053 6.39019 2.42747 11.7312 2.45347 15.6702C5.44547 13.1232 11.9315 12.5132 13.8225 8.42019C14.7145 6.49119 13.9325 4.22819 12.1015 3.38919C10.2605 2.54619 8.04947 3.41919 7.17047 5.35419C8.05347 3.41119 7.27947 1.16619 5.44947 0.323192C3.61147 -0.524808 1.40047 0.353192 0.519477 2.28719Z"/>
  <path id="path67" transform="translate(-129.047, 193.567)" fill="#e6180a" stroke="#000000" stroke-opacity="0" stroke-width="0" stroke-linecap="square" stroke-linejoin="bevel" d="M7.052 7.483C4.701 8.104 2.351 8.724 0 9.345C0.794 9.096 1.344 8.382 1.879 7.771C3.047 6.265 4.114 4.631 4.777 2.83C5.103 1.946 5.4 0.95 5.176 0ZM0.001 9.346C1.028 9.11 2.074 9.526 2.996 9.954C4.683 10.739 6.206 11.868 7.591 13.127C8.117 13.66 8.718 14.214 8.929 14.967C8.303 12.473 7.678 9.979 7.053 7.484ZM8.928 14.967C8.683 13.844 9.084 12.696 9.511 11.678C10.236 9.948 11.27 8.354 12.457 6.918C12.931 6.408 13.422 5.82 14.103 5.621C11.752 6.242 9.402 6.863 7.051 7.483ZM14.104 5.621C13.077 5.857 12.03 5.442 11.109 5.014C9.422 4.23 7.899 3.099 6.514 1.841C5.988 1.308 5.388 0.753 5.177 0C5.802 2.495 6.427 4.988 7.052 7.483Z"/>
  <path id="shape15" transform="translate(-107.618857080386, 195.853901734316)" fill="#000000" stroke="#000000" stroke-opacity="0" stroke-width="0" stroke-linecap="square" stroke-linejoin="bevel" d="M11.9739 7.66709C10.4989 6.84809 9.68386 7.47809 8.29686 7.54509C10.2869 5.77409 11.5069 6.57509 12.5109 4.75709C14.5199 1.11809 8.87686 -2.02091 6.86786 1.61609C5.87186 3.41909 7.19986 4.13709 6.78186 6.74209C6.58486 6.40109 6.41586 6.02909 6.29586 5.62609C5.51886 2.89709 1.76886 2.35409 0.395857 4.84009C-0.983143 7.33609 1.46686 10.2221 4.25886 9.41109C4.81686 9.24909 5.37486 9.21209 5.89686 9.22909C5.31386 10.1151 3.01586 13.2671 0.603857 11.9341L7.17286 15.5901C5.21086 14.4961 5.69886 11.7511 6.62386 9.69309C7.56186 11.1311 7.34286 12.2781 8.93786 13.1651C12.6709 15.2431 15.7059 9.74609 11.9739 7.66709Z"/>
  <path id="shape16" transform="translate(-129.384705727953, 150.529)" fill="#000000" stroke="#000000" stroke-opacity="0" stroke-width="0" stroke-linecap="square" stroke-linejoin="bevel" d="M12.5077 6.244C11.5867 3.052 6.13971 2.116 4.01271 0C3.33671 2.937 -0.779294 6.64 0.130706 9.826C0.898706 12.516 5.16071 12.434 6.22671 9.722C6.53371 11.734 6.69271 15.035 4.59171 15.643L11.7977 13.558C9.72071 14.159 8.09871 11.366 7.24271 9.37C9.56471 11.166 13.2947 8.97 12.5077 6.244ZM6.31971 8.038Z"/>
 </g><g id="g3126" transform="matrix(2.24811262402085 0 0 2.29484501961765 -102.387370390716 -160.284158778931)" fill="none">
  <path id="path3128" transform="translate(150.629, 211.214)" fill="#000000" stroke="#000000" stroke-opacity="0" stroke-width="0" stroke-linecap="square" stroke-linejoin="bevel" d="M5.594 0.813L5.594 3.657L4.906 3.657C4.888 2.905 4.812 2.35 4.676 1.999C4.539 1.645 4.332 1.47 4.059 1.47C3.711 1.47 3.468 1.769 3.33 2.368C3.192 2.966 3.125 4.089 3.125 5.735L3.125 21.719L4.313 21.719L4.313 23.188L0 23.188L0 21.719L1.031 21.719L1.031 5.639C1.031 3.682 1.25 2.254 1.689 1.352C2.127 0.452 2.83 0 3.794 0C4.093 0 4.39 0.068 4.687 0.203C4.986 0.34 5.287 0.544 5.594 0.813Z"/>
  <path id="path3130" transform="translate(141.059, 216.027)" fill="#000000" stroke="#000000" stroke-opacity="0" stroke-width="0" stroke-linecap="square" stroke-linejoin="bevel" d="M4.349 0C5.703 0 6.764 0.831 7.533 2.49C8.302 4.149 8.687 6.437 8.687 9.353C8.687 12.269 8.301 14.558 7.533 16.222C6.765 17.886 5.703 18.718 4.349 18.718C2.988 18.718 1.923 17.888 1.154 16.228C0.384 14.57 0 12.277 0 9.353C0 6.437 0.387 4.148 1.16 2.49C1.933 0.83 2.996 0 4.349 0ZM4.349 1.469C3.658 1.469 3.145 2.117 2.812 3.412C2.479 4.709 2.312 6.689 2.312 9.353C2.312 12.025 2.479 14.009 2.812 15.306C3.145 16.601 3.658 17.249 4.349 17.249C5.033 17.249 5.54 16.595 5.874 15.286C6.208 13.979 6.374 12.001 6.374 9.352C6.374 6.711 6.208 4.737 5.874 3.43C5.541 2.123 5.033 1.469 4.349 1.469Z"/>
  <path id="path3132" transform="translate(130.657, 216.371)" fill="#000000" stroke="#000000" stroke-opacity="0" stroke-width="0" stroke-linecap="square" stroke-linejoin="bevel" d="M9.406 0L9.406 1.469L8.375 1.469L8.375 16.563L9.406 16.563L9.406 18.032L5.281 18.032L5.281 16.563L6.312 16.563L6.312 9.987L2.9 16.563L3.759 16.563L3.759 18.032L0.761 18.032L0.761 16.563L1.837 16.563L4.726 11L0.787 1.469L0 1.469L0 0L2.729 0L6.313 8.756L6.313 1.469L5.282 1.469L5.282 0Z"/>
  <path id="path3134" transform="translate(123.15, 216.371)" fill="#000000" stroke="#000000" stroke-opacity="0" stroke-width="0" stroke-linecap="square" stroke-linejoin="bevel" d="M7.313 0L7.313 1.469L6.282 1.469L6.282 16.563L7.313 16.563L7.313 18.032L0.094 18.032L0.094 13.782L0.844 13.782L0.844 16.376L4.219 16.376L4.219 10.595L2.125 10.595L2.125 12.876L1.375 12.876L1.375 6.657L2.125 6.657L2.125 8.938L4.219 8.938L4.219 1.657L0.75 1.657L0.75 4.251L0 4.251L0 0.001L7.313 0.001Z"/>
  <path id="path3136" transform="translate(113.307, 216.369)" fill="#000000" stroke="#000000" stroke-opacity="0" stroke-width="0" stroke-linecap="square" stroke-linejoin="bevel" d="M3.369 8.795C3.056 8.691 2.79 8.455 2.57 8.086C2.35 7.717 2.16 7.184 2 6.486L0.834 1.47L0 1.47L0 0.001L2.648 0.001L3.941 5.448C4.195 6.573 4.409 7.289 4.584 7.598C4.759 7.907 5 8.063 5.309 8.063L5.645 8.063L5.645 1.469L4.614 1.469L4.614 0L8.739 0L8.739 1.469L7.708 1.469L7.708 16.563L8.739 16.563L8.739 18.032L4.141 18.032C3.203 18.032 2.48 17.61 1.971 16.768C1.462 15.926 1.207 14.731 1.207 13.184C1.207 11.926 1.389 10.932 1.748 10.204C2.109 9.475 2.648 9.006 3.369 8.795ZM5.644 9.502L4.937 9.502C4.427 9.502 4.033 9.809 3.751 10.422C3.472 11.033 3.331 11.908 3.331 13.045C3.331 14.182 3.471 15.054 3.751 15.658C4.031 16.262 4.427 16.564 4.937 16.564L5.644 16.564Z"/>
 </g><g id="g3114" transform="matrix(2.29050867262692 0 0 2.29050867262692 -13.3947035151319 -6.94399190306427)" fill="none">
  <path id="path3116" transform="translate(10.325, 7.758)" fill="#000000" stroke="#000000" stroke-opacity="0" stroke-width="0" stroke-linecap="square" stroke-linejoin="bevel" d="M0 22.375L0 19.531L0.688 19.531C0.705 20.284 0.781 20.838 0.917 21.189C1.055 21.543 1.261 21.718 1.536 21.718C1.883 21.718 2.125 21.419 2.263 20.821C2.401 20.223 2.469 19.099 2.469 17.453L2.469 1.468L1.281 1.468L1.281 0L5.594 0L5.594 1.469L4.563 1.469L4.563 17.55C4.563 19.506 4.344 20.934 3.906 21.836C3.468 22.737 2.765 23.188 1.799 23.188C1.502 23.188 1.204 23.12 0.906 22.985C0.608 22.85 0.306 22.645 0 22.375Z"/>
  <path id="path3118" transform="translate(16.801, 7.415)" fill="#000000" stroke="#000000" stroke-opacity="0" stroke-width="0" stroke-linecap="square" stroke-linejoin="bevel" d="M4.338 18.718C2.984 18.718 1.923 17.888 1.154 16.229C0.385 14.57 0 12.282 0 9.365C0 6.449 0.385 4.16 1.154 2.496C1.923 0.832 2.984 0 4.338 0C5.699 0 6.765 0.83 7.534 2.49C8.303 4.149 8.687 6.441 8.687 9.365C8.687 12.282 8.3 14.57 7.527 16.229C6.754 17.888 5.691 18.718 4.338 18.718ZM4.338 17.249C5.029 17.249 5.542 16.601 5.875 15.306C6.208 14.009 6.375 12.029 6.375 9.365C6.375 6.693 6.208 4.709 5.875 3.413C5.542 2.117 5.029 1.469 4.338 1.469C3.654 1.469 3.146 2.123 2.813 3.432C2.48 4.74 2.313 6.717 2.313 9.366C2.313 12.007 2.48 13.981 2.813 15.289C3.146 16.597 3.654 17.249 4.338 17.249Z"/>
  <path id="path3120" transform="translate(26.485, 7.758)" fill="#000000" stroke="#000000" stroke-opacity="0" stroke-width="0" stroke-linecap="square" stroke-linejoin="bevel" d="M0 18.031L0 16.562L1.031 16.562L1.031 1.468L0 1.468L0 0L4.125 0L4.125 1.469L3.094 1.469L3.094 8.045L6.506 1.469L5.648 1.469L5.648 0L8.645 0L8.645 1.469L7.57 1.469L4.681 7.032L8.62 16.563L9.406 16.563L9.406 18.032L6.678 18.032L3.093 9.276L3.093 16.563L4.124 16.563L4.124 18.032L0 18.032Z"/>
  <path id="path3122" transform="translate(36.084, 7.758)" fill="#000000" stroke="#000000" stroke-opacity="0" stroke-width="0" stroke-linecap="square" stroke-linejoin="bevel" d="M0 18.031L0 16.562L1.031 16.562L1.031 1.468L0 1.468L0 0L7.219 0L7.219 4.25L6.469 4.25L6.469 1.656L3.094 1.656L3.094 7.437L5.188 7.437L5.188 5.156L5.938 5.156L5.938 11.375L5.188 11.375L5.188 9.094L3.094 9.094L3.094 16.375L6.563 16.375L6.563 13.781L7.313 13.781L7.313 18.031Z"/>
  <path id="path3124" transform="translate(44.501, 7.758)" fill="#000000" stroke="#000000" stroke-opacity="0" stroke-width="0" stroke-linecap="square" stroke-linejoin="bevel" d="M5.37 9.238C5.683 9.342 5.949 9.578 6.169 9.947C6.389 10.316 6.579 10.849 6.739 11.548L7.906 16.563L8.74 16.563L8.74 18.032L6.091 18.032L4.798 12.585C4.545 11.46 4.331 10.743 4.156 10.435C3.981 10.124 3.739 9.97 3.43 9.97L3.094 9.97L3.094 16.564L4.125 16.564L4.125 18.033L0 18.033L0 16.562L1.031 16.562L1.031 1.468L0 1.468L0 0L4.599 0C5.537 0 6.26 0.422 6.769 1.264C7.278 2.106 7.533 3.301 7.533 4.849C7.533 6.107 7.352 7.1 6.992 7.829C6.632 8.558 6.091 9.028 5.37 9.238ZM3.095 8.531L3.802 8.531C4.313 8.531 4.708 8.224 4.988 7.612C5.268 7 5.408 6.125 5.408 4.988C5.408 3.851 5.268 2.98 4.988 2.376C4.708 1.772 4.313 1.469 3.802 1.469L3.095 1.469Z"/>
 </g>
</svg>
