<?xml version="1.0" standalone="no"?>
<!DOCTYPE svg PUBLIC "-//W3C//DTD SVG 20010904//EN" "http://www.w3.org/TR/2001/REC-SVG-20010904/DTD/svg10.dtd">
<!-- Created using Krita: https://krita.org -->
<svg xmlns="http://www.w3.org/2000/svg" 
    xmlns:xlink="http://www.w3.org/1999/xlink"
    xmlns:krita="http://krita.org/namespaces/svg/krita"
    xmlns:sodipodi="http://sodipodi.sourceforge.net/DTD/sodipodi-0.dtd"
    width="259.2pt"
    height="388.8pt"
    viewBox="0 0 259.2 388.8">
<defs/>
<rect id="rect6472-45" transform="matrix(0.72 0 0 0.72 0.360000000000028 0.350769599999921)" fill="#ffffff" stroke="#000000" stroke-width="0.99999976" stroke-linecap="butt" stroke-linejoin="miter" stroke-miterlimit="2" width="359" height="539" rx="29.944447" ry="29.944447"/><path id="path3497-7" transform="matrix(1.43121951219512 0 0 1.43121951219512 15.809268292683 21.5907695999999)" fill="#000000" stroke="#000000" stroke-opacity="0" stroke-width="0" stroke-linecap="square" stroke-linejoin="bevel" d="M9 0L0 50L5 50L7.34375 37L15.6563 37L18 50L23 50L14 0ZM11.5 13.9063L14.75 32L8.25 32Z"/><path id="path3497-5-9" transform="matrix(1.43121951219512 0 0 1.43121951219512 210.472682926829 295.629751141463)" fill="#000000" stroke="#000000" stroke-opacity="0" stroke-width="0" stroke-linecap="square" stroke-linejoin="bevel" d="M9 50L0 0L5 0L7.34375 13L15.6563 13L18 0L23 0L14 50ZM11.5 36.0937L14.75 18L8.25 18Z"/><path id="path3037-7-83" transform="matrix(0.72 0 0 0.72 69.4800023889539 104.390773176279)" fill="#000000" stroke="#000000" stroke-opacity="0" stroke-width="0" stroke-linecap="square" stroke-linejoin="bevel" d="M97.4024 177.885C100.186 188.996 111.333 194.444 130.817 194.444C155.867 194.444 167 172.222 167 144.444C167 125 159.822 112.188 153.083 97.2222C145.908 81.2869 135.328 67.0627 125.25 52.7778C112.321 34.4503 83.5 0 83.5 0C83.5 0 54.6794 34.4503 41.75 52.7778C31.6724 67.0627 21.0918 81.2869 13.9167 97.2222C7.17808 112.188 0 125 0 144.444C0 172.222 11.1333 194.444 36.1833 194.444C55.6667 194.444 66.8 188.807 69.5833 177.696C72.3667 174.918 72.3667 177.696 72.3667 180.474C69.5833 202.696 72.3809 191.029 69.5976 207.696C66.8142 224.362 55.6667 250 55.6667 250C69.5833 244.444 97.4167 244.444 111.333 250C111.333 250 100.186 224.362 97.4024 207.696C94.6191 191.029 97.4167 202.696 94.6333 180.474C94.6333 177.696 94.6191 175.107 97.4024 177.885Z"/><path id="path3037-7-4-02" transform="matrix(1.43121951219512 0 0 1.43121951219512 10.8 107.463940331707)" fill="#000000" stroke="#000000" stroke-opacity="0" stroke-width="0" stroke-linecap="square" stroke-linejoin="bevel" d="M17.5 28C18 30 20 35 23.5 35C28 35 30 31 30 26C30 22.5 28.7105 20.1939 27.5 17.5C26.2111 14.6316 24.3103 12.0713 22.5 9.5C20.1773 6.20105 15 0 15 0C15 0 9.82265 6.20105 7.5 9.5C5.68966 12.0713 3.78894 14.6316 2.5 17.5C1.28947 20.1939 0 22.5 0 26C0 31 2 35 6.5 35C10 35 12 30 12.5 28C13 27.5 13 28 13 28.5C12.5 32.5 12.5 33.5 12 36.5C11.5 39.5 10 45 10 45C12.5 44 17.5 44 20 45C20 45 18.5 39.5 18 36.5C17.5 33.5 17.5 32.5 17 28.5C17 28 17 27.5 17.5 28Z"/><path id="path3037-7-4-0-2" transform="matrix(1.43121951219512 0 0 1.43121951219512 205.463414634146 216.912706595122)" fill="#000000" stroke="#000000" stroke-opacity="0" stroke-width="0" stroke-linecap="square" stroke-linejoin="bevel" d="M17.5 17C18 15 20 10 23.5 10C28 10 30 14 30 19C30 22.5 28.7105 24.8061 27.5 27.5C26.2111 30.3684 24.3103 32.9287 22.5 35.5C20.1773 38.7989 15 45 15 45C15 45 9.82265 38.7989 7.5 35.5C5.68966 32.9287 3.78894 30.3684 2.5 27.5C1.28947 24.8061 0 22.5 0 19C0 14 2 10 6.5 10C10 10 12 15 12.5 17C13 17.5 13 17 13 16.5C12.5 12.5 12.5 11.5 12 8.5C11.5 5.5 10 0 10 0C12.5 1 17.5 1 20 0C20 0 18.5 5.5 18 8.5C17.5 11.5 17.5 12.5 17 16.5C17 17 17 17.5 17.5 17Z"/><path id="path3037-7-4-021" transform="matrix(1.4312194847489 0 0 1.4312194847489 55.0936592781324 26.9044259522619)" fill="#000000" stroke="#000000" stroke-opacity="0" stroke-width="0" stroke-linecap="square" stroke-linejoin="bevel" d="M17.5 28C18 30 20 35 23.5 35C28 35 30 31 30 26C30 22.5 28.7105 20.1939 27.5 17.5C26.2111 14.6316 24.3103 12.0713 22.5 9.5C20.1773 6.20105 15 0 15 0C15 0 9.82265 6.20105 7.5 9.5C5.68966 12.0713 3.78894 14.6316 2.5 17.5C1.28947 20.1939 0 22.5 0 26C0 31 2 35 6.5 35C10 35 12 30 12.5 28C13 27.5 13 28 13 28.5C12.5 32.5 12.5 33.5 12 36.5C11.5 39.5 10 45 10 45C12.5 44 17.5 44 20 45C20 45 18.5 39.5 18 36.5C17.5 33.5 17.5 32.5 17 28.5C17 28 17 27.5 17.5 28Z"/><path id="path3037-7-4-0-21" transform="matrix(1.4312195469733 0 0 1.4312195469733 161.757078301499 298.353199827411)" fill="#000000" stroke="#000000" stroke-opacity="0" stroke-width="0" stroke-linecap="square" stroke-linejoin="bevel" d="M17.5 17C18 15 20 10 23.5 10C28 10 30 14 30 19C30 22.5 28.7105 24.8061 27.5 27.5C26.2111 30.3684 24.3103 32.9287 22.5 35.5C20.1773 38.7989 15 45 15 45C15 45 9.82265 38.7989 7.5 35.5C5.68966 32.9287 3.78894 30.3684 2.5 27.5C1.28947 24.8061 0 22.5 0 19C0 14 2 10 6.5 10C10 10 12 15 12.5 17C13 17.5 13 17 13 16.5C12.5 12.5 12.5 11.5 12 8.5C11.5 5.5 10 0 10 0C12.5 1 17.5 1 20 0C20 0 18.5 5.5 18 8.5C17.5 11.5 17.5 12.5 17 16.5C17 17 17 17.5 17.5 17Z"/>
</svg>
